<svg width="300" height="300" viewBox="0 0 300 300" fill="none" xmlns="http://www.w3.org/2000/svg">
<path d="M171.21 237.73H125.53C124.59 237.73 123.82 236.97 123.82 236.02C123.82 235.07 124.58 234.31 125.53 234.31H171.21C172.15 234.31 172.92 235.07 172.92 236.02C172.92 236.97 172.16 237.73 171.21 237.73Z" fill="white"/>
<path d="M148.37 74.43C106.92 74.43 73.19 108.15 73.19 149.61C73.19 159.92 75.25 169.93 79.32 179.35C79.6 179.99 80.12 180.5 80.78 180.74L108.32 190.97V211.8C108.32 212.7 108.79 213.53 109.56 213.99C121.24 221.05 134.67 224.78 148.37 224.78C162.07 224.78 175.5 221.05 187.18 213.99C187.95 213.53 188.42 212.69 188.42 211.8V190.97L215.96 180.74C216.62 180.5 217.14 179.99 217.42 179.35C221.49 169.93 223.55 159.92 223.55 149.61C223.55 108.16 189.83 74.43 148.37 74.43ZM213.13 176.32L184.96 186.78C183.96 187.15 183.29 188.11 183.29 189.18V210.33C179.56 212.48 175.64 214.25 171.6 215.67V203.04C171.6 201.62 170.45 200.48 169.04 200.48C167.63 200.48 166.48 201.63 166.48 203.04V217.28C163.5 218.08 160.46 218.67 157.38 219.07V210.35C157.38 208.93 156.23 207.79 154.82 207.79C153.41 207.79 152.26 208.94 152.26 210.35V219.53C150.97 219.6 149.68 219.66 148.38 219.66C146.63 219.66 144.89 219.58 143.16 219.45V210.35C143.16 208.93 142.01 207.79 140.6 207.79C139.19 207.79 138.04 208.94 138.04 210.35V218.86C134.96 218.4 131.92 217.74 128.94 216.88V203.05C128.94 201.63 127.79 200.49 126.38 200.49C124.97 200.49 123.82 201.64 123.82 203.05V215.18C120.26 213.85 116.79 212.25 113.47 210.34V189.19C113.47 188.12 112.8 187.16 111.8 186.79L83.63 176.33C80.12 167.84 78.35 158.86 78.35 149.62C78.35 124.03 92.15 101.61 112.69 89.39L119.57 95.92L114.87 108.46C114.5 109.45 114.77 110.57 115.56 111.27L127.92 122.3C128.41 122.74 129.02 122.95 129.63 122.95C130.34 122.95 131.04 122.66 131.54 122.09C132.48 121.03 132.39 119.41 131.33 118.47L120.28 108.61L124.96 96.13C125.32 95.17 125.07 94.08 124.33 93.37L117.43 86.81C126.78 82.18 137.29 79.57 148.4 79.57C187.02 79.57 218.45 110.99 218.45 149.62C218.45 158.86 216.67 167.84 213.17 176.33L213.13 176.32Z" fill="white"/>
<path d="M148.37 164.96C141.96 164.96 136.74 170.17 136.74 176.59C136.74 180.2 138.44 183.61 141.27 185.79V195.04C141.27 196.46 142.42 197.6 143.83 197.6H152.89C154.31 197.6 155.45 196.45 155.45 195.04V185.79C158.28 183.61 159.98 180.2 159.98 176.59C159.98 170.18 154.77 164.96 148.35 164.96H148.37ZM151.61 182.21C150.82 182.67 150.33 183.51 150.33 184.43V192.48H146.4V184.43C146.4 183.52 145.91 182.67 145.12 182.21C143.11 181.05 141.87 178.89 141.87 176.59C141.87 173.01 144.78 170.09 148.37 170.09C151.96 170.09 154.87 173 154.87 176.59C154.87 178.9 153.62 181.05 151.62 182.21H151.61Z" fill="white"/>
<path d="M132.89 139.91C129.17 136.23 123.08 134.46 114.27 134.6C92.97 134.85 91.33 142.25 91.33 152.69C91.33 163.13 101.88 171.83 114.36 171.83C126.84 171.83 137.28 163.07 137.28 152.69C137.28 149.07 136.83 143.8 132.89 139.91ZM114.36 166.7C104.82 166.7 96.45 160.15 96.45 152.69C96.45 144.73 96.45 139.93 114.33 139.73C114.55 139.73 114.77 139.73 114.99 139.73C121.9 139.73 126.71 141.02 129.28 143.56C131.26 145.52 132.14 148.33 132.14 152.69C132.14 160.15 123.83 166.7 114.35 166.7H114.36Z" fill="white"/>
<path d="M182.3 134.6C173.46 134.47 167.4 136.24 163.68 139.91C159.75 143.8 159.29 149.06 159.29 152.69C159.29 163.06 169.78 171.83 182.21 171.83C194.64 171.83 205.24 163.07 205.24 152.69C205.24 142.31 203.59 134.85 182.3 134.6ZM182.21 166.7C172.73 166.7 164.42 160.15 164.42 152.69C164.42 148.33 165.3 145.52 167.28 143.56C169.86 141.01 174.66 139.73 181.57 139.73C181.79 139.73 182.01 139.73 182.23 139.73C200.11 139.94 200.11 144.74 200.11 152.69C200.11 160.15 191.74 166.7 182.21 166.7Z" fill="white"/>
<path d="M123.53 259.91L123.17 258.82C123.09 258.6 123.02 258.45 122.96 258.37C122.86 258.23 122.72 258.16 122.56 258.16C122.5 258.16 122.43 258.17 122.33 258.2L118.71 259.72L119.05 256.01V255.84C119.05 255.59 118.97 255.42 118.82 255.31C118.69 255.22 118.49 255.18 118.16 255.18H117.04C116.73 255.18 116.52 255.22 116.39 255.31C116.28 255.38 116.15 255.54 116.15 255.85L116.5 259.73L113.11 258.25C113.05 258.22 112.98 258.2 112.9 258.19C112.75 258.16 112.51 258.06 112.26 258.37C112.18 258.47 112.11 258.62 112.04 258.84L111.67 259.96C111.67 259.96 111.64 260.06 111.62 260.15C111.57 260.31 111.56 260.36 111.56 260.41C111.56 260.53 111.6 260.69 111.78 260.83C111.89 260.92 112.04 260.98 112.23 261.01L115.81 261.82L113.42 264.6C113.33 264.68 113.26 264.76 113.2 264.87C113.14 264.98 113.11 265.08 113.11 265.16C113.11 265.29 113.17 265.42 113.28 265.54C113.36 265.63 113.47 265.72 113.6 265.81L114.51 266.48C114.63 266.57 114.73 266.64 114.81 266.68C115.09 266.82 115.25 266.78 115.45 266.64C115.54 266.57 115.63 266.47 115.72 266.33L117.61 263.14L119.51 266.33C119.58 266.45 119.66 266.55 119.75 266.62C119.86 266.72 119.98 266.76 120.1 266.76C120.19 266.76 120.28 266.74 120.39 266.68C120.46 266.64 120.56 266.58 120.69 266.48L121.65 265.8C121.77 265.7 121.86 265.61 121.93 265.53C122.03 265.41 122.08 265.3 122.08 265.19C122.08 265.09 122.06 264.98 122.01 264.88C121.96 264.77 121.89 264.69 121.82 264.63L119.4 261.82L123 261.01C123.18 260.97 123.32 260.92 123.43 260.84C123.61 260.71 123.64 260.55 123.64 260.44C123.64 260.39 123.64 260.32 123.61 260.24C123.59 260.16 123.57 260.07 123.54 259.93L123.53 259.91Z" fill="white"/>
<path d="M144.05 259.91L143.69 258.82C143.61 258.6 143.55 258.46 143.48 258.36C143.38 258.22 143.24 258.15 143.08 258.15C143.02 258.15 142.95 258.16 142.85 258.19C142.79 258.21 142.72 258.23 142.63 258.26L139.24 259.71L139.58 256V255.83C139.58 255.58 139.5 255.4 139.35 255.3C139.22 255.21 139.02 255.17 138.69 255.17H137.57C137.25 255.17 137.05 255.21 136.92 255.3C136.81 255.37 136.68 255.53 136.68 255.84L137.03 259.72L133.64 258.24C133.58 258.21 133.51 258.19 133.43 258.18C133.28 258.15 133.04 258.05 132.79 258.36C132.71 258.46 132.64 258.61 132.57 258.83L132.2 259.95C132.2 259.95 132.17 260.06 132.14 260.14C132.09 260.3 132.08 260.35 132.08 260.4C132.08 260.52 132.12 260.68 132.3 260.82C132.42 260.91 132.56 260.97 132.75 261L136.33 261.81L133.94 264.59C133.85 264.67 133.78 264.75 133.72 264.86C133.66 264.97 133.63 265.07 133.63 265.15C133.63 265.28 133.69 265.41 133.8 265.53C133.88 265.62 133.99 265.71 134.12 265.8L135.03 266.47C135.14 266.56 135.24 266.63 135.33 266.67C135.62 266.82 135.78 266.77 135.97 266.63C136.06 266.56 136.15 266.46 136.24 266.32L138.13 263.13L140.03 266.32C140.1 266.44 140.18 266.54 140.27 266.61C140.38 266.71 140.5 266.75 140.62 266.75C140.71 266.75 140.8 266.73 140.91 266.67C140.98 266.63 141.08 266.57 141.21 266.47L142.17 265.79C142.29 265.69 142.38 265.6 142.45 265.52C142.52 265.44 142.6 265.33 142.6 265.18C142.6 265.07 142.57 264.97 142.53 264.87C142.48 264.77 142.41 264.67 142.34 264.62L139.92 261.81L143.52 261C143.7 260.96 143.84 260.91 143.95 260.83C144.13 260.7 144.17 260.54 144.17 260.43C144.17 260.4 144.17 260.35 144.14 260.23C144.12 260.15 144.1 260.06 144.07 259.92L144.05 259.91Z" fill="white"/>
<path d="M164.57 259.91L164.21 258.82C164.13 258.6 164.06 258.45 164 258.37C163.9 258.23 163.76 258.16 163.6 258.16C163.54 258.16 163.47 258.17 163.37 258.2C163.31 258.22 163.24 258.24 163.15 258.27L159.76 259.72L160.09 256.01V255.84C160.09 255.59 160.01 255.42 159.86 255.31C159.73 255.22 159.53 255.18 159.2 255.18H158.08C157.77 255.18 157.56 255.22 157.42 255.31C157.31 255.38 157.18 255.54 157.18 255.85L157.53 259.73L154.14 258.25C154.08 258.22 154.01 258.2 153.93 258.19C153.78 258.16 153.54 258.05 153.29 258.37C153.21 258.47 153.14 258.62 153.07 258.84L152.7 259.96C152.7 259.96 152.67 260.06 152.65 260.15C152.6 260.31 152.59 260.36 152.59 260.41C152.59 260.53 152.63 260.69 152.81 260.83C152.92 260.92 153.07 260.98 153.26 261.01L156.84 261.82L154.45 264.6C154.36 264.68 154.29 264.76 154.23 264.87C154.17 264.98 154.14 265.08 154.14 265.16C154.14 265.29 154.2 265.42 154.31 265.54C154.39 265.63 154.5 265.72 154.63 265.81L155.54 266.48C155.65 266.57 155.75 266.64 155.84 266.68C156.12 266.82 156.28 266.78 156.48 266.64C156.57 266.57 156.66 266.47 156.75 266.33L158.64 263.14L160.54 266.33C160.61 266.45 160.69 266.54 160.78 266.62C160.89 266.72 161.01 266.76 161.13 266.76C161.22 266.76 161.31 266.74 161.42 266.68C161.49 266.64 161.6 266.58 161.72 266.48L162.68 265.8C162.8 265.7 162.89 265.61 162.96 265.53C163.06 265.41 163.11 265.3 163.11 265.19C163.11 265.09 163.09 264.98 163.04 264.88C162.99 264.77 162.92 264.69 162.85 264.63L160.43 261.82L164.03 261.01C164.21 260.97 164.35 260.92 164.46 260.84C164.64 260.71 164.67 260.55 164.67 260.44C164.67 260.39 164.67 260.32 164.64 260.24C164.62 260.16 164.6 260.07 164.57 259.93V259.91Z" fill="white"/>
<path d="M185.17 260.22C185.15 260.14 185.13 260.05 185.1 259.91L184.74 258.82C184.66 258.61 184.6 258.46 184.53 258.36C184.43 258.22 184.29 258.15 184.13 258.15C184.07 258.15 184 258.16 183.9 258.19C183.84 258.21 183.77 258.23 183.68 258.26L180.29 259.71L180.62 256V255.83C180.62 255.58 180.54 255.41 180.39 255.3C180.26 255.21 180.06 255.17 179.73 255.17H178.61C178.3 255.17 178.09 255.21 177.96 255.3C177.85 255.37 177.72 255.53 177.72 255.84L178.07 259.72L174.68 258.24C174.61 258.21 174.55 258.19 174.47 258.18C174.32 258.15 174.08 258.05 173.83 258.36C173.75 258.46 173.68 258.61 173.61 258.83L173.24 259.95C173.24 259.95 173.21 260.06 173.18 260.14C173.13 260.3 173.12 260.35 173.12 260.4C173.12 260.52 173.16 260.68 173.34 260.82C173.45 260.91 173.6 260.97 173.79 261L177.37 261.81L174.98 264.59C174.89 264.67 174.82 264.75 174.76 264.85C174.7 264.96 174.67 265.06 174.67 265.15C174.67 265.28 174.73 265.41 174.84 265.53C174.92 265.62 175.03 265.71 175.16 265.8L176.07 266.47C176.18 266.56 176.28 266.63 176.37 266.67C176.66 266.82 176.82 266.77 177.01 266.63C177.11 266.56 177.2 266.46 177.28 266.32L179.17 263.13L181.07 266.32C181.14 266.44 181.22 266.54 181.31 266.61C181.42 266.71 181.54 266.75 181.66 266.75C181.75 266.75 181.84 266.73 181.95 266.67C182.02 266.63 182.12 266.57 182.25 266.47L183.2 265.79C183.32 265.69 183.41 265.6 183.48 265.52C183.55 265.44 183.63 265.33 183.63 265.18C183.63 265.07 183.6 264.97 183.56 264.87C183.51 264.77 183.44 264.68 183.37 264.62L180.95 261.81L184.55 261C184.73 260.96 184.87 260.91 184.98 260.83C185.16 260.7 185.19 260.54 185.19 260.43C185.19 260.4 185.19 260.35 185.16 260.23L185.17 260.22Z" fill="white"/>
<path d="M232.87 194.43C227.43 194.43 223.01 190.01 223.01 184.57C223.01 179.13 227.43 174.71 232.87 174.71C238.31 174.71 242.73 179.13 242.73 184.57C242.73 190.01 238.31 194.43 232.87 194.43ZM232.87 179.84C230.26 179.84 228.14 181.96 228.14 184.57C228.14 187.18 230.26 189.3 232.87 189.3C235.48 189.3 237.6 187.18 237.6 184.57C237.6 181.96 235.48 179.84 232.87 179.84Z" fill="white"/>
<path d="M213.88 233.39C208.44 233.39 204.02 228.97 204.02 223.53C204.02 218.09 208.44 213.67 213.88 213.67C219.32 213.67 223.74 218.09 223.74 223.53C223.74 228.97 219.32 233.39 213.88 233.39ZM213.88 218.8C211.27 218.8 209.15 220.92 209.15 223.53C209.15 226.14 211.27 228.26 213.88 228.26C216.49 228.26 218.61 226.14 218.61 223.53C218.61 220.92 216.49 218.8 213.88 218.8Z" fill="white"/>
<path d="M66.86 197.32C72.3055 197.32 76.72 192.906 76.72 187.46C76.72 182.014 72.3055 177.6 66.86 177.6C61.4145 177.6 57 182.014 57 187.46C57 192.906 61.4145 197.32 66.86 197.32Z" fill="white"/>
<path d="M164.8 38.12C164.09 39.48 163.69 41.02 163.69 42.65C163.69 48.09 168.11 52.51 173.55 52.51C178.99 52.51 183.41 48.09 183.41 42.65C183.41 37.21 178.99 32.79 173.55 32.79C171.62 32.79 169.82 33.36 168.29 34.32C166.82 35.25 165.61 36.56 164.8 38.11V38.12ZM178.28 42.65C178.28 45.26 176.16 47.38 173.55 47.38C170.94 47.38 168.82 45.26 168.82 42.65C168.82 40.04 170.94 37.92 173.55 37.92C176.16 37.92 178.28 40.04 178.28 42.65Z" fill="white"/>
<path d="M220.58 216.32C224.81 209.06 228.39 201.67 231.21 194.28C229.45 193.98 227.85 193.22 226.54 192.12C223.78 199.42 220.24 206.73 216.05 213.92C217.78 214.31 219.33 215.16 220.58 216.32Z" fill="white"/>
<path d="M182.29 47.18C181.48 48.73 180.28 50.03 178.81 50.96C216.5 89.45 233.41 132.48 233.41 158.34C233.41 163.54 232.78 169.07 231.61 174.79C232.02 174.74 232.44 174.7 232.86 174.7C234.22 174.7 235.52 174.98 236.7 175.48C237.9 169.54 238.54 163.78 238.54 158.34C238.54 121.1 210.53 76.03 182.28 47.17L182.29 47.18Z" fill="white"/>
<path d="M148.37 24C146.91 24 145.25 24.39 143.48 25.03C138.92 24.57 108.49 22.04 95.31 36.21C94.65 36.92 94.45 37.95 94.79 38.86C95.13 39.77 95.97 40.41 96.94 40.5C105.47 41.34 113.88 43.16 116.91 44.72C114.74 46.85 112.63 49.02 110.64 51.17C71.98 92.83 58.2 133.85 58.2 158.35C58.2 165.29 59.18 172.45 60.92 179.61C62.29 178.58 63.92 177.88 65.71 177.68C64.18 171.17 63.32 164.67 63.32 158.36C63.32 122.44 90.83 80.06 114.39 54.68C116.98 51.89 119.47 49.37 121.86 47.06C122.08 46.91 122.27 46.72 122.43 46.51C134.81 34.65 144.27 29.15 148.36 29.15C151.64 29.15 157.7 32.5 164.78 38.14C165.59 36.59 166.8 35.28 168.27 34.35C162.06 29.36 154.08 24.03 148.36 24.03L148.37 24ZM120.63 41.16C117.68 38.98 111.96 37.28 103.49 36.11C112.42 30.53 125.94 29.63 134.73 29.72C130.19 32.77 125.34 36.78 120.63 41.16Z" fill="white"/>
<path d="M198.4 245.9C202.33 241.88 206.15 237.38 209.83 232.51C208.23 231.79 206.87 230.66 205.86 229.24C201.17 235.45 196.26 241 191.21 245.74H105.51C92.65 233.65 79.79 215.5 71.71 196.03C70.28 196.84 68.62 197.32 66.86 197.32C66.82 197.32 66.77 197.32 66.73 197.32C74.35 215.93 86.17 233.38 98.36 245.9C91.89 246.85 86.91 252.41 86.91 259.14V262.61C86.91 269.99 92.92 276 100.3 276H196.45C203.83 276 209.84 269.99 209.84 262.61V259.14C209.84 252.42 204.86 246.85 198.4 245.91V245.9ZM204.72 262.61C204.72 267.17 201.01 270.88 196.45 270.88H100.3C95.74 270.88 92.03 267.17 92.03 262.61V259.14C92.03 254.58 95.74 250.87 100.3 250.87H196.45C201.01 250.87 204.72 254.58 204.72 259.14V262.61Z" fill="white"/>
</svg>
