<svg width="300" height="300" viewBox="0 0 300 300" fill="none" xmlns="http://www.w3.org/2000/svg">
<path d="M258.389 205.64C256.979 203.19 254.689 201.44 251.959 200.71C249.219 199.98 246.369 200.35 243.929 201.77C241.479 203.18 239.729 205.47 238.999 208.2C238.269 210.93 238.639 213.78 240.059 216.23C241.469 218.68 243.759 220.43 246.489 221.16C247.399 221.41 248.319 221.52 249.229 221.52C253.899 221.52 258.189 218.4 259.459 213.67C260.189 210.94 259.819 208.09 258.399 205.64H258.389Z" fill="white"/>
<path d="M231.429 169.57C228.979 168.16 226.129 167.78 223.399 168.51C220.669 169.24 218.389 170.99 216.969 173.44C215.559 175.89 215.179 178.74 215.909 181.47C216.639 184.2 218.389 186.48 220.839 187.9C222.469 188.84 224.279 189.32 226.119 189.32C227.039 189.32 227.969 189.2 228.879 188.96C231.609 188.23 233.889 186.48 235.309 184.03C236.729 181.58 237.099 178.73 236.369 176C235.639 173.27 233.889 170.98 231.439 169.57H231.429Z" fill="white"/>
<path d="M229.889 259.81C227.159 259.08 224.299 259.45 221.859 260.87C219.409 262.28 217.659 264.57 216.929 267.3C216.199 270.03 216.569 272.88 217.989 275.33C219.399 277.78 221.689 279.53 224.419 280.26C225.329 280.51 226.249 280.62 227.159 280.62C231.829 280.62 236.119 277.5 237.389 272.77C238.899 267.13 235.539 261.32 229.899 259.81H229.889ZM232.649 271.51C232.259 272.98 231.309 274.21 229.999 274.97C228.679 275.73 227.149 275.93 225.679 275.54C224.209 275.15 222.979 274.21 222.219 272.89C221.459 271.57 221.259 270.04 221.649 268.57C222.039 267.1 222.989 265.87 224.299 265.11C225.179 264.6 226.149 264.34 227.139 264.34C227.629 264.34 228.129 264.41 228.619 264.54C231.649 265.35 233.459 268.48 232.649 271.51Z" fill="white"/>
<path d="M70.6593 280.62C65.9893 280.62 61.6993 277.5 60.4293 272.77C59.6993 270.04 60.0693 267.19 61.4893 264.74C62.8993 262.29 65.1893 260.54 67.9193 259.81C70.6493 259.08 73.4993 259.45 75.9493 260.87C78.3993 262.29 80.1493 264.57 80.8793 267.3C81.6093 270.03 81.2393 272.88 79.8193 275.33C78.3993 277.78 76.1193 279.53 73.3893 280.26C72.4793 280.51 71.5593 280.62 70.6493 280.62H70.6593ZM70.6593 264.34C70.1693 264.34 69.6693 264.41 69.1793 264.54C67.7093 264.93 66.4793 265.88 65.7193 267.19C64.9593 268.51 64.7593 270.04 65.1493 271.51C65.5393 272.98 66.4893 274.21 67.7993 274.97C69.1193 275.73 70.6493 275.93 72.1193 275.54C75.1493 274.73 76.9593 271.6 76.1493 268.57C75.7593 267.1 74.8093 265.87 73.4993 265.11C72.6193 264.6 71.6493 264.34 70.6593 264.34Z" fill="white"/>
<path d="M98.2793 89.47C96.9293 89.47 95.8293 88.37 95.8293 87.02C95.8293 61.78 119.759 41.25 149.169 41.25C150.519 41.25 151.619 42.35 151.619 43.7C151.619 45.05 150.519 46.15 149.169 46.15C122.459 46.15 100.719 64.49 100.719 87.03C100.719 88.38 99.6193 89.48 98.2693 89.48L98.2793 89.47Z" fill="white"/>
<path d="M48.5693 221.52C46.7393 221.52 44.9293 221.04 43.2893 220.1C40.8393 218.69 39.0893 216.4 38.3593 213.67C37.6293 210.94 37.9993 208.09 39.4193 205.64C40.8293 203.19 43.1193 201.44 45.8493 200.71C48.5793 199.98 51.4293 200.35 53.8793 201.77C56.3293 203.18 58.0793 205.47 58.8093 208.2C59.5393 210.93 59.1693 213.78 57.7493 216.23C56.3393 218.68 54.0493 220.43 51.3193 221.16C50.4093 221.4 49.4793 221.52 48.5593 221.52H48.5693ZM48.5993 205.23C48.1093 205.23 47.6093 205.3 47.1193 205.43C45.6493 205.82 44.4193 206.76 43.6593 208.08C42.8993 209.4 42.6993 210.93 43.0893 212.4C43.4793 213.87 44.4293 215.1 45.7393 215.86C47.0593 216.62 48.5893 216.82 50.0593 216.43C53.0893 215.62 54.8993 212.49 54.0893 209.46C53.6993 207.99 52.7493 206.76 51.4393 206C50.5593 205.49 49.5893 205.23 48.5993 205.23Z" fill="white"/>
<path d="M183.539 150.22C181.009 150.22 178.539 149.68 176.289 148.63C172.639 146.91 170.029 143.98 169.139 140.58C168.489 138.1 167.859 134.41 169.889 130.98C171.779 127.78 175.589 125.51 181.519 124.03C196.009 120.41 198.549 125.44 200.379 132.39C201.269 135.79 200.419 139.63 198.059 142.93C195.719 146.19 192.209 148.56 188.169 149.62C186.639 150.02 185.089 150.22 183.549 150.22H183.539ZM189.719 127.65C188.029 127.65 185.769 128 182.699 128.77C178.159 129.9 175.269 131.48 174.089 133.47C173.239 134.9 173.169 136.71 173.859 139.33C174.379 141.33 176.019 143.1 178.359 144.19C180.939 145.4 183.979 145.65 186.919 144.88C189.819 144.12 192.429 142.37 194.079 140.06C195.589 137.95 196.159 135.6 195.639 133.62C194.689 129.98 194.069 127.65 189.719 127.65Z" fill="white"/>
<path d="M114.269 150.22C112.729 150.22 111.179 150.02 109.649 149.62C105.609 148.56 102.089 146.18 99.7593 142.93C97.3893 139.63 96.5493 135.79 97.4393 132.39C99.2593 125.44 101.799 120.41 116.299 124.03C122.239 125.51 126.039 127.79 127.929 130.98C129.959 134.41 129.329 138.1 128.679 140.58C127.789 143.98 125.179 146.91 121.529 148.63C119.279 149.69 116.799 150.22 114.279 150.22H114.269ZM108.089 127.65C103.729 127.65 103.119 129.98 102.169 133.62C101.649 135.61 102.219 137.95 103.729 140.06C105.379 142.36 107.989 144.12 110.889 144.88C113.829 145.65 116.859 145.41 119.449 144.19C121.779 143.09 123.419 141.32 123.949 139.33C124.639 136.7 124.569 134.9 123.719 133.47C122.539 131.49 119.649 129.9 115.109 128.77C112.039 128 109.789 127.65 108.089 127.65Z" fill="white"/>
<path d="M191.779 262.57C186.099 261.24 180.389 264.8 179.079 270.49C177.759 276.18 181.309 281.88 186.999 283.19C187.799 283.38 188.599 283.47 189.389 283.47C194.199 283.47 198.569 280.16 199.699 275.27C201.019 269.58 197.469 263.88 191.779 262.57Z" fill="white"/>
<path d="M181.469 233.8V204.45C181.469 203.7 181.129 203 180.539 202.53L160.089 186.36C159.349 185.78 158.349 185.67 157.509 186.08C156.669 186.49 156.129 187.34 156.129 188.28V248.53C156.129 249.28 156.469 249.99 157.059 250.45L179.789 268.4C180.499 266.87 181.549 265.58 182.829 264.57L161.019 247.34V193.33L176.569 205.63V235.04C176.569 235.82 176.949 236.56 177.579 237.02L217.419 265.85C218.069 264.32 219.059 262.98 220.329 261.92L181.459 233.79L181.469 233.8Z" fill="white"/>
<path d="M113.519 263.71C111.069 262.29 108.219 261.92 105.489 262.65C99.8493 264.16 96.4993 269.98 97.9993 275.62C99.2693 280.34 103.559 283.47 108.229 283.47C109.129 283.47 110.049 283.35 110.959 283.11C113.689 282.38 115.969 280.63 117.389 278.18C118.809 275.73 119.179 272.88 118.449 270.15C117.719 267.42 115.969 265.14 113.519 263.72V263.71Z" fill="white"/>
<path d="M74.4093 168.51C71.6793 167.78 68.8193 168.15 66.3793 169.57C63.9293 170.98 62.1793 173.27 61.4493 176C60.7193 178.73 61.0893 181.58 62.5093 184.03C63.9193 186.48 66.2093 188.23 68.9393 188.96C69.8593 189.21 70.7693 189.32 71.6793 189.32C76.3493 189.32 80.6393 186.2 81.9093 181.47C82.6393 178.74 82.2693 175.89 80.8493 173.44C79.4393 170.99 77.1493 169.24 74.4193 168.51H74.4093Z" fill="white"/>
<path d="M140.009 186.08C139.169 185.67 138.159 185.78 137.429 186.36L116.979 202.53C116.389 203 116.049 203.7 116.049 204.45V233.79L77.0593 261.61C78.3893 262.62 79.4493 263.9 80.1793 265.4L119.919 237.04C120.559 236.58 120.949 235.84 120.949 235.05V205.64L136.499 193.34V247.35L114.729 264.55C116.039 265.57 117.079 266.87 117.789 268.37L140.459 250.46C141.049 250 141.389 249.29 141.389 248.54V188.29C141.389 187.35 140.849 186.5 140.009 186.09V186.08Z" fill="white"/>
<path d="M240.059 216.22C239.899 215.95 239.769 215.67 239.629 215.39L218.879 232.07L197.619 217.91L195.969 206.75L219.739 187.16C218.409 186.16 217.349 184.88 216.619 183.39L195.129 201.1L190.749 171.44C190.459 168.98 198.349 159.63 203.059 154.04C210.419 145.31 214.939 139.77 215.189 136.13C215.479 131.73 211.789 126.48 208.209 121.41C205.859 118.07 203.199 114.29 203.049 112.38C203.049 112.35 203.039 112.32 203.029 112.29C208.739 104.01 211.769 94.56 211.769 84.89C211.779 55.17 183.569 31 148.909 31C114.249 31 86.0293 55.17 86.0293 84.89C86.0293 94.56 89.0493 104.01 94.7593 112.29C94.7593 112.32 94.7493 112.35 94.7393 112.38C94.5893 114.28 91.9293 118.07 89.5793 121.41C86.0093 126.49 82.3093 131.74 82.5993 136.13C82.8393 139.78 87.3693 145.31 94.7293 154.04C99.4393 159.63 107.329 168.99 107.029 171.52L102.659 201.11L81.1593 183.4C80.4193 184.91 79.3493 186.2 78.0493 187.18L101.819 206.77L100.169 217.93L78.9093 232.09L58.1593 215.41C58.0293 215.69 57.8893 215.97 57.7293 216.24C57.0493 217.42 56.1593 218.43 55.1293 219.25L77.2393 237.02C77.6893 237.38 78.2293 237.56 78.7693 237.56C79.2393 237.56 79.7093 237.42 80.1293 237.15L103.779 221.39C104.349 221.01 104.739 220.4 104.839 219.71L111.839 172.31C112.619 167.96 107.269 161.34 98.4593 150.89C93.8893 145.47 87.6193 138.04 87.4693 135.8C87.2893 133.13 90.7693 128.19 93.5593 124.22C95.7893 121.06 97.7893 118.2 98.8393 115.65C99.0293 115.7 99.2293 115.73 99.4293 115.73C99.5593 115.73 99.6793 115.73 99.8093 115.7C99.8293 115.7 102.159 115.34 105.719 115.58C107.049 115.64 108.229 114.65 108.319 113.3C108.409 111.95 107.389 110.79 106.039 110.7C102.899 110.5 100.569 110.69 99.5693 110.8C99.4993 110.63 99.4093 110.46 99.2993 110.3C93.7993 102.66 90.8893 93.87 90.8893 84.89C90.8893 57.87 116.899 35.89 148.869 35.89C180.839 35.89 206.849 57.87 206.849 84.89C206.849 93.87 203.939 102.66 198.439 110.3C198.329 110.46 198.239 110.62 198.169 110.8C197.169 110.69 194.839 110.49 191.699 110.7C190.349 110.79 189.329 111.96 189.419 113.3C189.509 114.65 190.689 115.64 192.019 115.58C195.559 115.35 197.889 115.7 197.929 115.7C198.059 115.72 198.189 115.73 198.319 115.73C198.519 115.73 198.719 115.7 198.909 115.65C199.959 118.21 201.959 121.06 204.189 124.22C206.979 128.19 210.459 133.13 210.279 135.8C210.129 138.03 203.869 145.46 199.289 150.89C190.479 161.34 185.119 167.96 185.889 172.23L192.899 219.7C192.999 220.38 193.389 220.99 193.959 221.38L217.609 237.14C218.019 237.42 218.499 237.55 218.969 237.55C219.509 237.55 220.059 237.37 220.499 237.01L242.609 219.24C241.569 218.42 240.689 217.41 240.009 216.23L240.059 216.22Z" fill="white"/>
</svg>
