<svg width="300" height="300" viewBox="0 0 300 300" fill="none" xmlns="http://www.w3.org/2000/svg">
<path d="M156.57 225.136H144.26C142.85 225.136 141.71 223.996 141.71 222.586V209.546C137.88 206.766 135.55 202.286 135.55 197.516C135.55 189.326 142.21 182.656 150.41 182.656C158.61 182.656 165.27 189.316 165.27 197.516C165.27 202.286 162.94 206.766 159.11 209.546V222.586C159.11 223.996 157.97 225.136 156.56 225.136H156.57ZM146.81 220.046H154.03V208.176C154.03 207.266 154.51 206.426 155.3 205.976C158.31 204.226 160.19 200.996 160.19 197.526C160.19 192.146 155.81 187.766 150.43 187.766C145.05 187.766 140.67 192.146 140.67 197.526C140.67 200.986 142.54 204.226 145.56 205.976C146.35 206.426 146.83 207.266 146.83 208.176V220.046H146.81Z" fill="white"/>
<path d="M204.94 69.8662C202.92 69.8662 200.87 69.3562 198.99 68.2662C193.29 64.9762 191.33 57.6662 194.62 51.9662C197.91 46.2662 205.22 44.3062 210.92 47.5962C216.62 50.8862 218.58 58.1962 215.29 63.8962C213.08 67.7162 209.06 69.8562 204.94 69.8562V69.8662ZM204.97 51.0962C202.6 51.0962 200.3 52.3262 199.03 54.5162C198.12 56.0962 197.87 57.9462 198.35 59.7062C198.82 61.4662 199.95 62.9462 201.54 63.8562C204.81 65.7462 209 64.6162 210.89 61.3562C212.77 58.0862 211.65 53.8962 208.39 52.0162C207.32 51.3962 206.14 51.1062 204.98 51.1062L204.97 51.0962Z" fill="white"/>
<path d="M80.8204 109.506C78.7504 109.506 76.7104 108.966 74.8704 107.906C69.1704 104.616 67.2104 97.3062 70.5004 91.6062C72.0904 88.8462 74.6704 86.8762 77.7404 86.0462C80.8204 85.2262 84.0404 85.6462 86.7904 87.2362C89.5504 88.8262 91.5204 91.4062 92.3504 94.4862C93.1704 97.5662 92.7504 100.776 91.1604 103.536C89.5704 106.296 86.9904 108.266 83.9204 109.096C82.8904 109.376 81.8504 109.506 80.8104 109.506H80.8204ZM80.8504 90.7262C80.2504 90.7262 79.6604 90.8062 79.0704 90.9662C77.3104 91.4362 75.8304 92.5662 74.9204 94.1562C73.0404 97.4262 74.1604 101.616 77.4204 103.496C79.0004 104.406 80.8504 104.656 82.6104 104.176C84.3704 103.706 85.8504 102.576 86.7604 100.986C87.6704 99.4062 87.9204 97.5562 87.4404 95.7962C86.9704 94.0362 85.8404 92.5562 84.2504 91.6462C83.2004 91.0362 82.0304 90.7262 80.8404 90.7262H80.8504Z" fill="white"/>
<path d="M150.75 253.726C148.73 253.726 146.68 253.216 144.8 252.126C139.1 248.836 137.14 241.526 140.43 235.826C143.72 230.126 151.03 228.166 156.73 231.456C162.43 234.746 164.39 242.056 161.1 247.756C158.89 251.576 154.87 253.716 150.75 253.716V253.726ZM150.78 234.956C148.41 234.956 146.11 236.186 144.84 238.376C142.95 241.646 144.08 245.836 147.34 247.716C150.61 249.596 154.8 248.476 156.68 245.216C158.56 241.946 157.44 237.756 154.18 235.876C153.11 235.256 151.93 234.966 150.77 234.966L150.78 234.956Z" fill="white"/>
<path d="M156.39 98.3262C150.29 94.8062 142.46 96.9062 138.93 103.006C135.41 109.106 137.51 116.946 143.61 120.466C145.62 121.626 147.81 122.176 149.98 122.176C154.4 122.176 158.71 119.886 161.07 115.786C164.59 109.686 162.49 101.846 156.39 98.3262Z" fill="white"/>
<path d="M150.77 168.566C170.26 168.566 186.12 184.426 186.12 203.906C186.12 202.496 187.26 201.356 188.67 201.356C190.08 201.356 191.22 202.496 191.22 203.906C191.22 181.606 173.08 163.466 150.78 163.466C128.48 163.466 110.34 181.606 110.34 203.906C110.34 222.066 122.37 237.456 138.88 242.556C138.77 240.846 139.04 239.106 139.69 237.446C125.62 232.776 115.44 219.526 115.44 203.906C115.44 184.416 131.3 168.566 150.78 168.566H150.77Z" fill="white"/>
<path d="M188.67 201.356C187.26 201.356 186.12 202.496 186.12 203.906C186.12 219.516 175.93 232.776 161.87 237.436C162.5 239.056 162.78 240.806 162.67 242.556C179.18 237.466 191.21 222.066 191.21 203.906C191.21 202.496 190.07 201.356 188.66 201.356H188.67Z" fill="white"/>
<path d="M236.53 145.186C216.69 124.366 190.86 111.676 162.75 108.686C162.85 110.366 162.61 112.076 162.01 113.726C188.99 116.556 213.8 128.726 232.84 148.706C235.16 151.136 236.39 154.316 236.31 157.676C236.23 161.026 234.85 164.156 232.42 166.466C231.4 167.436 231.36 169.046 232.33 170.066C232.83 170.586 233.5 170.856 234.17 170.856C234.8 170.856 235.43 170.626 235.93 170.156C239.34 166.906 241.29 162.516 241.4 157.796C241.51 153.086 239.78 148.606 236.53 145.196V145.186Z" fill="white"/>
<path d="M232.33 170.066C231.36 169.046 231.4 167.436 232.42 166.466C230.07 168.706 227 169.936 223.76 169.936C220.29 169.936 217.06 168.556 214.66 166.036C197.55 148.086 174.5 138.196 149.75 138.196C125 138.196 103.54 147.426 86.6404 164.176C81.7204 169.056 73.7504 169.016 68.8704 164.096C66.5104 161.716 65.2204 158.556 65.2304 155.196C65.2404 151.836 66.5704 148.696 68.9504 146.326C68.4504 146.816 67.8104 147.066 67.1604 147.066C66.5104 147.066 65.8504 146.816 65.3504 146.316C64.3604 145.316 64.3704 143.706 65.3704 142.716C62.0204 146.036 60.1604 150.456 60.1404 155.176C60.1204 159.896 61.9404 164.336 65.2504 167.686C72.1004 174.596 83.3004 174.656 90.2204 167.796C106.17 151.996 127.31 143.286 149.75 143.286C172.19 143.286 194.83 152.616 210.97 169.546C214.34 173.076 218.88 175.016 223.75 175.016C228.3 175.016 232.63 173.286 235.93 170.146C235.44 170.616 234.8 170.846 234.17 170.846C233.5 170.846 232.83 170.586 232.33 170.056V170.066Z" fill="white"/>
<path d="M137.26 108.636C110.16 111.426 84.9904 123.276 65.3704 142.716C64.3704 143.706 64.3604 145.316 65.3504 146.316C65.8504 146.816 66.5004 147.066 67.1604 147.066C67.8204 147.066 68.4604 146.816 68.9504 146.326C87.7804 127.666 111.95 116.306 137.97 113.666C137.4 112.056 137.15 110.346 137.25 108.626L137.26 108.636Z" fill="white"/>
<path d="M271.82 103.036C256.65 85.1462 237.64 71.1262 216.31 61.6262C216.06 62.4062 215.72 63.1662 215.3 63.8962C214.84 64.6862 214.29 65.3962 213.69 66.0362C234.56 75.2362 253.14 88.8762 267.94 106.326C272.42 111.606 271.77 119.556 266.49 124.036C264.22 125.956 261.34 127.016 258.37 127.016C254.67 127.016 251.18 125.396 248.78 122.576C224.52 93.9762 187.94 77.5762 148.41 77.5762C127.93 77.5762 108.13 82.0862 90.4004 90.4162C91.3004 91.6162 91.9704 92.9862 92.3704 94.4762C92.4204 94.6662 92.4504 94.8662 92.5004 95.0562C109.57 87.0262 128.66 82.6762 148.41 82.6762C186.44 82.6762 221.6 98.4262 244.9 125.876C248.26 129.836 253.17 132.106 258.37 132.106C262.54 132.106 266.6 130.616 269.79 127.916C277.21 121.616 278.13 110.456 271.83 103.036H271.82Z" fill="white"/>
<path d="M69.9604 102.416C63.0604 107.376 56.6704 113.006 50.9204 119.296C46.2504 124.406 38.2904 124.766 33.1704 120.096C28.0604 115.426 27.7004 107.456 32.3704 102.346C61.3404 70.6462 103.63 52.4662 148.41 52.4662C163.79 52.4662 178.8 54.5862 193.06 58.6262C192.96 56.9362 193.23 55.2062 193.88 53.5662C179.34 49.5062 164.06 47.3762 148.41 47.3762C102.2 47.3662 58.5404 66.1562 28.6104 98.9062C22.0504 106.086 22.5504 117.286 29.7304 123.846C36.9204 130.406 48.1104 129.906 54.6704 122.716C60.1804 116.686 66.3304 111.276 72.9504 106.516C71.6404 105.356 70.6304 103.946 69.9504 102.406L69.9604 102.416Z" fill="white"/>
</svg>
