<svg width="300" height="300" viewBox="0 0 300 300" fill="none" xmlns="http://www.w3.org/2000/svg">
<path d="M112.273 124.32L114.393 135.73L137.813 128.76L112.273 124.32Z" fill="white"/>
<path d="M136.793 107.46L127.963 112.22L148.563 125.73L136.793 107.46Z" fill="white"/>
<path d="M174.753 117.71L168.893 110.63L153.723 122.52" fill="white"/>
<path d="M135.553 105.34C130.103 105.34 125.663 100.9 125.663 95.45C125.663 90 130.103 85.56 135.553 85.56C141.003 85.56 145.443 89.99 145.443 95.45C145.443 100.91 141.003 105.34 135.553 105.34ZM135.553 90.71C132.933 90.71 130.803 92.84 130.803 95.45C130.803 98.06 132.933 100.19 135.553 100.19C138.173 100.19 140.293 98.06 140.293 95.45C140.293 92.84 138.163 90.71 135.553 90.71Z" fill="white"/>
<path d="M111.203 186.14C105.753 186.14 101.313 181.7 101.313 176.25C101.313 170.8 105.753 166.36 111.203 166.36C116.653 166.36 121.093 170.8 121.093 176.25C121.093 181.7 116.653 186.14 111.203 186.14ZM111.203 171.51C108.583 171.51 106.463 173.64 106.463 176.25C106.463 178.86 108.593 181 111.203 181C113.813 181 115.953 178.87 115.953 176.25C115.953 173.63 113.823 171.51 111.203 171.51Z" fill="white"/>
<path d="M216.033 126.48C210.583 126.48 206.143 122.04 206.143 116.59C206.143 111.14 210.583 106.7 216.033 106.7C221.483 106.7 225.923 111.14 225.923 116.59C225.923 122.04 221.483 126.48 216.033 126.48ZM216.033 111.85C213.413 111.85 211.283 113.98 211.283 116.59C211.283 119.2 213.413 121.34 216.033 121.34C218.653 121.34 220.783 119.21 220.783 116.59C220.783 113.97 218.653 111.85 216.033 111.85Z" fill="white"/>
<path d="M160.533 250.81C155.083 250.81 150.643 246.37 150.643 240.92C150.643 235.47 155.083 231.03 160.533 231.03C165.983 231.03 170.423 235.47 170.423 240.92C170.423 246.37 165.983 250.81 160.533 250.81ZM160.533 236.18C157.913 236.18 155.783 238.31 155.783 240.92C155.783 243.53 157.913 245.66 160.533 245.66C163.153 245.66 165.273 243.53 165.273 240.92C165.273 238.31 163.143 236.18 160.533 236.18Z" fill="white"/>
<path d="M175.793 49.77C170.343 49.77 165.903 45.33 165.903 39.88C165.903 34.43 170.343 30 175.793 30C181.243 30 185.683 34.43 185.683 39.89C185.683 45.35 181.243 49.78 175.793 49.78V49.77ZM175.793 35.14C173.173 35.14 171.043 37.27 171.043 39.88C171.043 42.49 173.173 44.62 175.793 44.62C178.413 44.62 180.533 42.49 180.533 39.88C180.533 37.27 178.403 35.14 175.793 35.14Z" fill="white"/>
<path d="M168.913 46.97L141.393 87.49C142.343 88.19 143.163 89.04 143.813 90.03L171.743 48.9C170.683 48.42 169.733 47.77 168.913 46.97Z" fill="white"/>
<path d="M85.3635 263.65C79.9135 263.65 75.4735 259.21 75.4735 253.76C75.4735 248.31 79.9135 243.87 85.3635 243.87C90.8135 243.87 95.2535 248.31 95.2535 253.76C95.2535 259.21 90.8135 263.65 85.3635 263.65ZM85.3635 249.02C82.7435 249.02 80.6135 251.15 80.6135 253.77C80.6135 256.39 82.7435 258.52 85.3635 258.52C87.9835 258.52 90.1035 256.39 90.1035 253.77C90.1035 251.15 87.9735 249.02 85.3635 249.02Z" fill="white"/>
<path d="M94.8435 250.99L151.983 245.86C151.393 244.85 150.983 243.72 150.793 242.52L93.1535 247.7C93.9135 248.67 94.4935 249.78 94.8435 250.99Z" fill="white"/>
<path d="M90.8735 245.56L109.413 185.97C108.253 185.76 107.173 185.34 106.193 184.76L87.7135 244.16C88.8535 244.44 89.9235 244.91 90.8735 245.55V245.56Z" fill="white"/>
<path d="M138.133 85.92V80.13C138.133 62.52 150.283 47.7 166.633 43.6C166.173 42.46 165.903 41.21 165.903 39.9C165.903 39.41 165.953 38.94 166.023 38.47C147.113 42.9 132.983 59.9 132.983 80.14V85.93C133.803 85.71 134.663 85.58 135.553 85.58C136.443 85.58 137.303 85.71 138.123 85.93L138.133 85.92Z" fill="white"/>
<path d="M185.563 38.45C185.633 38.92 185.683 39.39 185.683 39.88C185.683 41.19 185.423 42.44 184.953 43.58C201.313 47.68 213.453 62.5 213.453 80.11V107.05C214.273 106.83 215.133 106.7 216.023 106.7C216.913 106.7 217.773 106.83 218.593 107.05V80.11C218.593 59.87 204.463 42.87 185.553 38.44L185.563 38.45Z" fill="white"/>
<path d="M143.413 254.19C136.303 261.3 126.843 265.22 116.783 265.22C108.593 265.22 100.833 262.59 94.3835 257.79C93.6635 259.4 92.5235 260.78 91.0935 261.8C98.4635 267.35 107.393 270.36 116.783 270.36C128.213 270.36 138.963 265.91 147.053 257.82L155.483 249.39C153.993 248.5 152.753 247.23 151.903 245.7L143.413 254.19Z" fill="white"/>
<path d="M106.263 184.81C104.753 183.94 103.503 182.68 102.633 181.17L86.5135 197.29C73.1735 210.62 70.5035 230.64 78.4835 246.67C79.7235 245.47 81.2735 244.59 83.0135 244.17C76.1135 230.1 78.4635 212.61 90.1435 200.93L106.263 184.81Z" fill="white"/>
<path d="M213.464 126.13V151.36C213.464 157.55 211.983 163.49 209.153 168.85C207.533 160.58 203.493 152.97 197.433 146.9C196.063 145.53 194.573 144.24 193.003 143.04V80.12C193.003 70.64 185.293 62.92 175.803 62.92C166.313 62.92 158.603 70.64 158.603 80.12V101.3C158.603 102.72 159.753 103.87 161.173 103.87C162.593 103.87 163.743 102.72 163.743 101.3V80.12C163.743 73.47 169.153 68.06 175.803 68.06C182.453 68.06 187.863 73.47 187.863 80.12V139.73C181.563 136.23 174.503 134.37 167.173 134.37C166.033 134.37 164.893 134.42 163.753 134.51V132.29C163.753 130.87 162.603 129.72 161.183 129.72C159.763 129.72 158.613 130.87 158.613 132.29V151.36C158.613 156.46 160.873 161.27 164.803 164.56C167.833 167.09 171.663 168.51 175.603 168.56C175.633 168.59 175.673 168.63 175.703 168.66C177.983 170.94 179.233 173.96 179.233 177.18C179.233 180.4 177.983 183.43 175.703 185.7L172.523 188.88C162.893 188.05 154.083 183.6 147.603 176.28C141.623 169.52 138.263 160.83 138.153 151.83C138.153 151.83 138.153 151.83 138.153 151.82V133.33C138.143 131.91 136.993 130.76 135.573 130.76C134.153 130.76 133.003 131.91 133.003 133.33V150.82L116.123 167.69C117.633 168.56 118.893 169.81 119.763 171.32L133.463 157.62C134.553 164.98 137.553 171.96 142.193 177.84L104.633 215.4C101.393 218.64 99.6035 222.96 99.6035 227.56C99.6035 232.16 101.393 236.48 104.633 239.72C107.883 242.97 112.203 244.76 116.793 244.76C121.383 244.76 125.703 242.97 128.953 239.72L179.333 189.34C182.583 186.09 184.373 181.77 184.373 177.18C184.373 172.59 182.583 168.27 179.333 165.02C178.963 164.65 178.583 164.31 178.193 163.98C175.173 161.45 171.343 160.04 167.403 159.98C165.073 157.71 163.753 154.62 163.753 151.36V139.66C172.733 138.86 181.653 141.25 188.943 146.44C190.693 147.69 192.323 149.06 193.803 150.54C200.683 157.42 204.593 166.57 204.813 176.31L204.833 177.18C204.833 187.24 200.913 196.7 193.803 203.81L165.343 232.27C166.863 233.12 168.133 234.36 169.033 235.85L197.443 207.44C205.533 199.36 209.983 188.61 209.983 177.17C209.983 177.13 209.983 177.09 209.983 177.05C215.623 169.58 218.623 160.73 218.623 151.35V126.12C217.803 126.34 216.943 126.47 216.053 126.47C215.163 126.47 214.303 126.34 213.483 126.12L213.464 126.13ZM125.303 236.08C123.023 238.36 120.003 239.61 116.783 239.61C113.563 239.61 110.533 238.36 108.253 236.08C105.983 233.81 104.733 230.78 104.733 227.55C104.733 224.32 105.983 221.3 108.253 219.03L145.613 181.67C151.763 187.82 159.493 191.87 167.953 193.43L125.303 236.08Z" fill="white"/>
<path d="M203.873 168.85C203.373 166.64 202.693 164.48 201.813 162.41L164.063 149.31C163.953 149.27 163.843 149.28 163.733 149.27V151.36C163.733 151.87 163.773 152.37 163.843 152.87L201.573 165.96L164.153 231.73C164.653 231.93 165.123 232.17 165.583 232.45C165.493 232.4 165.413 232.33 165.323 232.28L171.043 226.57L203.873 168.86V168.85Z" fill="white"/>
<path d="M175.683 168.66C175.683 168.66 175.613 168.59 175.583 168.56C175.083 168.56 174.593 168.53 174.093 168.48L162.103 184.22L138.133 139.45V146.72L158.543 184.82C160.353 185.76 162.233 186.52 164.173 187.15L177.033 170.27C176.633 169.7 176.183 169.15 175.683 168.65V168.66Z" fill="white"/>
<path d="M209.243 109.43L192.993 95.03V99.61L207.193 112.2C207.713 111.16 208.403 110.23 209.243 109.44V109.43Z" fill="white"/>
<path d="M208.743 123.26L195.663 145.27C196.263 145.81 196.863 146.35 197.423 146.91C197.693 147.18 197.933 147.46 198.193 147.73L211.483 125.36C210.453 124.82 209.533 124.11 208.753 123.25L208.743 123.26Z" fill="white"/>
</svg>
