<svg width="300" height="303" viewBox="0 0 300 303" fill="none" xmlns="http://www.w3.org/2000/svg">
<path d="M148.524 0C140.721 0 133.26 2.51388 126.271 7.14947C128.262 8.31591 129.951 9.9248 131.138 11.9761C131.168 12.0264 131.188 12.0867 131.218 12.137C136.729 8.7483 142.531 6.89809 148.514 6.89809C184.312 6.89809 213.432 71.5752 213.432 151.064C213.432 230.553 184.312 295.23 148.514 295.23C112.716 295.23 83.5955 230.553 83.5955 151.064C83.5955 100.636 95.3203 56.2003 113.028 30.428C110.967 29.3018 109.237 27.6627 108 25.6114C88.9853 52.5099 76.7075 98.2122 76.7075 151.064C76.7075 235.772 108.252 302.118 148.514 302.118C188.776 302.118 220.32 235.762 220.32 151.064C220.32 66.3664 188.786 0 148.524 0Z" fill="white"/>
<path d="M240.622 142.839C235.976 142.839 231.451 140.436 228.958 136.122C227.158 133.015 226.685 129.395 227.62 125.925C228.555 122.456 230.778 119.56 233.885 117.77C240.31 114.07 248.536 116.272 252.246 122.688C254.046 125.795 254.519 129.415 253.594 132.884C252.669 136.353 250.436 139.249 247.329 141.039C245.217 142.256 242.915 142.839 240.632 142.839H240.622ZM240.592 122.858C239.486 122.858 238.36 123.14 237.334 123.733C234.207 125.533 233.131 129.545 234.941 132.673C236.741 135.79 240.753 136.866 243.88 135.066C245.398 134.191 246.474 132.783 246.927 131.094C247.379 129.405 247.148 127.645 246.273 126.127C245.057 124.025 242.854 122.858 240.592 122.858Z" fill="white"/>
<path d="M252.116 136.222C250.949 138.193 249.351 139.872 247.319 141.039C247.189 141.109 247.058 141.159 246.927 141.23C283.026 175.137 301.257 210.04 289.462 230.503C271.895 260.991 193.19 249.96 117.593 206.41C42.0057 162.849 -7.02497 100.294 10.532 69.8055C28.099 39.3172 106.803 50.3481 182.401 93.8986C199.033 103.481 214.377 113.979 228.013 124.86C228.837 122.577 230.205 120.586 232.065 119.057C218.309 108.218 202.814 97.6995 185.85 87.9256C104.29 40.9462 24.66 31.4739 4.55899 66.3665C-15.542 101.259 32.5938 165.393 114.154 212.383C162.602 240.297 210.365 254.968 245.379 254.968C269.301 254.968 287.28 248.11 295.435 233.952C309.171 210.1 291.021 172.593 252.116 136.232V136.222Z" fill="white"/>
<path d="M119.524 32.137C118.357 32.137 117.181 31.9862 116.024 31.6744C112.555 30.7393 109.659 28.517 107.869 25.4098C104.169 18.9944 106.371 10.759 112.786 7.04847C115.894 5.24854 119.514 4.77593 122.983 5.71109C126.452 6.6362 129.348 8.86852 131.138 11.9757C134.838 18.3911 132.636 26.6266 126.221 30.3371C124.149 31.5337 121.856 32.147 119.524 32.147V32.137ZM119.493 12.1466C118.387 12.1466 117.261 12.4282 116.235 13.0215C113.108 14.8314 112.032 18.8335 113.842 21.9608C114.717 23.4792 116.125 24.5551 117.814 25.0076C119.493 25.4702 121.263 25.2288 122.782 24.354C125.909 22.544 126.985 18.5419 125.175 15.4147C123.958 13.3131 121.756 12.1466 119.493 12.1466Z" fill="white"/>
<path d="M293.072 62.3741C272.016 28.0546 192.678 39.719 112.445 88.9408C74.6362 112.139 42.8105 140.113 22.8402 167.716C2.25658 196.163 -3.39462 221.1 6.9324 237.923C13.3478 248.381 25.344 254.756 41.825 256.777C41.3826 254.716 41.4228 252.564 41.9759 250.473C42.0362 250.231 42.1569 250.02 42.2373 249.789C28.1998 247.949 17.9633 242.72 12.8048 234.323C4.15707 220.226 9.8485 197.43 28.421 171.758C47.8785 144.87 79.0003 117.549 116.045 94.8132C163.366 65.7829 212.316 49.8751 246.394 49.8751C265.872 49.8751 280.493 55.0738 287.19 65.974C305.591 95.9696 258.31 159.852 183.94 205.474C146.885 228.21 108.423 243.564 75.6518 248.733C72.9368 249.155 70.3123 249.487 67.728 249.759C68.4621 251.971 68.5828 254.334 68.1001 256.657C70.9056 256.365 73.7614 256.013 76.7177 255.551C110.373 250.251 149.731 234.555 187.54 211.357C267.762 162.135 314.118 96.6936 293.062 62.3741H293.072Z" fill="white"/>
<path d="M66.5213 247.316C64.7214 244.209 61.8254 241.986 58.3663 241.051C54.8971 240.126 51.2772 240.599 48.17 242.399C45.0628 244.188 42.8406 247.095 41.9054 250.554C40.9803 254.023 41.4529 257.643 43.2529 260.75C45.7366 265.054 50.2616 267.467 54.9173 267.467C57.1999 267.467 59.5026 266.884 61.6142 265.667C64.7214 263.877 66.9437 260.971 67.8788 257.512C68.8039 254.043 68.3313 250.423 66.5414 247.316H66.5213Z" fill="white"/>
<path d="M148.523 129.766C136.778 129.766 127.226 139.319 127.226 151.064C127.226 162.809 136.778 172.361 148.523 172.361C160.268 172.361 169.821 162.809 169.821 151.064C169.821 139.319 160.268 129.766 148.523 129.766Z" fill="white"/>
<path d="M112.877 130.902C112.223 130.902 111.56 130.711 110.976 130.329C109.388 129.273 108.955 127.132 110.011 125.553C118.629 112.581 133.028 104.849 148.524 104.849C164.019 104.849 178.419 112.591 187.026 125.553C188.082 127.142 187.65 129.273 186.061 130.329C184.472 131.385 182.33 130.953 181.285 129.364C173.954 118.323 161.697 111.737 148.524 111.737C135.351 111.737 123.093 118.323 115.753 129.364C115.089 130.359 113.993 130.902 112.877 130.902Z" fill="white"/>
<path d="M133.641 194.604C133.239 194.604 132.837 194.534 132.434 194.383C117.532 188.832 106.33 175.72 103.203 160.164C102.831 158.294 104.038 156.484 105.908 156.112C107.768 155.74 109.588 156.946 109.96 158.817C112.615 172.05 122.148 183.211 134.838 187.937C136.618 188.601 137.533 190.582 136.869 192.372C136.356 193.76 135.039 194.614 133.641 194.614V194.604Z" fill="white"/>
<path d="M165.668 193.659C164.341 193.659 163.074 192.895 162.511 191.598C161.747 189.858 162.531 187.827 164.281 187.053C176.046 181.874 184.563 171.316 187.076 158.807C187.448 156.936 189.258 155.74 191.129 156.102C192.999 156.474 194.206 158.294 193.834 160.154C190.887 174.865 180.872 187.274 167.056 193.357C166.603 193.558 166.131 193.649 165.668 193.649V193.659Z" fill="white"/>
<path d="M148.524 198.928C151.967 198.928 154.758 196.137 154.758 192.694C154.758 189.251 151.967 186.459 148.524 186.459C145.081 186.459 142.29 189.251 142.29 192.694C142.29 196.137 145.081 198.928 148.524 198.928Z" fill="white"/>
<path d="M106.633 149.073C110.076 149.073 112.867 146.282 112.867 142.838C112.867 139.395 110.076 136.604 106.633 136.604C103.189 136.604 100.398 139.395 100.398 142.838C100.398 146.282 103.189 149.073 106.633 149.073Z" fill="white"/>
<path d="M190.415 149.073C193.858 149.073 196.65 146.282 196.65 142.838C196.65 139.395 193.858 136.604 190.415 136.604C186.972 136.604 184.181 139.395 184.181 142.838C184.181 146.282 186.972 149.073 190.415 149.073Z" fill="white"/>
</svg>
