<svg width="300" height="300" viewBox="0 0 300 300" fill="none" xmlns="http://www.w3.org/2000/svg">
<g clip-path="url(#clip0_2102_8944)">
<path d="M119.534 99.9508C122.419 104.449 123.026 110.116 121.147 115.102L120.333 117.263C119.904 118.417 120.481 119.689 121.635 120.118C121.887 120.222 122.153 120.266 122.419 120.266C123.322 120.266 124.165 119.719 124.491 118.831L125.305 116.671C127.672 110.368 126.903 103.221 123.263 97.5538L120.851 93.8103C118.054 89.4601 117.389 84.1482 119.031 79.2506L120.318 75.3887C120.703 74.2198 120.082 72.9621 118.913 72.5774C117.744 72.1927 116.501 72.8141 116.101 73.983L114.814 77.8449C112.757 84.0298 113.586 90.7326 117.122 96.2221L119.534 99.9656V99.9508Z" fill="#00EB5A"/>
<path d="M165.714 99.9508C168.599 104.449 169.206 110.116 167.327 115.102L166.513 117.263C166.084 118.417 166.661 119.689 167.815 120.118C168.066 120.222 168.333 120.266 168.599 120.266C169.502 120.266 170.345 119.719 170.671 118.831L171.484 116.671C173.852 110.368 173.082 103.221 169.442 97.5538L167.031 93.8103C164.234 89.4601 163.568 84.1482 165.211 79.2506L166.498 75.3887C166.883 74.2198 166.261 72.9621 165.092 72.5774C163.923 72.1927 162.666 72.8141 162.281 73.983L160.994 77.8449C158.937 84.0298 159.766 90.7326 163.302 96.2221L165.714 99.9656V99.9508Z" fill="#00EB5A"/>
<path d="M140.53 78.9548C143.415 83.4382 144.022 89.1052 142.143 94.1064L141.329 96.2667C140.9 97.4208 141.477 98.6933 142.631 99.1224C142.883 99.226 143.149 99.2704 143.415 99.2704C144.318 99.2704 145.161 98.7229 145.487 97.8351L146.301 95.6748C148.668 89.3716 147.899 82.2249 144.259 76.5578L141.847 72.8143C139.051 68.4641 138.385 63.1522 140.027 58.2546L141.314 54.3927C141.699 53.2238 141.078 51.9661 139.909 51.5814C138.74 51.1819 137.482 51.8181 137.097 52.987L135.81 56.8489C133.753 63.0338 134.582 69.7366 138.118 75.2261L140.53 78.9696V78.9548Z" fill="#00EB5A"/>
<path d="M140.915 163.147C130.306 163.147 121.68 171.773 121.68 182.382C121.68 192.991 130.306 201.618 140.915 201.618C151.524 201.618 160.151 192.991 160.151 182.382C160.151 171.773 151.524 163.147 140.915 163.147Z" fill="white"/>
<path d="M173.097 163.28C172.372 163.28 171.677 162.925 171.248 162.289C164.456 152.064 153.122 145.968 140.915 145.968C128.708 145.968 117.374 152.064 110.582 162.289C109.902 163.309 108.526 163.591 107.505 162.91C106.484 162.229 106.203 160.853 106.883 159.832C114.503 148.38 127.214 141.529 140.915 141.529C154.617 141.529 167.327 148.365 174.947 159.832C175.628 160.853 175.346 162.229 174.326 162.91C173.941 163.161 173.527 163.28 173.097 163.28Z" fill="white"/>
<path d="M127.48 220.808C127.228 220.808 126.962 220.764 126.71 220.675C113.542 215.763 103.643 204.177 100.891 190.431C100.654 189.233 101.423 188.064 102.637 187.812C103.835 187.576 105.004 188.345 105.256 189.558C107.712 201.81 116.531 212.138 128.279 216.517C129.433 216.947 130.01 218.219 129.581 219.373C129.241 220.261 128.397 220.823 127.495 220.823L127.48 220.808Z" fill="white"/>
<path d="M156.407 219.95C155.549 219.95 154.735 219.462 154.38 218.619C153.891 217.494 154.394 216.192 155.519 215.689C166.409 210.895 174.296 201.129 176.619 189.544C176.856 188.345 178.024 187.576 179.238 187.798C180.436 188.034 181.22 189.203 180.984 190.417C178.38 203.423 169.531 214.387 157.324 219.758C157.028 219.891 156.732 219.95 156.436 219.95H156.407Z" fill="white"/>
<path d="M140.915 225.617C144.029 225.617 146.552 223.093 146.552 219.98C146.552 216.866 144.029 214.342 140.915 214.342C137.802 214.342 135.278 216.866 135.278 219.98C135.278 223.093 137.802 225.617 140.915 225.617Z" fill="white"/>
<path d="M103.095 180.592C106.209 180.592 108.733 178.068 108.733 174.954C108.733 171.841 106.209 169.317 103.095 169.317C99.9817 169.317 97.4578 171.841 97.4578 174.954C97.4578 178.068 99.9817 180.592 103.095 180.592Z" fill="white"/>
<path d="M178.75 180.592C181.863 180.592 184.387 178.068 184.387 174.954C184.387 171.841 181.863 169.317 178.75 169.317C175.636 169.317 173.112 171.841 173.112 174.954C173.112 178.068 175.636 180.592 178.75 180.592Z" fill="white"/>
<path d="M122.419 120.266C122.153 120.266 121.902 120.222 121.635 120.118C120.481 119.689 119.904 118.402 120.333 117.263L121.147 115.102C123.026 110.101 122.419 104.434 119.534 99.9508L117.122 96.2073C113.601 90.7178 112.757 84.0298 114.814 77.8301L116.101 73.9682C116.486 72.8141 117.744 72.1778 118.913 72.5625C120.082 72.9472 120.703 74.2049 120.318 75.3739L119.031 79.2357C117.403 84.1482 118.054 89.4453 120.851 93.7955L123.263 97.539C126.903 103.206 127.672 110.353 125.305 116.656L124.491 118.816C124.151 119.704 123.307 120.252 122.419 120.252V120.266Z" fill="white"/>
<path d="M168.599 120.266C168.333 120.266 168.081 120.222 167.815 120.118C166.661 119.689 166.084 118.402 166.513 117.263L167.327 115.102C169.206 110.101 168.599 104.434 165.714 99.9508L163.302 96.2073C159.78 90.7178 158.937 84.0298 160.994 77.8301L162.281 73.9682C162.666 72.8141 163.923 72.1778 165.092 72.5625C166.261 72.9472 166.883 74.2049 166.498 75.3739L165.211 79.2357C163.583 84.1482 164.234 89.4453 167.031 93.7955L169.442 97.539C173.082 103.206 173.852 110.353 171.484 116.656L170.671 118.816C170.33 119.704 169.487 120.252 168.599 120.252V120.266Z" fill="white"/>
<path d="M143.415 99.2851C143.149 99.2851 142.898 99.2407 142.631 99.1371C141.477 98.708 140.9 97.4207 141.329 96.2814L142.143 94.1211C144.022 89.1199 143.415 83.4529 140.53 78.9695L138.118 75.226C134.597 69.7365 133.753 63.0485 135.81 56.8488L137.097 52.9869C137.482 51.818 138.74 51.1966 139.909 51.5813C141.078 51.966 141.699 53.2237 141.314 54.3926L140.027 58.2545C138.399 63.1669 139.065 68.4641 141.847 72.8142L144.259 76.5577C147.899 82.2248 148.668 89.3715 146.301 95.6748L145.487 97.835C145.147 98.7228 144.303 99.2703 143.415 99.2703V99.2851Z" fill="white"/>
<path d="M230.419 137.978C229.664 137.978 228.91 137.874 228.17 137.682C225.935 137.09 224.071 135.655 222.917 133.642C221.763 131.645 221.452 129.307 222.059 127.073C222.651 124.838 224.086 122.974 226.098 121.82C228.096 120.666 230.434 120.355 232.668 120.962C234.902 121.554 236.766 122.989 237.921 125.001C239.075 126.999 239.385 129.337 238.779 131.571C238.187 133.805 236.752 135.669 234.739 136.824C233.408 137.593 231.928 137.993 230.434 137.993L230.419 137.978ZM230.404 125.105C229.679 125.105 228.954 125.297 228.303 125.667C227.326 126.229 226.631 127.147 226.335 128.227C226.039 129.322 226.187 130.446 226.749 131.423C227.311 132.399 228.229 133.095 229.309 133.391C230.389 133.687 231.528 133.539 232.505 132.977C233.482 132.414 234.177 131.497 234.473 130.417C234.769 129.322 234.621 128.197 234.059 127.221C233.496 126.244 232.579 125.549 231.499 125.253C231.129 125.149 230.774 125.105 230.404 125.105Z" fill="white"/>
<path d="M222.325 126.377H59.6973C59.9488 127.176 60.082 128.035 60.082 128.908C60.082 129.559 60.008 130.195 59.86 130.816H221.896C221.689 129.588 221.719 128.331 222.059 127.088C222.133 126.836 222.236 126.614 222.325 126.377Z" fill="white"/>
<path d="M51.426 137.564C56.2065 137.564 60.0819 133.688 60.0819 128.908C60.0819 124.127 56.2065 120.252 51.426 120.252C46.6454 120.252 42.77 124.127 42.77 128.908C42.77 133.688 46.6454 137.564 51.426 137.564Z" fill="white"/>
<path d="M88.3875 233.578C87.1742 232.823 85.9905 232.024 84.8808 231.107C62.76 213.025 50.0795 185.874 50.0795 156.636C50.0795 150.2 50.7157 143.808 51.9438 137.534C51.7663 137.534 51.5887 137.563 51.4112 137.563C50.0351 137.563 48.7478 137.238 47.5937 136.661C46.2916 143.216 45.6257 149.904 45.6257 156.636C45.6257 187.206 58.8982 215.6 82.0546 234.54C83.3123 235.575 84.644 236.478 86.0201 237.336C86.464 235.886 87.2778 234.599 88.3727 233.578H88.3875Z" fill="white"/>
<path d="M94.3062 248.537C91.3173 248.537 88.4024 246.983 86.8044 244.216C85.6503 242.219 85.3395 239.881 85.9462 237.647C86.5528 235.412 87.9733 233.548 89.9856 232.394C91.9831 231.24 94.321 230.929 96.5553 231.536C98.7895 232.128 100.654 233.563 101.808 235.575C102.962 237.573 103.273 239.911 102.666 242.145C102.074 244.379 100.639 246.243 98.6416 247.398C97.2803 248.182 95.8006 248.552 94.321 248.552L94.3062 248.537ZM94.2766 235.664C93.5516 235.664 92.8265 235.856 92.1755 236.226C91.1989 236.789 90.5035 237.691 90.2076 238.786C89.9116 239.881 90.0596 241.006 90.6219 241.982C91.776 243.994 94.3654 244.69 96.3777 243.521C97.3543 242.959 98.0497 242.056 98.3456 240.961C98.6416 239.866 98.4936 238.742 97.9313 237.765C97.3691 236.789 96.4517 236.093 95.3715 235.797C95.0016 235.694 94.6465 235.649 94.2766 235.649V235.664Z" fill="white"/>
<path d="M257.23 176.73C257.23 175.502 256.239 174.51 255.01 174.51H253.856C251.785 174.037 250.216 172.187 250.216 169.983V153.203C250.216 149.016 246.813 145.628 242.641 145.628H235.568C235.257 142.742 234.843 139.887 234.295 137.046C233.082 137.667 231.765 137.993 230.419 137.993C230.271 137.993 230.108 137.978 229.96 137.963C231.144 144.104 231.75 150.348 231.75 156.651C231.75 185.889 219.07 213.026 196.949 231.122C195.839 232.024 194.656 232.838 193.442 233.578C194.523 234.599 195.366 235.871 195.81 237.321C197.171 236.478 198.503 235.575 199.76 234.54C208.979 226.993 216.614 217.923 222.488 207.847C222.71 207.921 222.947 207.98 223.198 207.98H240.036C245.052 207.98 249.121 203.896 249.121 198.895V182.116C249.121 180.385 250.527 178.979 252.258 178.979H253.56C254.034 179.053 254.507 179.097 254.996 179.097C255.928 179.097 256.682 178.52 256.993 177.706C257.126 177.41 257.215 177.1 257.215 176.759L257.23 176.73ZM244.697 182.101V198.88C244.697 201.44 242.611 203.526 240.051 203.526H224.87C232.224 189.322 236.204 173.312 236.204 156.636C236.204 154.432 236.101 152.242 235.967 150.067H242.67C244.401 150.067 245.807 151.472 245.807 153.203V169.983C245.807 172.232 246.621 174.274 247.997 175.857C246.014 177.233 244.712 179.512 244.712 182.086L244.697 182.101Z" fill="white"/>
<path d="M179.031 238.402C178.039 238.49 177.033 238.549 176.027 238.549H105.788C104.782 238.549 103.791 238.505 102.799 238.402C103.006 239.63 102.962 240.887 102.636 242.115C102.577 242.352 102.459 242.574 102.37 242.811C103.509 242.914 104.649 242.974 105.788 242.974H176.027C177.166 242.974 178.291 242.914 179.415 242.811C179.075 241.893 178.883 240.902 178.883 239.866C178.883 239.363 178.942 238.875 179.016 238.387L179.031 238.402Z" fill="white"/>
<path d="M187.553 248.537C192.334 248.537 196.209 244.662 196.209 239.881C196.209 235.1 192.334 231.225 187.553 231.225C182.773 231.225 178.897 235.1 178.897 239.881C178.897 244.662 182.773 248.537 187.553 248.537Z" fill="white"/>
</g>
<defs>
<clipPath id="clip0_2102_8944">
<rect width="214.46" height="197.074" fill="white" transform="translate(42.77 51.4629)"/>
</clipPath>
</defs>
</svg>
