<svg width="300" height="300" viewBox="0 0 300 300" fill="none" xmlns="http://www.w3.org/2000/svg">
<path d="M224.686 98.721C223.198 98.721 221.681 98.3449 220.303 97.5434C216.099 95.119 214.661 89.7358 217.081 85.5499C219.5 81.3542 224.894 79.9193 229.098 82.3338C233.302 84.7583 234.74 90.1316 232.32 94.3273C230.694 97.1377 227.73 98.721 224.686 98.721ZM224.706 85.6687C223.218 85.6687 221.781 86.4306 220.987 87.8061C219.807 89.8446 220.511 92.4669 222.554 93.6445C224.596 94.8221 227.224 94.1195 228.404 92.081C229.584 90.0425 228.88 87.4202 226.837 86.2426C226.163 85.8567 225.429 85.6687 224.706 85.6687Z" fill="white"/>
<path d="M115.63 55.8136C103.523 55.8136 90.7823 41.4848 90.1279 40.7426C89.4437 39.9609 89.3842 38.813 89.9791 37.9619C90.574 37.1109 91.6845 36.7844 92.6463 37.1604C92.795 37.2198 107.916 42.9196 112.982 33.2318C117.117 25.3253 124.87 20.0113 135.41 17.8739C143.193 16.2906 149.728 16.9833 149.995 17.0129C151.235 17.1515 152.127 18.2598 151.988 19.4967C151.849 20.7337 150.759 21.6243 149.499 21.4956C149.262 21.466 125.455 19.1009 116.978 35.3198C113.24 42.4743 105.724 43.8894 99.22 43.266C105.169 48.3424 114.539 54.3985 121.182 49.4903C134.419 39.6838 150.194 48.382 150.858 48.758C151.949 49.3716 152.325 50.7471 151.711 51.8257C151.096 52.9142 149.728 53.2902 148.637 52.6767C148.498 52.5975 134.726 45.067 123.869 53.1121C121.271 55.0418 118.465 55.8235 115.63 55.8235V55.8136Z" fill="white"/>
<path d="M105.873 232.43C105.457 232.43 105.04 232.312 104.673 232.084L95.5613 226.364C94.9069 225.949 94.5103 225.236 94.5103 224.455V219.378C94.5103 218.478 95.0458 217.666 95.8786 217.31L104.991 213.411C105.695 213.114 106.488 213.183 107.122 213.599C107.757 214.015 108.134 214.727 108.134 215.479V230.184C108.134 231.005 107.688 231.757 106.964 232.153C106.627 232.341 106.25 232.43 105.873 232.43ZM99.0118 223.218L103.612 226.107V218.903L99.0118 220.872V223.227V223.218Z" fill="white"/>
<path d="M122.749 243.029C122.332 243.029 121.916 242.91 121.549 242.682L112.437 236.963C111.782 236.547 111.386 235.834 111.386 235.053V212.144C111.386 211.244 111.921 210.432 112.754 210.076L121.866 206.177C122.56 205.88 123.363 205.95 123.998 206.365C124.632 206.781 125.009 207.493 125.009 208.246V240.782C125.009 241.604 124.563 242.356 123.839 242.752C123.502 242.94 123.125 243.029 122.749 243.029ZM115.897 233.816L120.498 236.705V211.669L115.897 213.639V233.826V233.816Z" fill="white"/>
<path d="M139.634 253.389H139.237C138.811 253.389 138.395 253.271 138.038 253.043L129.322 247.571C128.668 247.155 128.271 246.443 128.271 245.661V204.921C128.271 204.02 128.807 203.209 129.64 202.852L138.752 198.954C139.455 198.657 140.249 198.726 140.883 199.142C141.518 199.557 141.895 200.27 141.895 201.022V251.143C141.895 252.39 140.883 253.399 139.634 253.399V253.389ZM132.773 244.424L137.373 247.313V204.446L132.773 206.415V244.434V244.424Z" fill="white"/>
<path d="M193.632 232.43C193.255 232.43 192.878 232.341 192.541 232.153C191.827 231.757 191.371 231.005 191.371 230.184V215.479C191.371 214.727 191.758 214.015 192.382 213.599C193.017 213.183 193.82 213.114 194.514 213.411L203.626 217.31C204.459 217.666 204.994 218.478 204.994 219.378V224.455C204.994 225.226 204.598 225.949 203.943 226.364L194.831 232.084C194.464 232.312 194.048 232.43 193.632 232.43ZM195.892 226.097L200.493 223.208V220.853L195.892 218.883V226.097Z" fill="white"/>
<path d="M176.746 243.029C176.369 243.029 175.993 242.94 175.656 242.752C174.942 242.356 174.486 241.604 174.486 240.782V208.246C174.486 207.493 174.872 206.781 175.497 206.365C176.131 205.95 176.935 205.88 177.629 206.177L186.741 210.076C187.573 210.432 188.109 211.244 188.109 212.144V235.053C188.109 235.825 187.712 236.547 187.058 236.963L177.946 242.682C177.579 242.91 177.163 243.029 176.746 243.029ZM179.007 236.695L183.607 233.806V213.619L179.007 211.65V236.695Z" fill="white"/>
<path d="M160.257 253.389H159.861C158.611 253.389 157.6 252.38 157.6 251.133V201.012C157.6 200.26 157.987 199.547 158.611 199.132C159.246 198.716 160.049 198.647 160.743 198.944L169.855 202.843C170.688 203.199 171.223 204.01 171.223 204.911V245.651C171.223 246.423 170.827 247.145 170.172 247.561L161.457 253.033C161.1 253.261 160.684 253.379 160.257 253.379V253.389ZM162.121 247.303L166.722 244.414V206.395L162.121 204.426V247.303Z" fill="white"/>
<path d="M156.113 266.333C155.587 266.333 155.082 266.066 154.804 265.581C154.388 264.858 154.635 263.948 155.359 263.532C156.5 262.879 157.739 262.157 159.087 261.365C167.059 256.645 174.942 251.479 181.882 246.423C182.556 245.938 183.498 246.076 183.984 246.749C184.47 247.422 184.331 248.362 183.657 248.847C176.538 254.033 168.794 259.119 160.624 263.948C159.266 264.749 158.007 265.482 156.856 266.145C156.619 266.283 156.361 266.343 156.113 266.343V266.333Z" fill="white"/>
<path d="M143.382 266.333C143.124 266.333 142.866 266.263 142.638 266.135C141.488 265.482 140.229 264.749 138.87 263.938C130.71 259.109 122.957 254.023 115.838 248.837C115.163 248.352 115.025 247.412 115.511 246.739C115.996 246.076 116.938 245.918 117.613 246.413C124.553 251.47 132.436 256.635 140.397 261.355C141.736 262.157 142.985 262.879 144.125 263.532C144.849 263.948 145.097 264.858 144.681 265.581C144.403 266.066 143.897 266.333 143.372 266.333H143.382Z" fill="white"/>
<path d="M89.5429 147.338C89.1066 147.338 88.6703 147.209 88.2936 146.962C87.659 146.546 87.2822 145.844 87.2822 145.082V115.573C87.2822 114.673 87.8276 113.851 88.6604 113.505L129.471 96.1778C130.165 95.8809 130.968 95.9502 131.603 96.3757C132.237 96.7913 132.614 97.4939 132.614 98.2559V127.765C132.614 128.665 132.069 129.486 131.236 129.833L90.4253 147.16C90.1378 147.279 89.8403 147.338 89.5429 147.338ZM91.8035 117.067V141.678L128.103 126.26V101.65L91.8035 117.067Z" fill="white"/>
<path d="M100.876 137.819L103.88 136.542V122.678L128.093 112.862V109.626L102.423 120.026L94.1137 116.088L91.7936 117.067V118.314L100.876 122.619V137.819Z" fill="white"/>
<path d="M211.994 147.338C211.697 147.338 211.399 147.279 211.112 147.16L170.301 129.833C169.468 129.477 168.923 128.665 168.923 127.765V98.2559C168.923 97.5038 169.3 96.7913 169.935 96.3757C170.569 95.9601 171.362 95.8809 172.066 96.1778L212.877 113.505C213.71 113.861 214.255 114.673 214.255 115.573V145.082C214.255 145.834 213.878 146.546 213.244 146.962C212.867 147.209 212.441 147.338 211.994 147.338ZM173.444 126.27L209.744 141.688V117.077L173.444 101.66V126.27Z" fill="white"/>
<path d="M207.423 116.088L199.105 120.026L173.444 109.626V112.862L197.647 122.678V136.542L200.661 137.819V122.619L209.734 118.314V117.067L207.423 116.088Z" fill="white"/>
<path d="M224.686 98.721C223.992 98.721 223.298 98.6319 222.613 98.4637V160.618L174.991 140.213C174.228 139.887 173.345 140.243 173.018 141.005C172.691 141.767 173.048 142.648 173.811 142.974L182.963 146.893C182.953 146.972 182.943 147.041 182.943 147.12V167.07L152.018 153.711V61.0286L183.211 74.3877V93.6247C183.211 94.5252 183.746 95.3367 184.579 95.6929L199.452 102.066C200.146 102.372 200.949 102.293 201.584 101.878C202.218 101.462 202.595 100.75 202.595 99.9975V82.7L216.05 88.4592C216.218 87.4598 216.555 86.4801 217.091 85.5598C217.339 85.1343 217.626 84.7385 217.933 84.3624L201.227 77.2079C200.523 76.911 199.729 76.9803 199.095 77.3959C199.065 77.4157 199.055 77.4355 199.025 77.4553L187.712 82.8187V72.9033C187.712 72.0028 187.177 71.1914 186.344 70.8351L152.008 56.1303V15.7562C152.008 14.5094 150.997 13.5 149.747 13.5C148.498 13.5 147.487 14.5094 147.487 15.7562V56.1204L113.151 70.8252C112.318 71.1815 111.782 71.9929 111.782 72.8934V82.8088L100.469 77.4454C100.469 77.4454 100.43 77.4058 100.4 77.386C99.7653 76.9704 98.9622 76.9012 98.2682 77.198L81.9281 84.1942C82.9394 85.3619 83.6136 86.7671 83.9012 88.2514L96.8999 82.6901V99.9876C96.8999 100.74 97.2866 101.452 97.9112 101.868C98.5458 102.283 99.3489 102.353 100.043 102.056L114.916 95.683C115.748 95.3268 116.284 94.5153 116.284 93.6148V74.3778L147.477 61.0187V69.6774C147.477 69.6774 147.477 69.6774 147.477 69.6873V130.357L76.8813 160.618V98.5626C76.3459 98.6616 75.8204 98.7309 75.285 98.7309C74.2935 98.7309 73.3119 98.5428 72.3699 98.2064V161.41C72.3699 161.41 72.3699 161.42 72.3699 161.429V203.931C72.479 205.831 72.7665 207.741 73.2226 209.641C73.2226 209.69 73.2524 209.74 73.2623 209.799C80.2029 238.18 123.75 265.61 141.389 275.704C141.577 274.892 141.885 274.091 142.331 273.329C142.678 272.735 143.084 272.201 143.541 271.716C128.132 262.85 92.5174 240.505 80.7184 217.043L148.23 188.128V262.315C148.23 263.146 148.905 263.819 149.737 263.819C150.57 263.819 151.245 263.146 151.245 262.315V188.118L218.727 217.023C206.928 240.327 171.729 262.582 156.212 271.558C157.313 272.666 158.086 274.041 158.473 275.516C177.579 264.581 225.419 234.251 227.145 203.812V98.3647C226.351 98.5923 225.528 98.721 224.706 98.721H224.686ZM188.277 87.5191L198.064 82.8781V96.5637L187.702 92.1206V87.6874C187.891 87.6478 188.089 87.5983 188.277 87.5092V87.5191ZM101.421 82.8781L111.207 87.5191C111.396 87.6082 111.584 87.6577 111.782 87.6973V92.1305L101.421 96.5736V82.8781ZM215.683 184.486C215.881 184.565 216.079 184.605 216.278 184.605C216.863 184.605 217.418 184.268 217.656 183.704C217.983 182.942 217.636 182.062 216.873 181.725L213.492 180.261V159.965L222.613 163.874V203.664C222.574 204.456 222.485 205.247 222.366 206.049L198.5 195.827V177.064L215.673 184.486H215.683ZM185.937 167.951V148.169L210.487 158.688V178.974L185.888 168.346C185.918 168.218 185.947 168.089 185.947 167.961L185.937 167.951ZM195.535 175.778C195.515 175.887 195.496 175.996 195.496 176.105V194.53L152.008 175.897V156.967L195.535 175.768V175.778ZM147.487 175.907L130.225 183.299V164.359L136.531 161.657C137.294 161.33 137.651 160.45 137.324 159.688C136.997 158.926 136.114 158.579 135.351 158.896L111.267 169.217V149.654C111.267 149.485 111.237 149.337 111.188 149.189L147.497 133.633V175.907H147.487ZM76.8714 183.952V163.884L108.243 150.445V170.494C108.243 170.494 108.243 170.504 108.243 170.514L76.8714 183.952ZM76.8714 187.227L97.822 178.252V197.192L77.0994 206.069C76.9904 205.316 76.911 204.564 76.8714 203.812V187.227ZM100.539 177.084L127.21 165.655V183.843C127.21 184.09 127.28 184.318 127.379 184.526L100.826 195.896V177.965C100.826 177.629 100.717 177.332 100.529 177.084H100.539ZM150.332 184.456C150.332 184.456 150.322 184.456 150.313 184.456C150.243 184.427 150.174 184.407 150.104 184.387C150.075 184.387 150.055 184.367 150.025 184.367C149.956 184.358 149.886 184.348 149.817 184.348C149.787 184.348 149.757 184.348 149.737 184.348C149.678 184.348 149.628 184.348 149.569 184.367C149.529 184.367 149.49 184.367 149.45 184.377C149.41 184.377 149.371 184.397 149.331 184.407C149.271 184.427 149.212 184.437 149.162 184.456C149.162 184.456 149.152 184.456 149.143 184.456L79.4592 214.312C78.9337 213.055 78.4776 211.798 78.1009 210.541L149.747 179.855L221.364 210.531C220.987 211.788 220.521 213.045 219.996 214.302L150.342 184.466L150.332 184.456Z" fill="white"/>
<path d="M149.946 286.5C148.458 286.5 146.941 286.124 145.563 285.322C141.359 282.898 139.921 277.525 142.341 273.329C144.77 269.133 150.154 267.698 154.358 270.113C158.562 272.537 160 277.921 157.58 282.106C155.954 284.917 152.99 286.5 149.946 286.5ZM149.965 273.448C148.478 273.448 147.041 274.21 146.247 275.585C145.067 277.624 145.771 280.246 147.814 281.424C149.866 282.601 152.484 281.899 153.664 279.86C154.844 277.822 154.14 275.199 152.097 274.022C151.423 273.636 150.689 273.448 149.965 273.448Z" fill="white"/>
<path d="M75.285 98.7309C73.758 98.7309 72.2509 98.335 70.9025 97.5533C66.6985 95.1289 65.2608 89.7555 67.6801 85.5598C70.1093 81.3641 75.4932 79.9292 79.6972 82.3437C83.9012 84.7682 85.3389 90.1514 82.9196 94.3372C81.7496 96.3658 79.8459 97.8205 77.5754 98.434C76.8218 98.6319 76.0484 98.7408 75.285 98.7408V98.7309ZM73.1532 93.6544C74.1447 94.2284 75.2949 94.3768 76.4054 94.0799C77.5059 93.783 78.438 93.0805 79.0031 92.0909C80.183 90.0524 79.4791 87.4301 77.4365 86.2525C75.3841 85.0749 72.7665 85.7775 71.5866 87.816C70.4067 89.8545 71.1107 92.4768 73.1532 93.6544Z" fill="white"/>
</svg>
