<svg width="300" height="300" viewBox="0 0 300 300" fill="none" xmlns="http://www.w3.org/2000/svg">
<mask id="mask0_1319_2302" style="mask-type:luminance" maskUnits="userSpaceOnUse" x="30" y="30" width="249" height="250">
<path d="M278.958 30H30V280H278.958V30Z" fill="white"/>
</mask>
<g mask="url(#mask0_1319_2302)">
<path d="M153.771 67.9524C152.419 67.9524 151.328 66.8601 151.328 65.507V32.4454C151.328 31.0923 152.419 30 153.771 30C155.122 30 156.213 31.0923 156.213 32.4454V65.507C156.213 66.8601 155.122 67.9524 153.771 67.9524Z" fill="white"/>
<path d="M276.516 155.905H243.493C242.141 155.905 241.05 154.813 241.05 153.46C241.05 152.106 242.141 151.014 243.493 151.014H276.516C277.867 151.014 278.958 152.106 278.958 153.46C278.958 154.813 277.867 155.905 276.516 155.905Z" fill="white"/>
<path d="M65.4655 155.905H32.4425C31.091 155.905 30 154.813 30 153.46C30 152.106 31.091 151.014 32.4425 151.014H65.4655C66.817 151.014 67.908 152.106 67.908 153.46C67.908 154.813 66.817 155.905 65.4655 155.905Z" fill="white"/>
<path d="M222.227 69.0129C206.676 56.3621 187.738 48.0804 167.368 45.5372C166.016 45.3578 164.811 46.3197 164.648 47.6565C164.485 48.9933 165.43 50.216 166.765 50.379C186.159 52.8081 204.185 60.6823 219.019 72.681C219.752 71.1811 220.859 69.9095 222.227 68.9966V69.0129Z" fill="white"/>
<path d="M99.9374 242.454C83.8656 232.575 70.5457 218.326 61.72 200.964C61.1013 199.758 59.6358 199.286 58.4308 199.889C57.2258 200.509 56.7536 201.976 57.3561 203.182C66.6377 221.441 80.6903 236.422 97.6251 246.774C97.9997 245.128 98.8138 243.644 99.9211 242.454H99.9374Z" fill="white"/>
<path d="M140.451 256.883C131.967 255.758 123.744 253.59 115.961 250.492C115.667 252.155 114.918 253.671 113.86 254.91C122.099 258.22 130.811 260.535 139.816 261.725C139.93 261.725 140.028 261.741 140.142 261.741C141.347 261.741 142.389 260.844 142.552 259.622C142.731 258.285 141.786 257.046 140.451 256.883Z" fill="white"/>
<path d="M191.549 250.232C183.667 253.313 175.346 255.465 166.749 256.524C165.414 256.687 164.453 257.91 164.632 259.247C164.778 260.486 165.837 261.383 167.058 261.383C167.156 261.383 167.254 261.383 167.368 261.366C176.437 260.225 185.198 257.959 193.519 254.699C192.493 253.427 191.809 251.894 191.565 250.215L191.549 250.232Z" fill="white"/>
<path d="M249.29 199.987C248.085 199.368 246.619 199.84 246.001 201.03C237.061 218.36 223.643 232.543 207.506 242.325C208.646 243.499 209.477 244.966 209.867 246.612C226.835 236.358 240.953 221.474 250.348 203.28C250.967 202.074 250.495 200.607 249.29 199.987Z" fill="white"/>
<path d="M142.893 47.6565C142.731 46.3197 141.509 45.3578 140.174 45.5372C119.803 48.0804 100.866 56.3621 85.3154 69.0129C86.6832 69.9258 87.7905 71.1974 88.5233 72.6973C103.341 60.6823 121.367 52.8081 140.777 50.3953C142.112 50.2323 143.073 49.0096 142.893 47.6728V47.6565Z" fill="white"/>
<path d="M153.771 171.359C143.854 171.359 135.794 163.273 135.794 153.361C135.794 143.449 143.854 135.363 153.771 135.363C163.687 135.363 171.748 143.449 171.748 153.361C171.748 163.273 163.687 171.359 153.771 171.359ZM153.771 138.607C145.645 138.607 139.051 145.226 139.051 153.345C139.051 161.463 145.662 168.082 153.771 168.082C161.88 168.082 168.491 161.463 168.491 153.345C168.491 145.226 161.88 138.607 153.771 138.607Z" fill="white"/>
<path d="M153.771 144.625C152.875 144.625 152.142 143.891 152.142 142.994V129.3C152.142 128.404 152.875 127.67 153.771 127.67C154.666 127.67 155.399 128.404 155.399 129.3V142.994C155.399 143.891 154.666 144.625 153.771 144.625Z" fill="white"/>
<path d="M153.771 179.787C152.875 179.787 152.142 179.054 152.142 178.157V164.463C152.142 163.566 152.875 162.832 153.771 162.832C154.666 162.832 155.399 163.566 155.399 164.463V178.157C155.399 179.054 154.666 179.787 153.771 179.787Z" fill="white"/>
<path d="M178.164 155.366H164.485C163.59 155.366 162.857 154.632 162.857 153.736C162.857 152.839 163.59 152.105 164.485 152.105H178.164C179.059 152.105 179.792 152.839 179.792 153.736C179.792 154.632 179.059 155.366 178.164 155.366Z" fill="white"/>
<path d="M143.056 155.366H129.378C128.483 155.366 127.75 154.632 127.75 153.736C127.75 152.839 128.483 152.105 129.378 152.105H143.056C143.952 152.105 144.685 152.839 144.685 153.736C144.685 154.632 143.952 155.366 143.056 155.366Z" fill="white"/>
<path d="M63.1528 102.939C66.7514 96.4994 70.9363 90.5001 75.7074 85.0387C74.2419 84.2562 73.0206 83.0824 72.1576 81.6641C67.0608 87.4678 62.5992 93.8584 58.7725 100.738L63.1365 102.939H63.1528Z" fill="white"/>
<path d="M248.752 100.753C244.942 93.874 240.464 87.4834 235.367 81.6797C234.504 83.098 233.283 84.2718 231.818 85.0543C236.589 90.4994 240.774 96.4987 244.372 102.954L248.736 100.753H248.752Z" fill="white"/>
<path d="M200.798 258.204C195.636 258.204 191.451 253.998 191.451 248.846C191.451 243.694 195.652 239.488 200.798 239.488C205.943 239.488 210.144 243.694 210.144 248.846C210.144 253.998 205.943 258.204 200.798 258.204ZM200.798 244.379C198.339 244.379 196.336 246.384 196.336 248.846C196.336 251.308 198.339 253.313 200.798 253.313C203.256 253.313 205.259 251.308 205.259 248.846C205.259 246.384 203.256 244.379 200.798 244.379Z" fill="white"/>
<path d="M106.744 258.204C101.582 258.204 97.3975 253.998 97.3975 248.846C97.3975 243.694 101.599 239.488 106.744 239.488C111.89 239.488 116.091 243.694 116.091 248.846C116.091 253.998 111.89 258.204 106.744 258.204ZM106.744 244.379C104.285 244.379 102.282 246.384 102.282 248.846C102.282 251.308 104.285 253.313 106.744 253.313C109.203 253.313 111.206 251.308 111.206 248.846C111.206 246.384 109.203 244.379 106.744 244.379Z" fill="white"/>
<path d="M227.405 86.1626C222.243 86.1626 218.058 81.9566 218.058 76.805C218.058 71.6533 222.259 67.4473 227.405 67.4473C232.55 67.4473 236.752 71.6533 236.752 76.805C236.752 81.9566 232.55 86.1626 227.405 86.1626ZM227.405 72.338C224.946 72.338 222.943 74.3433 222.943 76.805C222.943 79.2666 224.946 81.2719 227.405 81.2719C229.864 81.2719 231.866 79.2666 231.866 76.805C231.866 74.3433 229.864 72.338 227.405 72.338Z" fill="white"/>
<path d="M80.1368 86.1626C74.9749 86.1626 70.79 81.9566 70.79 76.805C70.79 71.6533 74.9912 67.4473 80.1368 67.4473C85.2824 67.4473 89.4835 71.6533 89.4835 76.805C89.4835 81.9566 85.2824 86.1626 80.1368 86.1626ZM80.1368 72.338C77.678 72.338 75.6751 74.3433 75.6751 76.805C75.6751 79.2666 77.678 81.2719 80.1368 81.2719C82.5956 81.2719 84.5984 79.2666 84.5984 76.805C84.5984 74.3433 82.5956 72.338 80.1368 72.338Z" fill="white"/>
<path d="M153.771 280C152.419 280 151.328 278.908 151.328 277.555V259.687C151.328 258.334 152.419 257.242 153.771 257.242C155.122 257.242 156.213 258.334 156.213 259.687V277.555C156.213 278.908 155.122 280 153.771 280Z" fill="white"/>
<path d="M223.969 252.449C222.617 252.449 221.526 251.356 221.526 250.003V211.464C221.526 206.834 218.97 202.661 214.834 200.558L180.818 183.277C179.613 182.657 179.141 181.19 179.743 179.984C180.362 178.777 181.827 178.305 183.032 178.908L217.049 196.188C222.829 199.123 226.412 204.976 226.412 211.448V249.987C226.412 251.34 225.321 252.432 223.969 252.432V252.449Z" fill="white"/>
<path d="M171.324 85.738C171.08 85.738 170.82 85.6891 170.592 85.5587C169.794 85.1511 169.468 84.173 169.875 83.3741L178.896 65.588C179.173 65.0337 179.743 64.6914 180.346 64.6914H200.407C201.302 64.6914 202.035 65.425 202.035 66.3217C202.035 67.2183 201.302 67.9519 200.407 67.9519H181.339L172.774 84.8414C172.481 85.412 171.911 85.738 171.324 85.738Z" fill="white"/>
<path d="M153.771 194.591C131.12 194.591 112.688 176.136 112.688 153.459C112.688 130.782 131.12 112.344 153.771 112.344C176.421 112.344 194.854 130.799 194.854 153.459C194.854 176.12 176.421 194.591 153.771 194.591ZM153.771 117.235C133.807 117.235 117.573 133.489 117.573 153.459C117.573 173.43 133.807 189.7 153.771 189.7C173.734 189.7 189.969 173.446 189.969 153.459C189.969 133.472 173.734 117.235 153.771 117.235Z" fill="white"/>
<path d="M183.732 205.074H124.868C123.972 205.074 123.239 204.339 123.239 203.442C123.239 202.546 123.972 201.812 124.868 201.812H183.732C184.628 201.812 185.361 202.546 185.361 203.442C185.361 204.339 184.628 205.074 183.732 205.074Z" fill="white"/>
<path d="M178.847 222.648H129.753C128.857 222.648 128.124 221.914 128.124 221.017C128.124 220.121 128.857 219.387 129.753 219.387H178.847C179.743 219.387 180.476 220.121 180.476 221.017C180.476 221.914 179.743 222.648 178.847 222.648Z" fill="white"/>
<path d="M83.7677 252.45C82.4162 252.45 81.3252 251.357 81.3252 250.004V211.465C81.3252 204.977 84.9075 199.14 90.6882 196.206L124.705 178.925C125.91 178.306 127.375 178.795 127.994 180.001C128.597 181.208 128.124 182.675 126.919 183.294L92.9027 200.575C88.783 202.662 86.2102 206.851 86.2102 211.481V250.021C86.2102 251.374 85.1192 252.466 83.7677 252.466V252.45Z" fill="white"/>
<path d="M136.413 85.738C135.826 85.738 135.24 85.412 134.963 84.8414L126.398 67.9519H107.33C106.435 67.9519 105.702 67.2183 105.702 66.3217C105.702 65.425 106.435 64.6914 107.33 64.6914H127.392C128.01 64.6914 128.564 65.0337 128.841 65.588L137.862 83.3741C138.269 84.173 137.943 85.1511 137.145 85.5587C136.901 85.6728 136.657 85.738 136.413 85.738Z" fill="white"/>
<path d="M154.145 244.803H153.38C152.81 244.803 152.24 244.607 151.801 244.232L132.635 228.093C124.33 221.099 119.559 211.366 119.559 201.405V183.652C119.559 182.299 120.65 181.207 122.002 181.207C123.353 181.207 124.444 182.299 124.444 183.652V201.405C124.444 210.046 128.466 218.181 135.778 224.343L153.755 239.488L171.732 224.343C179.043 218.197 183.065 210.046 183.065 201.405V183.652C183.065 182.299 184.156 181.207 185.507 181.207C186.859 181.207 187.95 182.299 187.95 183.652V201.405C187.95 211.366 183.179 221.099 174.874 228.093L155.709 244.232C155.269 244.607 154.715 244.803 154.129 244.803H154.145Z" fill="white"/>
<path d="M172.985 122.354C172.562 122.354 172.139 122.24 171.764 122.028C166.309 118.882 160.089 117.219 153.771 117.219C147.453 117.219 141.233 118.882 135.778 122.028C134.915 122.534 133.824 122.452 133.042 121.833L122.393 113.388C118.989 110.682 117.231 106.492 117.67 102.155V95.8132C117.67 89.4063 122.881 84.1895 129.28 84.1895H135.761L147.241 76.2338C150.758 73.7884 155.334 73.7558 158.884 76.136L171.21 84.3851H178.375C184.775 84.3851 189.985 89.6019 189.985 96.0088V103.068C190.181 106.932 188.308 110.894 184.97 113.551L174.516 121.849C174.076 122.191 173.539 122.371 173.002 122.371L172.985 122.354ZM129.264 89.0639C125.552 89.0639 122.539 92.0799 122.539 95.7969V102.27C122.539 102.367 122.539 102.449 122.539 102.547C122.23 105.253 123.321 107.861 125.438 109.54L134.817 116.991C140.646 113.942 147.176 112.345 153.787 112.345C160.398 112.345 166.912 113.942 172.757 116.991L181.941 109.703C184.042 108.041 185.231 105.595 185.1 103.182V95.9925C185.1 92.2755 182.088 89.2596 178.375 89.2596H170.494C170.038 89.2922 169.533 89.1291 169.126 88.852L156.181 80.179C154.308 78.9237 151.882 78.94 150.026 80.2279L137.927 88.6238C137.52 88.9009 137.031 89.0639 136.543 89.0639H129.297H129.264Z" fill="white"/>
<path d="M154.064 261.301C153.869 261.301 153.657 261.268 153.461 261.187C152.631 260.845 152.224 259.899 152.566 259.068C153.608 256.492 162.841 233.75 166.439 230.147C167.074 229.511 168.1 229.511 168.735 230.147C169.37 230.783 169.37 231.81 168.735 232.445C166.374 234.809 159.421 250.77 155.578 260.29C155.318 260.926 154.715 261.301 154.064 261.301Z" fill="white"/>
<path d="M153.478 261.301C152.826 261.301 152.224 260.91 151.963 260.29C148.12 250.786 141.151 234.809 138.806 232.445C138.171 231.81 138.171 230.783 138.806 230.147C139.441 229.511 140.467 229.511 141.102 230.147C144.701 233.75 153.934 256.492 154.976 259.068C155.318 259.899 154.911 260.861 154.08 261.187C153.885 261.268 153.673 261.301 153.478 261.301Z" fill="white"/>
<path d="M272.836 89.9452C272.119 89.505 271.207 89.4561 270.458 89.8473L188.797 130.864C187.592 131.467 187.103 132.935 187.706 134.141C188.308 135.347 189.774 135.836 190.979 135.233L269.091 95.9934V126.658L189.904 166.436C188.699 167.04 188.21 168.507 188.813 169.713C188.943 169.99 189.139 170.202 189.35 170.398C189.497 171.099 189.953 171.718 190.637 172.061L261.356 207.584C261.698 207.763 262.072 207.845 262.447 207.845C262.887 207.845 263.342 207.714 263.733 207.486C264.45 207.046 264.889 206.247 264.889 205.399V174.001C264.889 173.071 264.368 172.224 263.538 171.816L226.786 153.345L272.624 130.31C273.455 129.902 273.976 129.055 273.976 128.125V91.983C273.976 91.1352 273.536 90.3527 272.819 89.8963L272.836 89.9452ZM221.885 156.378L260.021 175.533V201.454L195.571 169.077L221.445 156.084C221.575 156.198 221.738 156.296 221.901 156.378H221.885Z" fill="white"/>
<path d="M44.997 197.263C44.3945 197.263 43.8246 196.937 43.5478 196.367C43.1407 195.568 43.4663 194.59 44.2642 194.182L105.962 163.109C106.777 162.702 107.754 163.028 108.144 163.827C108.552 164.626 108.226 165.604 107.428 166.011L45.7298 197.084C45.5018 197.198 45.2412 197.263 44.997 197.263Z" fill="white"/>
<path d="M262.545 197.263C262.3 197.263 262.056 197.214 261.812 197.084L200.114 166.011C199.316 165.604 198.99 164.626 199.397 163.827C199.804 163.028 200.781 162.702 201.579 163.109L263.277 194.182C264.075 194.59 264.401 195.568 263.994 196.367C263.701 196.937 263.131 197.263 262.545 197.263Z" fill="white"/>
<path d="M200.846 139.423C200.244 139.423 199.674 139.097 199.397 138.526C198.99 137.728 199.316 136.749 200.114 136.342L261.812 105.269C262.317 105.008 262.919 105.041 263.391 105.334C263.88 105.628 264.173 106.149 264.173 106.72V116.241C264.173 117.137 263.44 117.871 262.545 117.871C261.649 117.871 260.916 117.137 260.916 116.241V109.361L201.579 139.244C201.351 139.358 201.091 139.423 200.846 139.423Z" fill="white"/>
<path d="M106.842 139.423C106.598 139.423 106.353 139.374 106.109 139.243L46.7879 109.344V116.224C46.7879 117.121 46.0551 117.854 45.1595 117.854C44.2639 117.854 43.5312 117.121 43.5312 116.224V106.703C43.5312 106.133 43.8244 105.611 44.3129 105.318C44.8014 105.024 45.3875 104.992 45.8923 105.253L107.591 136.325C108.389 136.733 108.714 137.711 108.307 138.51C108.014 139.08 107.444 139.406 106.858 139.406L106.842 139.423Z" fill="white"/>
<path d="M187.461 106.802H173.067C170.136 106.802 167.758 104.421 167.758 101.487V87.5482C167.758 86.6516 168.491 85.918 169.387 85.918H178.294C184.237 85.918 189.09 90.7598 189.09 96.7266V105.171C189.09 106.068 188.357 106.802 187.461 106.802ZM171.015 89.1785V101.487C171.015 102.612 171.927 103.541 173.067 103.541H185.833V96.7266C185.833 92.5694 182.446 89.1785 178.294 89.1785H171.015Z" fill="white"/>
<path d="M135.892 107.275H120.031C119.136 107.275 118.403 106.542 118.403 105.645V95.7656C118.403 89.8151 123.239 84.957 129.199 84.957H139.572C140.467 84.957 141.2 85.6906 141.2 86.5872V101.961C141.2 104.895 138.823 107.275 135.892 107.275ZM121.66 104.015H135.892C137.015 104.015 137.943 103.102 137.943 101.961V88.2175H129.199C125.047 88.2175 121.66 91.6084 121.66 95.7656V104.015Z" fill="white"/>
<path d="M118.729 130.864L37.0833 89.8466C36.318 89.4717 35.4224 89.5043 34.7059 89.9444C33.9895 90.3846 33.5498 91.1834 33.5498 92.0312V128.174C33.5498 129.103 34.0709 129.951 34.9013 130.359L80.7394 153.394L43.9875 171.865C43.1571 172.272 42.636 173.12 42.636 174.049V205.448C42.636 206.296 43.0756 207.078 43.7921 207.535C44.1829 207.779 44.6226 207.894 45.0785 207.894C45.453 207.894 45.8276 207.812 46.1695 207.633L116.889 172.109C117.573 171.767 118.012 171.131 118.175 170.447C118.387 170.251 118.582 170.039 118.712 169.762C119.315 168.555 118.826 167.088 117.621 166.485L38.4349 126.658V95.9927L116.547 135.233C117.752 135.836 119.217 135.347 119.82 134.141C120.422 132.934 119.934 131.467 118.729 130.864ZM47.5048 175.533L85.6407 156.377C85.8035 156.296 85.9501 156.198 86.0966 156.084L111.971 169.077L47.521 201.454V175.533H47.5048Z" fill="white"/>
</g>
</svg>
