<svg width="300" height="300" viewBox="0 0 300 300" fill="none" xmlns="http://www.w3.org/2000/svg">
<path d="M193.65 85.2299C191.95 85.2299 190.23 84.7999 188.66 83.8899C183.87 81.1299 182.23 74.9799 184.99 70.1999C187.75 65.4199 193.89 63.7699 198.68 66.5299C203.47 69.2898 205.11 75.4399 202.35 80.2199C200.5 83.4299 197.12 85.2299 193.65 85.2299ZM193.68 70.3299C191.99 70.3299 190.35 71.2099 189.44 72.7699C188.09 75.0999 188.9 78.0898 191.23 79.4398C193.56 80.7798 196.55 79.9799 197.9 77.6499C199.24 75.3199 198.44 72.3299 196.11 70.9799C195.34 70.5399 194.5 70.3299 193.68 70.3299Z" fill="#00B775"/>
<path d="M47.9999 92.5199C46.2999 92.5199 44.5799 92.0899 43.0099 91.1799C38.2199 88.4099 36.5799 82.2699 39.3399 77.4799C42.0999 72.6899 48.2399 71.0499 53.0299 73.8099C57.8199 76.5699 59.4599 82.7199 56.6999 87.4999C54.8499 90.7099 51.4699 92.5098 47.9999 92.5098V92.5199ZM48.0299 77.6199C46.3399 77.6199 44.6999 78.4999 43.7899 80.0599C42.4399 82.3899 43.2499 85.3799 45.5799 86.7299C47.9099 88.0699 50.8999 87.2698 52.2499 84.9398C53.5899 82.6098 52.7899 79.6199 50.4599 78.2699C49.6899 77.8299 48.8499 77.6199 48.0299 77.6199Z" fill="#00B775"/>
<path d="M235.41 142.98C233.71 142.98 231.99 142.55 230.42 141.64C228.1 140.3 226.44 138.14 225.75 135.55C225.06 132.96 225.41 130.26 226.75 127.94C229.51 123.15 235.65 121.51 240.44 124.27C242.76 125.61 244.42 127.77 245.11 130.36C245.8 132.95 245.45 135.65 244.11 137.97C242.26 141.18 238.88 142.98 235.41 142.98ZM235.44 128.08C233.75 128.08 232.11 128.96 231.2 130.52C230.55 131.65 230.37 132.96 230.71 134.22C231.05 135.48 231.85 136.53 232.98 137.18C235.31 138.52 238.3 137.73 239.65 135.39C240.3 134.26 240.48 132.94 240.14 131.68C239.8 130.42 239 129.37 237.87 128.72C237.1 128.28 236.26 128.07 235.44 128.07V128.08Z" fill="#00B775"/>
<path d="M183.66 74.8299L166.9 76.9699H141.65L116.06 73.6999L60.4999 42.2599C60.2799 43.9899 59.6299 45.6599 58.5599 47.0699L113.95 78.4299C114.24 78.5899 114.56 78.6999 114.89 78.7399L141.14 82.0998C141.25 82.1098 141.36 82.1199 141.47 82.1199H167.05C167.16 82.1199 167.27 82.1198 167.38 82.0998L184.8 79.8699C183.99 78.3199 183.59 76.5899 183.65 74.8299H183.66Z" fill="#307A7A"/>
<path d="M59.2499 36.0099C56.4899 31.2199 50.3399 29.5799 45.5599 32.3399C40.7699 35.0999 39.1199 41.2499 41.8899 46.0299C43.7399 49.2399 47.1199 51.0399 50.5899 51.0399C52.2899 51.0399 54.0099 50.6099 55.5799 49.6999C60.3699 46.9399 62.0099 40.7899 59.2499 36.0099Z" fill="#00B775"/>
<path d="M51.3599 73.0499L52.5099 50.8299C51.8699 50.9599 51.2299 51.0399 50.5899 51.0399C49.4899 51.0399 48.4099 50.8399 47.3799 50.4899L46.2299 72.6399C47.9599 72.3299 49.7299 72.4799 51.3599 73.0499Z" fill="#307A7A"/>
<path d="M223.2 91.7199C218.41 88.9599 212.27 90.5998 209.51 95.3898C206.75 100.18 208.39 106.32 213.18 109.08C214.76 109.99 216.48 110.42 218.17 110.42C221.64 110.42 225.01 108.62 226.87 105.41C229.63 100.62 227.99 94.4799 223.2 91.7199Z" fill="#00B775"/>
<path d="M231.28 123.85L222.83 109.27C221.78 109.82 220.66 110.19 219.49 110.34L228.44 125.79C229.28 124.97 230.24 124.32 231.28 123.85Z" fill="#307A7A"/>
<path d="M260.58 39.4299C260.53 38.5399 260.03 37.7399 259.25 37.3099C258.47 36.8799 257.52 36.8899 256.75 37.3299L201.29 68.7199C202.43 70.0599 203.19 71.6699 203.51 73.3699L253.9 44.8499L221.55 90.9699C222.12 91.1699 222.67 91.4199 223.21 91.7299C223.69 92.0099 224.13 92.3299 224.55 92.6699L255.89 47.9999L257.56 80.2599L237.26 123.12C238.35 123.32 239.43 123.7 240.45 124.29C240.97 124.59 241.45 124.95 241.9 125.33L262.48 81.8799C262.66 81.4899 262.75 81.0699 262.72 80.6399L260.58 39.4399V39.4299Z" fill="#307A7A"/>
<path d="M249.84 184.58L247.98 176.43C247.95 176.29 247.9 176.15 247.84 176.02C247.86 175.76 247.86 175.49 247.8 175.22L240.11 141.81C238.66 142.57 237.05 142.98 235.42 142.98C235.31 142.98 235.21 142.96 235.1 142.96L242.79 176.37C242.82 176.51 242.87 176.64 242.93 176.77C242.91 177.03 242.91 177.3 242.97 177.57L244.44 183.99L196.47 215.97C196.1 216.22 195.8 216.56 195.59 216.96L172.49 263.28H155.07C154.79 263.28 154.52 263.34 154.27 263.42C154.02 263.34 153.75 263.28 153.47 263.28H136.05L112.95 216.96C112.75 216.56 112.45 216.22 112.07 215.97L64.0999 183.99L65.5699 177.57C65.6399 177.28 65.6399 176.98 65.6099 176.7C65.6499 176.59 65.7199 176.49 65.7499 176.37L75.6099 133.54C75.6099 133.54 75.6099 133.49 75.6099 133.46L93.6799 102.28C94.0099 101.7 93.9798 100.98 93.5998 100.44L57.1999 48.5399C56.7099 48.9699 56.1699 49.3599 55.5799 49.6999C55.1499 49.9499 54.7099 50.1499 54.2699 50.3299L90.1698 101.51L74.1499 129.16L55.2899 89.3399C54.6299 90.0399 53.8899 90.6799 53.0399 91.1799C52.3499 91.5799 51.6399 91.8699 50.9099 92.0899L70.4099 133.26L60.7499 175.22C60.6899 175.49 60.6799 175.76 60.7099 176.03C60.6599 176.16 60.6099 176.29 60.5699 176.44L58.7099 184.59C58.4699 185.63 58.8999 186.71 59.7899 187.3L108.67 219.88L132.17 267.01C132.61 267.88 133.5 268.43 134.47 268.43H153.48C153.76 268.43 154.03 268.37 154.28 268.29C154.53 268.37 154.8 268.43 155.08 268.43H174.09C175.06 268.43 175.96 267.88 176.39 267.01L199.89 219.88L248.77 187.3C249.66 186.71 250.09 185.63 249.85 184.59L249.84 184.58Z" fill="#307A7A"/>
<path d="M106.54 183.29C106.95 184.07 107.72 184.58 108.6 184.66L131.32 186.58L128.5 213.62L108.21 195.77C108.01 195.59 107.77 195.47 107.51 195.4L64.4399 184.23L73.1299 190.03L106.25 198.62L136.65 225.37V239.39C136.65 240.18 137.02 240.93 137.64 241.42L152.29 252.81C152.76 253.17 153.31 253.35 153.87 253.35C154 253.35 154.13 253.33 154.25 253.31C154.38 253.33 154.5 253.35 154.63 253.35C155.18 253.35 155.74 253.17 156.21 252.81L170.86 241.42C171.49 240.93 171.85 240.18 171.85 239.39V225.37L202.25 198.62L235.37 190.03L244.06 184.23L200.99 195.4C200.73 195.47 200.49 195.59 200.29 195.77L180 213.62L177.19 186.58L199.91 184.66C200.79 184.58 201.56 184.07 201.97 183.29L211.59 164.98C212.03 164.15 211.97 163.15 211.46 162.37C210.94 161.59 210.07 161.15 209.11 161.23L186.68 163.06C186.07 163.11 185.5 163.37 185.07 163.8L173.78 175.09C173.57 175.3 173.42 175.54 173.29 175.8C172.94 176.15 172.72 176.64 172.78 177.17L176.86 216.39L169.58 222.8C169.48 222.79 169.39 222.77 169.29 222.77H154.84C154.64 222.77 154.44 222.8 154.26 222.84C154.07 222.8 153.88 222.77 153.68 222.77H139.23C139.13 222.77 139.03 222.79 138.94 222.8L131.66 216.4L135.76 177.09C135.82 176.51 135.56 175.99 135.15 175.63C135.04 175.44 134.91 175.25 134.75 175.09L123.46 163.8C123.03 163.37 122.46 163.11 121.85 163.06L99.4198 161.23C98.4598 161.16 97.5799 161.59 97.0699 162.37C96.5499 163.15 96.4999 164.15 96.9399 164.98L106.55 183.29H106.54ZM188.05 168.1L204.89 166.72L198.1 179.65L178.56 181.3L178.27 177.88L188.05 168.1ZM141.81 227.91H153.69C153.89 227.91 154.09 227.88 154.27 227.84C154.46 227.88 154.65 227.91 154.85 227.91H166.73V238.12L154.27 247.81L141.81 238.12V227.91ZM120.49 168.1L130.27 177.88L129.98 181.3L110.44 179.65L103.65 166.72L120.48 168.1H120.49Z" fill="#00B775"/>
</svg>
