<svg width="300" height="300" viewBox="0 0 300 300" fill="none" xmlns="http://www.w3.org/2000/svg">
<path d="M112.27 124.32L114.39 135.73L137.81 128.76L112.27 124.32Z" fill="#37693B"/>
<path d="M136.79 107.46L127.96 112.22L148.56 125.73L136.79 107.46Z" fill="#37693B"/>
<path d="M174.75 117.71L168.89 110.63L153.72 122.52" fill="#37693B"/>
<path d="M135.55 105.34C130.1 105.34 125.66 100.9 125.66 95.45C125.66 90 130.1 85.56 135.55 85.56C141 85.56 145.44 89.99 145.44 95.45C145.44 100.91 141 105.34 135.55 105.34ZM135.55 90.71C132.93 90.71 130.8 92.84 130.8 95.45C130.8 98.06 132.93 100.19 135.55 100.19C138.17 100.19 140.29 98.06 140.29 95.45C140.29 92.84 138.16 90.71 135.55 90.71Z" fill="#00B600"/>
<path d="M111.2 186.14C105.75 186.14 101.31 181.7 101.31 176.25C101.31 170.8 105.75 166.36 111.2 166.36C116.65 166.36 121.09 170.8 121.09 176.25C121.09 181.7 116.65 186.14 111.2 186.14ZM111.2 171.51C108.58 171.51 106.46 173.64 106.46 176.25C106.46 178.86 108.59 181 111.2 181C113.81 181 115.95 178.87 115.95 176.25C115.95 173.63 113.82 171.51 111.2 171.51Z" fill="#00B600"/>
<path d="M216.03 126.48C210.58 126.48 206.14 122.04 206.14 116.59C206.14 111.14 210.58 106.7 216.03 106.7C221.48 106.7 225.92 111.14 225.92 116.59C225.92 122.04 221.48 126.48 216.03 126.48ZM216.03 111.85C213.41 111.85 211.28 113.98 211.28 116.59C211.28 119.2 213.41 121.34 216.03 121.34C218.65 121.34 220.78 119.21 220.78 116.59C220.78 113.97 218.65 111.85 216.03 111.85Z" fill="#00B600"/>
<path d="M160.53 250.81C155.08 250.81 150.64 246.37 150.64 240.92C150.64 235.47 155.08 231.03 160.53 231.03C165.98 231.03 170.42 235.47 170.42 240.92C170.42 246.37 165.98 250.81 160.53 250.81ZM160.53 236.18C157.91 236.18 155.78 238.31 155.78 240.92C155.78 243.53 157.91 245.66 160.53 245.66C163.15 245.66 165.27 243.53 165.27 240.92C165.27 238.31 163.14 236.18 160.53 236.18Z" fill="#00B600"/>
<path d="M175.79 49.77C170.34 49.77 165.9 45.33 165.9 39.88C165.9 34.43 170.34 30 175.79 30C181.24 30 185.68 34.43 185.68 39.89C185.68 45.35 181.24 49.78 175.79 49.78V49.77ZM175.79 35.14C173.17 35.14 171.04 37.27 171.04 39.88C171.04 42.49 173.17 44.62 175.79 44.62C178.41 44.62 180.53 42.49 180.53 39.88C180.53 37.27 178.4 35.14 175.79 35.14Z" fill="#00B600"/>
<path d="M168.91 46.97L141.39 87.49C142.34 88.19 143.16 89.04 143.81 90.03L171.74 48.9C170.68 48.42 169.73 47.77 168.91 46.97Z" fill="#00B600"/>
<path d="M85.3596 263.65C79.9096 263.65 75.4696 259.21 75.4696 253.76C75.4696 248.31 79.9096 243.87 85.3596 243.87C90.8096 243.87 95.2496 248.31 95.2496 253.76C95.2496 259.21 90.8096 263.65 85.3596 263.65ZM85.3596 249.02C82.7396 249.02 80.6096 251.15 80.6096 253.77C80.6096 256.39 82.7396 258.52 85.3596 258.52C87.9796 258.52 90.0996 256.39 90.0996 253.77C90.0996 251.15 87.9696 249.02 85.3596 249.02Z" fill="#00B600"/>
<path d="M94.8396 250.99L151.98 245.86C151.39 244.85 150.98 243.72 150.79 242.52L93.1496 247.7C93.9096 248.67 94.4896 249.78 94.8396 250.99Z" fill="#00B600"/>
<path d="M90.8696 245.56L109.41 185.97C108.25 185.76 107.17 185.34 106.19 184.76L87.7096 244.16C88.8496 244.44 89.9196 244.91 90.8696 245.55V245.56Z" fill="#00B600"/>
<path d="M138.13 85.92V80.13C138.13 62.52 150.28 47.7 166.63 43.6C166.17 42.46 165.9 41.21 165.9 39.9C165.9 39.41 165.95 38.94 166.02 38.47C147.11 42.9 132.98 59.9 132.98 80.14V85.93C133.8 85.71 134.66 85.58 135.55 85.58C136.44 85.58 137.3 85.71 138.12 85.93L138.13 85.92Z" fill="#37693B"/>
<path d="M185.56 38.45C185.63 38.92 185.68 39.39 185.68 39.88C185.68 41.19 185.42 42.44 184.95 43.58C201.31 47.68 213.45 62.5 213.45 80.11V107.05C214.27 106.83 215.13 106.7 216.02 106.7C216.91 106.7 217.77 106.83 218.59 107.05V80.11C218.59 59.87 204.46 42.87 185.55 38.44L185.56 38.45Z" fill="#37693B"/>
<path d="M143.41 254.19C136.3 261.3 126.84 265.22 116.78 265.22C108.59 265.22 100.83 262.59 94.3796 257.79C93.6596 259.4 92.5196 260.78 91.0896 261.8C98.4596 267.35 107.39 270.36 116.78 270.36C128.21 270.36 138.96 265.91 147.05 257.82L155.48 249.39C153.99 248.5 152.75 247.23 151.9 245.7L143.41 254.19Z" fill="#37693B"/>
<path d="M106.26 184.81C104.75 183.94 103.5 182.68 102.63 181.17L86.5096 197.29C73.1696 210.62 70.4996 230.64 78.4796 246.67C79.7196 245.47 81.2696 244.59 83.0096 244.17C76.1096 230.1 78.4596 212.61 90.1396 200.93L106.26 184.81Z" fill="#37693B"/>
<path d="M213.46 126.13V151.36C213.46 157.55 211.98 163.49 209.15 168.85C207.53 160.58 203.49 152.97 197.43 146.9C196.06 145.53 194.57 144.24 193 143.04V80.12C193 70.64 185.29 62.92 175.8 62.92C166.31 62.92 158.6 70.64 158.6 80.12V101.3C158.6 102.72 159.75 103.87 161.17 103.87C162.59 103.87 163.74 102.72 163.74 101.3V80.12C163.74 73.47 169.15 68.06 175.8 68.06C182.45 68.06 187.86 73.47 187.86 80.12V139.73C181.56 136.23 174.5 134.37 167.17 134.37C166.03 134.37 164.89 134.42 163.75 134.51V132.29C163.75 130.87 162.6 129.72 161.18 129.72C159.76 129.72 158.61 130.87 158.61 132.29V151.36C158.61 156.46 160.87 161.27 164.8 164.56C167.83 167.09 171.66 168.51 175.6 168.56C175.63 168.59 175.67 168.63 175.7 168.66C177.98 170.94 179.23 173.96 179.23 177.18C179.23 180.4 177.98 183.43 175.7 185.7L172.52 188.88C162.89 188.05 154.08 183.6 147.6 176.28C141.62 169.52 138.26 160.83 138.15 151.83C138.15 151.83 138.15 151.83 138.15 151.82V133.33C138.14 131.91 136.99 130.76 135.57 130.76C134.15 130.76 133 131.91 133 133.33V150.82L116.12 167.69C117.63 168.56 118.89 169.81 119.76 171.32L133.46 157.62C134.55 164.98 137.55 171.96 142.19 177.84L104.63 215.4C101.39 218.64 99.5996 222.96 99.5996 227.56C99.5996 232.16 101.39 236.48 104.63 239.72C107.88 242.97 112.2 244.76 116.79 244.76C121.38 244.76 125.7 242.97 128.95 239.72L179.33 189.34C182.58 186.09 184.37 181.77 184.37 177.18C184.37 172.59 182.58 168.27 179.33 165.02C178.96 164.65 178.58 164.31 178.19 163.98C175.17 161.45 171.34 160.04 167.4 159.98C165.07 157.71 163.75 154.62 163.75 151.36V139.66C172.73 138.86 181.65 141.25 188.94 146.44C190.69 147.69 192.32 149.06 193.8 150.54C200.68 157.42 204.59 166.57 204.81 176.31L204.83 177.18C204.83 187.24 200.91 196.7 193.8 203.81L165.34 232.27C166.86 233.12 168.13 234.36 169.03 235.85L197.44 207.44C205.53 199.36 209.98 188.61 209.98 177.17C209.98 177.13 209.98 177.09 209.98 177.05C215.62 169.58 218.62 160.73 218.62 151.35V126.12C217.8 126.34 216.94 126.47 216.05 126.47C215.16 126.47 214.3 126.34 213.48 126.12L213.46 126.13ZM125.3 236.08C123.02 238.36 120 239.61 116.78 239.61C113.56 239.61 110.53 238.36 108.25 236.08C105.98 233.81 104.73 230.78 104.73 227.55C104.73 224.32 105.98 221.3 108.25 219.03L145.61 181.67C151.76 187.82 159.49 191.87 167.95 193.43L125.3 236.08Z" fill="#37693B"/>
<path d="M203.87 168.85C203.37 166.64 202.69 164.48 201.81 162.41L164.06 149.31C163.95 149.27 163.84 149.28 163.73 149.27V151.36C163.73 151.87 163.77 152.37 163.84 152.87L201.57 165.96L164.15 231.73C164.65 231.93 165.12 232.17 165.58 232.45C165.49 232.4 165.41 232.33 165.32 232.28L171.04 226.57L203.87 168.86V168.85Z" fill="#00B600"/>
<path d="M175.68 168.66C175.68 168.66 175.61 168.59 175.58 168.56C175.08 168.56 174.59 168.53 174.09 168.48L162.1 184.22L138.13 139.45V146.72L158.54 184.82C160.35 185.76 162.23 186.52 164.17 187.15L177.03 170.27C176.63 169.7 176.18 169.15 175.68 168.65V168.66Z" fill="#00B600"/>
<path d="M209.24 109.43L192.99 95.03V99.61L207.19 112.2C207.71 111.16 208.4 110.23 209.24 109.44V109.43Z" fill="#00B600"/>
<path d="M208.74 123.26L195.66 145.27C196.26 145.81 196.86 146.35 197.42 146.91C197.69 147.18 197.93 147.46 198.19 147.73L211.48 125.36C210.45 124.82 209.53 124.11 208.75 123.25L208.74 123.26Z" fill="#00B600"/>
</svg>
