<svg width="300" height="300" viewBox="0 0 300 300" fill="none" xmlns="http://www.w3.org/2000/svg">
<path d="M216.204 144.111C212.922 144.111 209.64 142.47 207.725 139.188C206.358 137 206.084 134.265 206.631 131.803C207.178 129.342 208.819 127.154 211.281 125.786C215.931 123.051 221.948 124.692 224.409 129.342C225.777 131.53 226.05 134.265 225.503 136.726C224.956 139.188 223.315 141.376 220.854 142.743C219.486 143.564 217.845 144.111 216.204 144.111ZM216.204 129.615C215.383 129.615 214.563 129.889 213.742 130.162C211.554 131.53 210.734 134.265 212.101 136.726C213.469 138.914 216.204 139.735 218.666 138.367C219.76 137.82 220.58 136.726 220.854 135.632C221.127 134.538 221.127 133.171 220.307 132.077C219.486 130.436 217.845 129.615 216.204 129.615Z" fill="#FFEC6A"/>
<path d="M128.958 63.9744C128.138 63.9744 127.317 63.9744 126.497 63.7009C124.035 63.1539 121.847 61.5128 120.48 59.0513C117.744 54.4017 119.386 48.3846 124.035 45.9231C126.223 44.5556 128.958 44.2821 131.42 44.8291C133.881 45.3761 136.069 47.0171 137.437 49.4786C140.172 54.1282 138.531 60.1453 133.881 62.6069C132.24 63.7009 130.599 63.9744 128.958 63.9744ZM128.685 49.7521C127.864 49.7521 127.044 50.0257 126.223 50.2992C124.035 51.6667 123.215 54.4017 124.582 56.8633C125.129 57.9573 126.223 58.7778 127.317 59.0513C128.411 59.3248 129.779 59.3248 130.873 58.5043C133.061 57.1368 133.881 54.4018 132.514 51.9402C131.967 50.5727 130.326 49.7521 128.685 49.7521Z" fill="#FFEC6A"/>
<path d="M149.743 41C144 41 138.803 42.9145 133.606 46.1966C134.974 47.0171 136.341 48.1111 137.162 49.7521C141.265 47.2906 145.367 45.923 149.743 45.923C175.453 45.923 196.512 92.6923 196.512 150.128C196.512 207.564 175.453 254.334 149.743 254.334C124.034 254.334 102.974 207.564 102.974 150.128C102.974 113.752 111.453 81.7521 124.307 63.1538C122.94 62.3333 121.572 61.2393 120.752 59.5983C107.076 79.0171 98.0508 112.111 98.0508 150.128C98.0508 211.393 120.752 259.257 150.017 259.257C179.008 259.257 201.983 211.393 201.983 150.128C201.709 88.8633 178.735 41 149.743 41Z" fill="#FFDF00"/>
<path d="M224.684 139.188C223.863 140.556 222.769 141.923 221.128 142.744C221.128 142.744 220.855 142.744 220.855 143.017C246.838 167.359 259.966 192.795 251.487 207.564C238.906 229.445 182.017 221.513 127.316 190.06C72.6151 158.607 37.3331 113.479 49.9143 91.325C62.4955 69.4446 119.384 77.3762 174.085 108.829C186.12 115.667 197.06 123.325 206.906 131.257C207.453 129.616 208.547 128.248 209.914 127.154C200.068 119.222 188.855 111.838 176.547 104.727C117.743 70.8121 60.3075 63.9745 45.8117 89.1369C31.316 114.299 66.051 160.522 124.855 194.436C159.863 214.675 194.325 225.069 219.487 225.069C236.718 225.069 249.846 220.146 255.59 210.026C265.709 192.522 252.581 165.445 224.684 139.188Z" fill="#FFDF00"/>
<path d="M254.223 85.8548C238.907 60.9659 181.744 69.4445 123.761 105C96.4107 121.684 73.4363 141.923 58.9406 161.889C44.1713 182.402 40.0688 200.453 47.4534 212.487C52.103 220.145 60.8551 224.522 72.6158 226.163C72.3423 224.795 72.3423 223.154 72.6158 221.513C72.6158 221.24 72.6158 221.239 72.8893 220.966C62.7697 219.598 55.385 215.769 51.556 209.752C45.2654 199.633 49.368 183.222 62.7697 164.624C76.7184 145.205 99.1457 125.513 125.949 109.103C160.137 88.0428 195.419 76.5556 220.035 76.5556C233.983 76.5556 244.65 80.3847 249.573 88.0428C262.975 109.65 228.787 155.872 174.906 188.692C148.103 205.103 120.479 216.316 96.6842 219.872C94.7697 220.145 92.8552 220.419 90.9406 220.693C91.4877 222.334 91.4876 223.975 91.2141 225.616C93.1287 225.342 95.3167 225.069 97.5047 224.795C121.847 220.966 150.291 209.752 177.642 192.795C235.898 158.06 269.266 110.744 254.223 85.8548Z" fill="#FFDF00"/>
<path d="M90.667 219.325C89.2995 217.137 87.385 215.496 84.6499 214.675C82.1884 214.128 79.4533 214.402 77.2653 215.769C75.0773 217.137 73.4362 219.051 72.6157 221.786C72.0687 224.248 72.3422 226.983 73.7097 229.171C75.6243 232.18 78.9063 234.094 82.1884 234.094C83.8294 234.094 85.4704 233.547 87.1114 232.727C89.2995 231.359 90.9405 229.444 91.761 226.709C92.5815 223.974 91.761 221.786 90.667 219.325Z" fill="#FFEC6A"/>
<path d="M149.742 134.539C141.263 134.539 134.426 141.376 134.426 149.855C134.426 158.333 141.263 165.171 149.742 165.171C158.221 165.171 165.058 158.333 165.058 149.855C165.058 141.376 158.221 134.539 149.742 134.539Z" fill="#FFDF00"/>
<path d="M124.032 135.359C123.485 135.359 123.211 135.359 122.664 134.812C121.57 133.992 121.297 132.624 121.844 131.257C128.134 121.957 138.528 116.214 149.741 116.214C160.955 116.214 171.348 121.684 177.639 131.257C178.459 132.351 178.186 133.992 176.818 134.812C175.724 135.633 174.083 135.359 173.263 133.992C168.066 126.06 159.04 121.137 149.741 121.137C140.169 121.137 131.416 125.787 126.22 133.992C125.673 135.086 124.852 135.359 124.032 135.359Z" fill="#FFEC6A"/>
<path d="M139.075 181.308C138.802 181.308 138.528 181.308 138.255 181.034C127.588 176.932 119.383 167.633 117.195 156.419C116.921 155.051 117.742 153.684 119.11 153.41C120.477 153.137 121.845 153.957 122.118 155.325C124.033 164.898 130.87 172.829 140.169 176.385C141.537 176.932 142.084 178.299 141.537 179.667C140.99 180.761 140.169 181.308 139.075 181.308Z" fill="#FFEC6A"/>
<path d="M162.05 180.761C160.956 180.761 160.135 180.214 159.862 179.393C159.315 178.026 159.862 176.658 161.229 176.111C169.708 172.282 175.999 164.624 177.64 155.598C177.913 154.231 179.281 153.41 180.648 153.684C182.016 153.957 182.836 155.325 182.563 156.692C180.375 167.359 173.264 176.385 163.144 180.761C162.871 180.761 162.597 180.761 162.05 180.761Z" fill="#FFEC6A"/>
<path d="M149.743 184.317C152.16 184.317 154.119 182.357 154.119 179.941C154.119 177.524 152.16 175.564 149.743 175.564C147.326 175.564 145.367 177.524 145.367 179.941C145.367 182.357 147.326 184.317 149.743 184.317Z" fill="#FFDF00"/>
<path d="M119.657 148.487C122.074 148.487 124.033 146.528 124.033 144.111C124.033 141.694 122.074 139.735 119.657 139.735C117.241 139.735 115.281 141.694 115.281 144.111C115.281 146.528 117.241 148.487 119.657 148.487Z" fill="#FFDF00"/>
<path d="M180.103 148.487C182.519 148.487 184.479 146.528 184.479 144.111C184.479 141.694 182.519 139.735 180.103 139.735C177.686 139.735 175.727 141.694 175.727 144.111C175.727 146.528 177.686 148.487 180.103 148.487Z" fill="#FFDF00"/>
</svg>
