<svg width="300" height="300" viewBox="0 0 300 300" fill="none" xmlns="http://www.w3.org/2000/svg">
<g clip-path="url(#clip0_3807_5000)">
<path d="M140.915 163.146C130.306 163.146 121.68 171.773 121.68 182.382C121.68 192.991 130.306 201.617 140.915 201.617C151.524 201.617 160.15 192.991 160.15 182.382C160.15 171.773 151.524 163.146 140.915 163.146Z" fill="#5B9EB3"/>
<path d="M173.097 163.28C172.372 163.28 171.677 162.925 171.248 162.288C164.456 152.064 153.122 145.968 140.915 145.968C128.708 145.968 117.374 152.064 110.582 162.288C109.902 163.309 108.525 163.59 107.505 162.91C106.484 162.229 106.202 160.853 106.883 159.832C114.503 148.38 127.213 141.529 140.915 141.529C154.616 141.529 167.327 148.365 174.947 159.832C175.627 160.853 175.346 162.229 174.325 162.91C173.941 163.161 173.526 163.28 173.097 163.28Z" fill="#267E99"/>
<path d="M127.48 220.808C127.228 220.808 126.962 220.764 126.71 220.675C113.541 215.763 103.643 204.177 100.89 190.431C100.654 189.233 101.423 188.064 102.636 187.812C103.835 187.576 105.004 188.345 105.255 189.558C107.712 201.81 116.53 212.138 128.279 216.517C129.433 216.947 130.01 218.219 129.581 219.373C129.241 220.261 128.397 220.823 127.495 220.823L127.48 220.808Z" fill="#267E99"/>
<path d="M156.407 219.95C155.549 219.95 154.735 219.462 154.38 218.618C153.891 217.494 154.395 216.192 155.519 215.689C166.409 210.895 174.296 201.129 176.619 189.543C176.856 188.345 178.024 187.575 179.238 187.797C180.436 188.034 181.221 189.203 180.984 190.416C178.38 203.422 169.531 214.387 157.324 219.758C157.028 219.891 156.732 219.95 156.436 219.95H156.407Z" fill="#267E99"/>
<path d="M140.915 225.617C144.028 225.617 146.552 223.093 146.552 219.98C146.552 216.866 144.028 214.342 140.915 214.342C137.802 214.342 135.278 216.866 135.278 219.98C135.278 223.093 137.802 225.617 140.915 225.617Z" fill="#5B9EB3"/>
<path d="M103.095 180.591C106.209 180.591 108.733 178.067 108.733 174.954C108.733 171.84 106.209 169.316 103.095 169.316C99.9816 169.316 97.4577 171.84 97.4577 174.954C97.4577 178.067 99.9816 180.591 103.095 180.591Z" fill="#5B9EB3"/>
<path d="M178.749 180.591C181.863 180.591 184.387 178.067 184.387 174.954C184.387 171.84 181.863 169.316 178.749 169.316C175.636 169.316 173.112 171.84 173.112 174.954C173.112 178.067 175.636 180.591 178.749 180.591Z" fill="#5B9EB3"/>
<path d="M122.419 120.266C122.153 120.266 121.902 120.222 121.635 120.118C120.481 119.689 119.904 118.402 120.333 117.263L121.147 115.102C123.026 110.101 122.419 104.434 119.534 99.9508L117.122 96.2073C113.601 90.7178 112.757 84.0298 114.814 77.8301L116.101 73.9682C116.486 72.8141 117.744 72.1778 118.913 72.5625C120.082 72.9472 120.703 74.2049 120.318 75.3739L119.031 79.2357C117.403 84.1482 118.054 89.4453 120.851 93.7955L123.263 97.539C126.903 103.206 127.672 110.353 125.305 116.656L124.491 118.816C124.151 119.704 123.307 120.252 122.419 120.252V120.266Z" fill="#5B9EB3"/>
<path d="M168.599 120.266C168.333 120.266 168.081 120.222 167.815 120.118C166.661 119.689 166.084 118.402 166.513 117.263L167.327 115.102C169.206 110.101 168.599 104.434 165.714 99.9508L163.302 96.2073C159.78 90.7178 158.937 84.0298 160.994 77.8301L162.281 73.9682C162.666 72.8141 163.923 72.1778 165.092 72.5625C166.261 72.9472 166.883 74.2049 166.498 75.3739L165.211 79.2357C163.583 84.1482 164.234 89.4453 167.031 93.7955L169.443 97.539C173.082 103.206 173.852 110.353 171.484 116.656L170.671 118.816C170.33 119.704 169.487 120.252 168.599 120.252V120.266Z" fill="#5B9EB3"/>
<path d="M143.415 99.2849C143.149 99.2849 142.898 99.2405 142.631 99.1369C141.477 98.7078 140.9 97.4205 141.329 96.2812L142.143 94.1209C144.022 89.1197 143.415 83.4526 140.53 78.9693L138.118 75.2258C134.597 69.7363 133.753 63.0483 135.81 56.8486L137.097 52.9867C137.482 51.8178 138.74 51.1963 139.909 51.581C141.078 51.9657 141.699 53.2234 141.314 54.3924L140.027 58.2542C138.399 63.1667 139.065 68.4638 141.847 72.814L144.259 76.5575C147.899 82.2245 148.668 89.3712 146.301 95.6745L145.487 97.8348C145.147 98.7226 144.303 99.2701 143.415 99.2701V99.2849Z" fill="#5B9EB3"/>
<path d="M230.419 137.977C229.664 137.977 228.91 137.874 228.17 137.681C225.936 137.089 224.071 135.654 222.917 133.642C221.763 131.644 221.452 129.307 222.059 127.072C222.651 124.838 224.086 122.974 226.098 121.82C228.096 120.665 230.434 120.355 232.668 120.961C234.902 121.553 236.767 122.988 237.921 125.001C239.075 126.998 239.386 129.336 238.779 131.57C238.187 133.805 236.752 135.669 234.739 136.823C233.408 137.593 231.928 137.992 230.434 137.992L230.419 137.977ZM230.404 125.104C229.679 125.104 228.954 125.297 228.303 125.667C227.326 126.229 226.631 127.146 226.335 128.226C226.039 129.321 226.187 130.446 226.749 131.422C227.312 132.399 228.229 133.094 229.309 133.39C230.389 133.686 231.529 133.538 232.505 132.976C233.482 132.414 234.177 131.496 234.473 130.416C234.769 129.321 234.621 128.197 234.059 127.22C233.497 126.244 232.579 125.548 231.499 125.252C231.129 125.149 230.774 125.104 230.404 125.104Z" fill="#267E99"/>
<path d="M222.325 126.377H59.6971C59.9486 127.176 60.0818 128.034 60.0818 128.907C60.0818 129.558 60.0078 130.194 59.8598 130.816H221.896C221.689 129.588 221.718 128.33 222.059 127.087C222.133 126.836 222.236 126.614 222.325 126.377Z" fill="#5B9EB3"/>
<path d="M51.4259 137.564C56.2065 137.564 60.0819 133.688 60.0819 128.908C60.0819 124.127 56.2065 120.252 51.4259 120.252C46.6454 120.252 42.77 124.127 42.77 128.908C42.77 133.688 46.6454 137.564 51.4259 137.564Z" fill="#267E99"/>
<path d="M88.3876 233.578C87.1743 232.823 85.9906 232.024 84.8808 231.107C62.7601 213.026 50.0795 185.874 50.0795 156.636C50.0795 150.2 50.7158 143.808 51.9439 137.534C51.7663 137.534 51.5888 137.564 51.4112 137.564C50.0351 137.564 48.7478 137.238 47.5937 136.661C46.2916 143.216 45.6258 149.904 45.6258 156.636C45.6258 187.206 58.8982 215.6 82.0547 234.54C83.3124 235.576 84.6441 236.478 86.0201 237.336C86.464 235.886 87.2779 234.599 88.3728 233.578H88.3876Z" fill="#5B9EB3"/>
<path d="M94.3062 248.537C91.3173 248.537 88.4024 246.983 86.8044 244.216C85.6502 242.219 85.3395 239.881 85.9462 237.646C86.5528 235.412 87.9733 233.548 89.9856 232.394C91.9831 231.24 94.321 230.929 96.5552 231.536C98.7895 232.127 100.654 233.563 101.808 235.575C102.962 237.573 103.273 239.91 102.666 242.145C102.074 244.379 100.639 246.243 98.6415 247.397C97.2802 248.182 95.8006 248.551 94.321 248.551L94.3062 248.537ZM94.2766 235.664C93.5515 235.664 92.8265 235.856 92.1755 236.226C91.1989 236.788 90.5035 237.691 90.2075 238.786C89.9116 239.881 90.0596 241.005 90.6218 241.982C91.776 243.994 94.3653 244.69 96.3777 243.521C97.3542 242.958 98.0497 242.056 98.3456 240.961C98.6415 239.866 98.4936 238.741 97.9313 237.765C97.369 236.788 96.4516 236.093 95.3715 235.797C95.0016 235.693 94.6465 235.649 94.2766 235.649V235.664Z" fill="#267E99"/>
<path d="M257.23 176.73C257.23 175.501 256.239 174.51 255.01 174.51H253.856C251.785 174.037 250.216 172.187 250.216 169.982V153.203C250.216 149.016 246.813 145.627 242.641 145.627H235.568C235.257 142.742 234.843 139.886 234.295 137.045C233.082 137.667 231.765 137.992 230.419 137.992C230.271 137.992 230.108 137.978 229.96 137.963C231.144 144.103 231.75 150.347 231.75 156.651C231.75 185.889 219.07 213.025 196.949 231.121C195.839 232.024 194.656 232.838 193.442 233.578C194.523 234.599 195.366 235.871 195.81 237.321C197.171 236.478 198.503 235.575 199.76 234.539C208.979 226.993 216.614 217.923 222.488 207.847C222.71 207.92 222.947 207.98 223.198 207.98H240.036C245.052 207.98 249.121 203.896 249.121 198.895V182.115C249.121 180.384 250.527 178.979 252.258 178.979H253.56C254.034 179.053 254.507 179.097 254.996 179.097C255.928 179.097 256.682 178.52 256.993 177.706C257.126 177.41 257.215 177.099 257.215 176.759L257.23 176.73ZM244.697 182.101V198.88C244.697 201.44 242.611 203.526 240.051 203.526H224.87C232.224 189.321 236.204 173.312 236.204 156.636C236.204 154.431 236.101 152.241 235.967 150.066H242.67C244.401 150.066 245.807 151.472 245.807 153.203V169.982C245.807 172.231 246.621 174.273 247.997 175.857C246.014 177.233 244.712 179.511 244.712 182.086L244.697 182.101Z" fill="#5B9EB3"/>
<path d="M179.031 238.402C178.039 238.49 177.033 238.549 176.027 238.549H105.788C104.782 238.549 103.791 238.505 102.799 238.402C103.006 239.63 102.962 240.887 102.637 242.115C102.577 242.352 102.459 242.574 102.37 242.811C103.51 242.914 104.649 242.974 105.788 242.974H176.027C177.166 242.974 178.291 242.914 179.415 242.811C179.075 241.893 178.883 240.902 178.883 239.866C178.883 239.363 178.942 238.875 179.016 238.387L179.031 238.402Z" fill="#5B9EB3"/>
<path d="M187.553 248.537C192.334 248.537 196.209 244.662 196.209 239.882C196.209 235.101 192.334 231.226 187.553 231.226C182.773 231.226 178.897 235.101 178.897 239.882C178.897 244.662 182.773 248.537 187.553 248.537Z" fill="#267E99"/>
</g>
<defs>
<clipPath id="clip0_3807_5000">
<rect width="214.46" height="197.074" fill="white" transform="translate(42.77 51.4629)"/>
</clipPath>
</defs>
</svg>
