<svg width="300" height="300" viewBox="0 0 300 300" fill="none" xmlns="http://www.w3.org/2000/svg">
<path d="M151.73 195.68L157.21 188.6C157.61 188.08 157.68 187.38 157.39 186.8C157.1 186.21 156.51 185.84 155.85 185.84H144.89C144.24 185.84 143.64 186.21 143.35 186.8C143.06 187.39 143.13 188.09 143.53 188.6L149.01 195.68L143.53 202.76C143.13 203.28 143.06 203.98 143.35 204.56C143.64 205.15 144.23 205.52 144.89 205.52H155.85C156.5 205.52 157.1 205.15 157.39 204.56C157.68 203.97 157.61 203.27 157.21 202.76L151.73 195.68ZM152.36 189.27L150.37 191.84L148.38 189.27H152.36ZM148.38 202.1L150.37 199.53L152.36 202.1H148.38Z" fill="#398583"/>
<path d="M236.638 246.713C242.435 245.217 245.921 239.305 244.425 233.508C242.93 227.711 237.018 224.225 231.221 225.721C225.424 227.216 221.937 233.128 223.433 238.925C224.929 244.722 230.841 248.209 236.638 246.713Z" fill="#398583"/>
<path d="M235.6 186.39L203.63 154.42C203.15 153.94 202.49 153.67 201.81 153.67H172.24C173.02 151.62 173.51 149.46 173.69 147.23H200.68C201.36 147.23 202.02 146.96 202.5 146.48L234.47 114.51C234.95 114.03 235.22 113.37 235.22 112.69V72.9C235.22 72.78 235.2 72.67 235.19 72.56C234.41 72.74 233.61 72.84 232.78 72.84C231.86 72.84 230.97 72.71 230.12 72.5C230.1 72.63 230.08 72.77 230.08 72.91V111.63L199.61 142.1H173.5C173.36 141.09 173.16 140.11 172.89 139.15L201.78 110.26C202.26 109.78 202.53 109.12 202.53 108.44V61.35C202.53 60.67 202.26 60.01 201.78 59.53L173.02 30.75C172.02 29.75 170.39 29.75 169.38 30.75C168.38 31.75 168.38 33.38 169.38 34.39L197.4 62.41V107.36L170.79 133.97C168.6 130.07 165.34 126.85 161.4 124.74L164.01 120.55C164.39 119.95 164.35 119.17 163.92 118.61L158.24 111.12C157.67 110.37 156.59 110.22 155.84 110.79C155.09 111.36 154.94 112.44 155.51 113.19L160.48 119.74L158.22 123.35C155.76 122.47 153.13 121.97 150.37 121.97C147.61 121.97 145.14 122.44 142.75 123.27L140.5 119.73L145.46 113.19C146.03 112.44 145.89 111.36 145.13 110.79C144.38 110.22 143.3 110.37 142.73 111.12L137.05 118.61C136.62 119.18 136.58 119.96 136.97 120.57L139.56 124.64C135.57 126.73 132.27 129.93 130.04 133.84L103.57 107.36V62.41L131.59 34.39C132.59 33.39 132.59 31.76 131.59 30.75C130.59 29.75 128.96 29.75 127.95 30.75L99.18 59.52C98.7 60 98.43 60.66 98.43 61.34V108.42C98.43 109.1 98.7 109.76 99.18 110.24L127.89 138.96C127.6 139.98 127.38 141.02 127.23 142.09H101.35L70.88 111.62V72.9C70.88 72.8 70.86 72.71 70.85 72.62C70.05 72.81 69.22 72.92 68.36 72.92C67.5 72.92 66.6 72.8 65.77 72.59C65.76 72.69 65.74 72.79 65.74 72.9V112.69C65.74 113.37 66.01 114.03 66.49 114.51L98.46 146.48C98.94 146.96 99.6 147.23 100.28 147.23H127.05C127.22 149.45 127.71 151.61 128.5 153.67H99.15C98.47 153.67 97.81 153.94 97.33 154.42L65.36 186.39C64.88 186.87 64.61 187.53 64.61 188.21V226.68C65.33 226.53 66.07 226.45 66.84 226.45C67.85 226.45 68.83 226.6 69.76 226.86V189.27L100.23 158.81H128.59C124.68 161.79 121.47 165.51 119.09 169.71C119.01 169.77 118.92 169.8 118.85 169.87L98.07 190.65C97.59 191.13 97.32 191.79 97.32 192.47V239.55C97.32 240.23 97.59 240.89 98.07 241.37L126.84 270.14C127.34 270.64 128 270.89 128.66 270.89C129.32 270.89 129.98 270.64 130.48 270.14C131.48 269.14 131.48 267.51 130.48 266.5L102.46 238.48V193.53L114.97 181.02C114.58 183.13 114.38 185.28 114.38 187.47C114.38 207.33 130.53 223.48 150.39 223.48C170.25 223.48 186.4 207.33 186.4 187.47C186.4 185.19 186.18 182.95 185.76 180.75L198.54 193.53V238.48L170.52 266.5C169.52 267.5 169.52 269.13 170.52 270.14C171.02 270.64 171.68 270.89 172.34 270.89C173 270.89 173.66 270.64 174.16 270.14L202.93 241.37C203.41 240.89 203.68 240.23 203.68 239.55V192.47C203.68 191.79 203.41 191.13 202.93 190.65L182.15 169.87C181.97 169.69 181.76 169.58 181.55 169.47C179.18 165.37 176.02 161.73 172.19 158.81H200.77L231.24 189.27V225.71C232.11 225.48 233.02 225.35 233.97 225.35C234.8 225.35 235.61 225.45 236.39 225.63V188.2C236.39 187.52 236.12 186.86 235.64 186.38L235.6 186.39ZM181.24 187.47C181.24 204.49 167.39 218.34 150.37 218.34C133.35 218.34 119.5 204.49 119.5 187.47C119.5 176.31 125.56 165.99 135.31 160.53C135.97 160.16 136.43 159.52 136.58 158.79C136.73 158.05 136.54 157.29 136.07 156.69C133.5 153.44 132.14 149.55 132.12 145.43C132.2 145.19 132.25 144.93 132.25 144.66C132.25 144.46 132.22 144.28 132.18 144.09C132.84 134.62 140.74 127.11 150.37 127.11C160 127.11 168.62 135.3 168.62 145.37C168.62 149.51 167.25 153.43 164.67 156.69C164.2 157.28 164.02 158.05 164.16 158.79C164.31 159.53 164.77 160.17 165.43 160.53C175.18 165.99 181.24 176.32 181.24 187.47Z" fill="#07C7C2"/>
<path d="M232.79 72.84C226.81 72.84 221.95 67.98 221.95 62C221.95 56.02 226.81 51.16 232.79 51.16C238.77 51.16 243.63 56.02 243.63 62C243.63 67.98 238.77 72.84 232.79 72.84ZM232.79 56.3C229.65 56.3 227.09 58.86 227.09 62C227.09 65.14 229.65 67.7 232.79 67.7C235.93 67.7 238.49 65.14 238.49 62C238.49 58.86 235.93 56.3 232.79 56.3Z" fill="#398583"/>
<path d="M68.37 72.92C74.3568 72.92 79.21 68.0668 79.21 62.08C79.21 56.0932 74.3568 51.24 68.37 51.24C62.3832 51.24 57.53 56.0932 57.53 62.08C57.53 68.0668 62.3832 72.92 68.37 72.92Z" fill="#398583"/>
<path d="M66.84 248.13C60.86 248.13 56 243.27 56 237.29C56 231.31 60.86 226.45 66.84 226.45C72.82 226.45 77.68 231.31 77.68 237.29C77.68 243.27 72.82 248.13 66.84 248.13ZM66.84 231.59C63.7 231.59 61.14 234.15 61.14 237.29C61.14 240.43 63.7 242.99 66.84 242.99C69.98 242.99 72.54 240.43 72.54 237.29C72.54 234.15 69.98 231.59 66.84 231.59Z" fill="#398583"/>
</svg>
