<svg width="300" height="300" viewBox="0 0 300 300" fill="none" xmlns="http://www.w3.org/2000/svg">
<path d="M231.358 211.112C230.538 211.112 229.718 211.002 228.908 210.792C226.478 210.142 224.448 208.582 223.188 206.402C221.928 204.222 221.598 201.682 222.248 199.252C222.898 196.822 224.458 194.792 226.638 193.532C228.818 192.272 231.358 191.942 233.788 192.592C236.218 193.242 238.248 194.802 239.508 196.982C240.768 199.162 241.098 201.702 240.448 204.132C239.798 206.562 238.238 208.592 236.058 209.852C234.608 210.692 232.998 211.122 231.358 211.122V211.112ZM231.338 197.112C230.548 197.112 229.768 197.322 229.058 197.722C227.998 198.332 227.248 199.312 226.928 200.492C226.608 201.672 226.778 202.902 227.388 203.962C227.998 205.022 228.988 205.772 230.158 206.092C231.338 206.412 232.568 206.242 233.628 205.632C234.688 205.022 235.438 204.042 235.758 202.862C236.078 201.682 235.908 200.452 235.298 199.392C234.688 198.332 233.698 197.582 232.528 197.262C232.138 197.152 231.738 197.102 231.338 197.102V197.112Z" fill="#FF456A"/>
<path d="M202.528 127.132C189.928 127.132 179.718 137.342 179.718 149.942C179.718 162.542 189.928 172.752 202.528 172.752C215.128 172.752 225.338 162.542 225.338 149.942C225.338 137.342 215.128 127.132 202.528 127.132ZM203.638 155.432C200.608 156.042 197.658 154.072 197.048 151.042C196.438 148.012 198.408 145.062 201.438 144.452C202.128 144.312 202.808 144.322 203.468 144.432C203.468 144.492 203.468 144.542 203.488 144.602C203.958 146.942 205.828 148.632 208.048 149.012C208.548 151.982 206.618 154.832 203.638 155.432Z" fill="#1D1032"/>
<path d="M96.6684 127.142C84.0684 127.142 73.8585 137.352 73.8585 149.952C73.8585 162.552 84.0684 172.762 96.6684 172.762C109.268 172.762 119.478 162.552 119.478 149.952C119.478 137.352 109.268 127.142 96.6684 127.142ZM97.7785 155.442C94.7485 156.052 91.7985 154.082 91.1885 151.052C90.5785 148.022 92.5485 145.072 95.5785 144.462C96.2685 144.322 96.9485 144.332 97.6085 144.442C97.6085 144.502 97.6084 144.552 97.6284 144.612C98.0984 146.952 99.9685 148.642 102.188 149.022C102.688 151.992 100.758 154.842 97.7785 155.442Z" fill="#1D1032"/>
<path d="M149.458 90.1815C140.398 90.1815 133.018 97.1315 133.018 105.672C133.018 114.212 140.388 121.162 149.458 121.162C158.528 121.162 165.888 114.212 165.888 105.672C165.888 97.1315 158.518 90.1815 149.458 90.1815ZM149.458 117.862C148.318 117.862 146.858 116.032 145.908 112.872C147.018 112.972 148.148 113.032 149.288 113.032C150.538 113.032 151.788 112.962 153.018 112.832C152.068 116.012 150.608 117.852 149.458 117.852V117.862ZM149.288 109.802C147.828 109.802 146.458 109.712 145.198 109.552C145.038 108.362 144.938 107.062 144.938 105.672C144.938 104.282 145.028 102.982 145.198 101.802C146.458 101.642 147.818 101.552 149.288 101.552C150.888 101.552 152.368 101.662 153.728 101.852C153.888 103.032 153.978 104.302 153.978 105.672C153.978 107.042 153.888 108.322 153.728 109.502C152.378 109.692 150.898 109.802 149.288 109.802ZM136.548 105.672C136.548 104.652 138.518 103.302 141.858 102.432C141.758 103.472 141.698 104.552 141.698 105.672C141.698 106.792 141.758 107.872 141.858 108.912C138.518 108.042 136.548 106.692 136.548 105.672ZM149.458 93.4815C150.608 93.4815 152.068 95.3215 153.018 98.5015C151.788 98.3715 150.538 98.3015 149.288 98.3015C148.158 98.3015 147.028 98.3615 145.908 98.4615C146.858 95.3015 148.318 93.4715 149.458 93.4715V93.4815ZM157.058 102.522C160.178 103.392 162.018 104.682 162.018 105.662C162.018 106.642 160.178 107.932 157.058 108.802C157.158 107.792 157.208 106.742 157.208 105.662C157.208 104.582 157.158 103.532 157.058 102.522ZM161.558 100.802C160.138 100.042 158.408 99.4515 156.498 99.0415C156.108 97.3315 155.578 95.8015 154.918 94.5315C157.878 95.7915 160.258 98.0315 161.568 100.802H161.558ZM143.988 94.5315C143.338 95.7915 142.808 97.2915 142.418 98.9715C140.578 99.3415 138.878 99.8815 137.468 100.562C138.788 97.8915 141.108 95.7415 143.988 94.5215V94.5315ZM137.468 110.782C138.888 111.472 140.578 112.002 142.418 112.372C142.808 114.052 143.338 115.552 143.988 116.812C141.108 115.592 138.788 113.442 137.468 110.772V110.782ZM154.908 116.822C155.568 115.542 156.098 114.022 156.488 112.312C158.398 111.902 160.138 111.302 161.548 110.552C160.248 113.332 157.868 115.572 154.898 116.832L154.908 116.822Z" fill="#1D1032"/>
<path d="M145.478 197.232C144.588 197.232 143.858 196.512 143.858 195.612V188.132C143.858 187.242 144.578 186.512 145.478 186.512C146.378 186.512 147.098 187.232 147.098 188.132V195.612C147.098 196.502 146.378 197.232 145.478 197.232Z" fill="#FF456A"/>
<path d="M153.718 197.232C152.828 197.232 152.098 196.512 152.098 195.612V188.132C152.098 187.242 152.818 186.512 153.718 186.512C154.618 186.512 155.338 187.232 155.338 188.132V195.612C155.338 196.502 154.618 197.232 153.718 197.232Z" fill="#FF456A"/>
<path d="M177.218 223.732C176.698 223.732 176.178 223.482 175.868 223.012L169.688 213.722C169.188 212.982 169.398 211.972 170.138 211.482C170.878 210.992 171.888 211.192 172.378 211.932L178.558 221.222C179.058 221.962 178.848 222.972 178.108 223.462C177.828 223.642 177.518 223.732 177.218 223.732Z" fill="#FF456A"/>
<path d="M180.648 210.012C180.128 210.012 179.608 209.762 179.298 209.292L177.358 206.372C176.858 205.632 177.068 204.622 177.808 204.132C178.548 203.642 179.558 203.842 180.048 204.582L181.988 207.502C182.488 208.242 182.278 209.252 181.538 209.742C181.258 209.922 180.948 210.012 180.648 210.012Z" fill="#FF456A"/>
<path d="M195.188 215.902C194.668 215.902 194.148 215.652 193.838 215.182L187.008 204.912C186.508 204.172 186.718 203.162 187.458 202.672C188.198 202.182 189.208 202.382 189.698 203.122L196.528 213.392C197.028 214.132 196.818 215.142 196.078 215.632C195.798 215.812 195.488 215.902 195.188 215.902Z" fill="#FF456A"/>
<path d="M121.988 223.732C121.678 223.732 121.368 223.642 121.098 223.462C120.358 222.962 120.148 221.962 120.648 221.222L126.828 211.932C127.328 211.192 128.328 210.982 129.068 211.482C129.808 211.982 130.018 212.982 129.518 213.722L123.338 223.012C123.028 223.482 122.508 223.732 121.988 223.732Z" fill="#FF456A"/>
<path d="M118.558 210.012C118.248 210.012 117.938 209.922 117.668 209.742C116.928 209.242 116.718 208.242 117.218 207.502L119.158 204.582C119.658 203.842 120.658 203.632 121.398 204.132C122.138 204.632 122.348 205.632 121.848 206.372L119.908 209.292C119.598 209.762 119.078 210.012 118.558 210.012Z" fill="#FF456A"/>
<path d="M104.008 215.902C103.698 215.902 103.388 215.812 103.118 215.632C102.378 215.132 102.168 214.132 102.668 213.392L109.498 203.122C109.988 202.382 110.998 202.172 111.738 202.672C112.478 203.172 112.688 204.172 112.188 204.912L105.358 215.182C105.048 215.652 104.528 215.902 104.008 215.902Z" fill="#FF456A"/>
<path d="M95.6785 182.862C77.5285 182.862 62.7685 168.102 62.7685 149.952C62.7685 131.802 77.5285 117.042 95.6785 117.042C113.828 117.042 128.588 131.802 128.588 149.952C128.588 168.102 113.828 182.862 95.6785 182.862ZM95.6785 120.282C79.3185 120.282 66.0085 133.592 66.0085 149.952C66.0085 166.312 79.3185 179.622 95.6785 179.622C112.038 179.622 125.348 166.312 125.348 149.952C125.348 133.592 112.038 120.282 95.6785 120.282Z" fill="#FF456A"/>
<path d="M201.528 182.862C183.378 182.862 168.618 168.102 168.618 149.952C168.618 131.802 183.378 117.042 201.528 117.042C219.678 117.042 234.438 131.802 234.438 149.952C234.438 168.102 219.678 182.862 201.528 182.862ZM201.528 120.282C185.168 120.282 171.858 133.592 171.858 149.952C171.858 166.312 185.168 179.622 201.528 179.622C217.888 179.622 231.198 166.312 231.198 149.952C231.198 133.592 217.888 120.282 201.528 120.282Z" fill="#FF456A"/>
<path d="M172.758 110.462C171.978 110.462 171.288 109.892 171.158 109.092C171.018 108.212 171.618 107.382 172.498 107.242C172.618 107.222 184.638 105.192 194.498 94.8315C195.118 94.1815 196.138 94.1615 196.788 94.7715C197.438 95.3915 197.458 96.4115 196.848 97.0615C186.198 108.252 173.538 110.352 173.008 110.432C172.928 110.442 172.838 110.452 172.758 110.452V110.462Z" fill="#FF456A"/>
<path d="M174.708 101.932C173.928 101.932 173.238 101.362 173.108 100.562C172.968 99.6815 173.568 98.8515 174.448 98.7115C174.508 98.7115 180.148 97.7315 184.768 92.8715C185.388 92.2315 186.408 92.2015 187.058 92.8115C187.708 93.4315 187.728 94.4515 187.118 95.1015C181.708 100.792 175.228 101.862 174.958 101.902C174.868 101.912 174.788 101.922 174.708 101.922V101.932Z" fill="#FF456A"/>
<path d="M176.638 93.5515C176.428 93.5515 176.218 93.5215 176.028 93.4415C175.818 93.3615 175.658 93.2315 175.498 93.0815C175.188 92.7715 175.028 92.3715 175.028 91.9315C175.028 91.4915 175.188 91.0915 175.498 90.8015C176.098 90.1915 177.178 90.1915 177.778 90.8015C178.088 91.0915 178.268 91.5115 178.268 91.9315C178.268 92.1615 178.218 92.3515 178.138 92.5415C178.058 92.7515 177.948 92.9315 177.778 93.0715C177.628 93.2215 177.458 93.3515 177.258 93.4315C177.068 93.5115 176.858 93.5415 176.648 93.5415L176.638 93.5515Z" fill="#FF456A"/>
<path d="M126.148 110.462C126.068 110.462 125.978 110.462 125.898 110.442C125.368 110.352 112.708 108.252 102.058 97.0715C101.438 96.4215 101.468 95.4015 102.118 94.7815C102.768 94.1715 103.788 94.1915 104.408 94.8415C114.268 105.202 126.288 107.232 126.408 107.252C127.288 107.392 127.888 108.222 127.748 109.102C127.618 109.902 126.938 110.472 126.148 110.472V110.462Z" fill="#FF456A"/>
<path d="M124.208 101.932C124.128 101.932 124.038 101.932 123.958 101.912C123.688 101.872 117.208 100.792 111.798 95.1115C111.178 94.4615 111.208 93.4415 111.858 92.8215C112.508 92.2115 113.528 92.2315 114.148 92.8815C118.808 97.7815 124.408 98.7115 124.468 98.7215C125.348 98.8615 125.958 99.6915 125.818 100.572C125.688 101.372 125.008 101.942 124.218 101.942L124.208 101.932Z" fill="#FF456A"/>
<path d="M122.278 93.5515C122.068 93.5515 121.858 93.5215 121.668 93.4415C121.458 93.3615 121.298 93.2315 121.138 93.0815C120.828 92.7715 120.668 92.3715 120.668 91.9315C120.668 91.4915 120.828 91.0915 121.138 90.8015C121.738 90.1915 122.818 90.1915 123.418 90.8015C123.728 91.0915 123.908 91.5115 123.908 91.9315C123.908 92.1615 123.858 92.3515 123.778 92.5415C123.698 92.7515 123.588 92.9315 123.418 93.0715C123.268 93.2215 123.098 93.3515 122.898 93.4315C122.708 93.5115 122.498 93.5415 122.288 93.5415L122.278 93.5515Z" fill="#FF456A"/>
<path d="M69.3285 211.112C68.5085 211.112 67.6885 211.002 66.8785 210.792C64.4485 210.142 62.4185 208.582 61.1585 206.402C59.8985 204.222 59.5685 201.682 60.2185 199.252C60.8685 196.822 62.4285 194.792 64.6085 193.532C66.7885 192.272 69.3285 191.942 71.7585 192.592C74.1885 193.242 76.2185 194.802 77.4785 196.982C78.7385 199.162 79.0685 201.702 78.4185 204.132C77.7685 206.562 76.2085 208.592 74.0285 209.852C72.5785 210.692 70.9685 211.122 69.3285 211.122V211.112ZM69.3085 197.112C68.5185 197.112 67.7385 197.322 67.0285 197.722C65.9685 198.332 65.2185 199.312 64.8985 200.492C64.5785 201.672 64.7485 202.902 65.3585 203.962C65.9685 205.022 66.9585 205.772 68.1285 206.092C69.3085 206.412 70.5385 206.242 71.5985 205.632C72.6585 205.022 73.4085 204.042 73.7285 202.862C74.0485 201.682 73.8785 200.452 73.2685 199.392C72.6585 198.332 71.6685 197.582 70.4985 197.262C70.1085 197.152 69.7085 197.102 69.3085 197.102V197.112Z" fill="#FF456A"/>
<path d="M231.358 211.112C230.538 211.112 229.718 211.002 228.908 210.792C228.578 210.702 228.248 210.592 227.928 210.472C228.058 211.272 228.158 212.022 228.198 212.702C224.308 212.592 218.028 211.972 215.348 209.882C214.498 209.212 213.308 209.192 212.428 209.822C211.548 210.452 211.198 211.592 211.558 212.602C212.558 215.422 213.588 218.892 214.058 221.122C209.668 220.582 205.718 219.632 204.778 218.832C204.338 217.842 203.298 217.242 202.188 217.412C200.998 217.592 200.128 218.612 200.128 219.812C200.128 223.132 199.778 226.602 199.308 228.452L193.138 225.922C192.388 225.612 191.538 225.702 190.868 226.152C190.198 226.602 189.788 227.362 189.788 228.172C189.788 231.332 189.348 234.802 188.828 236.112C186.528 236.042 181.988 235.402 180.508 232.942C179.868 231.872 178.518 231.472 177.388 232.012C176.258 232.552 175.728 233.862 176.158 235.042C176.228 235.242 177.718 239.452 175.608 243.072C172.458 242.082 169.198 240.882 168.358 240.292C167.488 239.242 166.258 239.142 165.378 239.542C163.478 240.402 163.938 242.272 164.268 243.622C165.158 247.242 165.248 249.052 165.138 249.962C162.218 249.502 159.228 248.482 158.598 247.372C157.588 245.582 156.338 245.422 155.458 245.602C153.508 246.012 153.318 247.892 153.148 249.552C152.898 252.042 152.458 256.412 149.578 259.412C146.708 256.412 146.258 252.042 146.008 249.552C145.838 247.892 145.648 246.012 143.698 245.602C142.818 245.412 141.568 245.572 140.568 247.372C139.938 248.482 136.948 249.502 134.028 249.962C133.918 249.052 134.008 247.242 134.898 243.622C135.228 242.262 135.688 240.402 133.788 239.542C132.908 239.142 131.678 239.232 130.808 240.292C129.968 240.872 126.708 242.082 123.558 243.072C121.448 239.442 122.938 235.232 123.008 235.052C123.448 233.882 122.918 232.562 121.788 232.012C120.658 231.462 119.298 231.872 118.648 232.942C117.158 235.412 112.618 236.042 110.328 236.112C109.808 234.812 109.368 231.332 109.368 228.172C109.368 227.362 108.968 226.602 108.288 226.152C107.618 225.702 106.758 225.612 106.018 225.922L99.8484 228.452C99.3784 226.602 99.0285 223.132 99.0285 219.812C99.0285 218.612 98.1485 217.592 96.9685 217.412C95.8685 217.242 94.8184 217.842 94.3784 218.832C93.4384 219.632 89.4985 220.582 85.1085 221.122C85.5785 218.882 86.5885 215.472 87.6085 212.602C87.9685 211.582 87.6084 210.452 86.7384 209.822C85.8584 209.192 84.6785 209.212 83.8285 209.882C81.1485 211.982 74.8685 212.592 70.9785 212.702C71.0085 212.152 71.0885 211.542 71.1785 210.912C70.5585 211.042 69.9285 211.122 69.2985 211.122C68.4785 211.122 67.6585 211.012 66.8485 210.802C66.6685 210.752 66.4985 210.692 66.3285 210.632C66.0885 212.482 66.0285 214.292 66.3585 215.692C66.6085 216.762 67.5485 217.532 68.6585 217.562C69.6085 217.592 75.9385 217.702 81.3485 216.222C80.4185 219.442 79.7185 222.782 80.1685 224.462C80.4685 225.592 81.5385 226.352 82.6985 226.252C87.7185 225.872 91.6085 225.182 94.3285 224.192C94.6985 229.362 95.7685 232.512 97.5485 233.592C98.2085 233.992 99.0184 234.062 99.7384 233.762L104.658 231.742C105.268 240.422 108.138 240.802 109.158 240.942C109.238 240.952 109.308 240.962 109.388 240.962C110.048 240.992 113.998 241.072 117.658 239.602C117.808 242.082 118.598 244.942 120.828 247.492C121.448 248.202 122.428 248.492 123.338 248.222C125.918 247.462 127.898 246.802 129.418 246.222C128.968 249.132 128.978 252.412 131.008 254.342C131.508 254.812 132.188 255.052 132.878 255.002C133.978 254.912 138.238 254.462 141.528 252.692C142.098 256.322 143.548 261.322 148.208 264.602C148.288 264.662 148.378 264.702 148.458 264.752C148.478 264.762 148.498 264.772 148.508 264.782C148.658 264.862 148.828 264.912 148.988 264.962C149.018 264.962 149.058 264.982 149.088 264.982C149.258 265.022 149.428 265.042 149.598 265.042C149.768 265.042 149.938 265.022 150.098 264.982C150.138 264.982 150.168 264.962 150.208 264.962C150.368 264.922 150.528 264.862 150.678 264.792C150.698 264.782 150.718 264.762 150.738 264.752C150.818 264.712 150.908 264.662 150.988 264.602C155.638 261.332 157.088 256.352 157.658 252.722C160.928 254.462 165.208 254.912 166.318 255.002C167.008 255.052 167.688 254.822 168.188 254.342C170.218 252.422 170.228 249.132 169.778 246.222C171.298 246.792 173.278 247.462 175.858 248.222C176.768 248.492 177.748 248.202 178.368 247.492C180.598 244.942 181.378 242.082 181.538 239.602C185.198 241.072 189.148 240.992 189.808 240.962C189.888 240.962 189.958 240.962 190.038 240.942C191.058 240.802 193.918 240.422 194.538 231.742L199.458 233.762C200.178 234.062 200.988 233.992 201.648 233.592C203.418 232.512 204.498 229.352 204.868 224.192C207.588 225.182 211.478 225.872 216.498 226.252C217.658 226.332 218.728 225.582 219.028 224.462C219.478 222.792 218.778 219.442 217.848 216.222C223.268 217.702 229.598 217.602 230.538 217.562C231.638 217.532 232.578 216.762 232.838 215.692C233.148 214.382 233.118 212.712 232.908 210.982C232.398 211.072 231.888 211.122 231.368 211.122L231.358 211.112Z" fill="#1D1032"/>
<path d="M279.138 37.2815C278.918 36.3715 278.198 35.6715 277.278 35.4815C275.358 35.0715 229.778 25.9015 201.268 58.7515C201.118 58.9115 199.998 60.1615 198.528 62.1315C186.078 56.0615 172.408 52.3615 158.478 51.2515C158.808 52.7215 158.788 54.2615 158.388 55.7615C158.358 55.8815 158.308 55.9915 158.278 56.1115C171.298 57.1715 184.068 60.5915 195.748 66.1815C192.708 71.0115 189.658 77.5015 190.208 83.5115C190.328 84.8515 191.518 85.8215 192.848 85.7115C194.188 85.5915 195.168 84.4115 195.048 83.0715C194.218 73.9315 204.778 62.1415 204.918 61.9815C226.448 37.1415 259.548 38.1915 271.648 39.5515C265.608 46.4415 257.088 59.7915 246.258 79.3815C236.598 96.8615 222.808 104.892 220.748 106.022C220.718 106.022 220.698 106.032 220.668 106.042L183.068 113.782C182.378 113.922 181.708 114.082 181.028 114.252C180.688 114.342 180.348 114.442 180.008 114.532C179.698 114.622 179.398 114.702 179.088 114.792C178.618 114.932 178.148 115.092 177.688 115.242C177.548 115.292 177.398 115.342 177.258 115.392C167.988 118.632 160.068 124.782 154.568 133.162C154.498 133.262 154.448 133.372 154.398 133.482C152.418 136.542 150.808 139.852 149.608 143.332C148.408 139.852 146.798 136.542 144.818 133.482C144.768 133.372 144.708 133.262 144.648 133.162C139.148 124.792 131.228 118.632 121.958 115.392C121.818 115.342 121.668 115.292 121.528 115.242C121.068 115.082 120.598 114.932 120.128 114.792C119.828 114.702 119.518 114.622 119.208 114.532C118.868 114.432 118.528 114.332 118.188 114.252C117.518 114.082 116.838 113.922 116.148 113.782L78.7685 106.082L78.6485 106.052C78.5885 106.042 78.5285 106.022 78.4685 106.012C76.3985 104.882 62.6185 96.8415 52.9585 79.3715C42.1185 59.7915 33.5985 46.4415 27.5585 39.5515C39.6585 38.1915 72.7585 37.1415 94.3385 62.0115C97.3085 65.2915 104.868 75.4515 104.168 83.0615C104.048 84.4015 105.028 85.5815 106.368 85.7015C107.678 85.8015 108.888 84.8415 109.008 83.5015C109.558 77.4815 106.498 70.9915 103.468 66.1715C114.958 60.6715 127.508 57.2715 140.308 56.1615C139.808 54.6015 139.738 52.9315 140.098 51.3015C126.388 52.4715 112.948 56.1615 100.678 62.1315C99.2185 60.1815 98.1085 58.9415 97.9685 58.7915C69.4285 25.8915 23.8485 35.0715 21.9285 35.4815C21.0185 35.6715 20.2885 36.3715 20.0685 37.2815C19.8485 38.1915 20.1685 39.1415 20.8885 39.7315C24.7185 42.8615 32.6385 52.6915 48.6985 81.7315C50.3685 84.7515 52.1485 87.5015 53.9685 90.0015C53.9285 90.0515 53.8685 90.0915 53.8285 90.1415C53.1185 91.0215 51.7985 92.5515 50.1685 94.4315C41.9585 103.922 34.5085 112.742 33.5485 116.472C33.2685 117.562 33.7685 118.702 34.7685 119.222L39.8585 121.912C37.2985 126.422 32.9185 134.552 32.7485 137.712C32.6885 138.832 33.3985 139.852 34.4785 140.172C34.7785 140.262 36.2685 140.682 38.1585 140.732C34.8885 146.942 31.2785 154.322 31.2785 156.692C31.2785 157.922 32.1985 158.962 33.4285 159.102C33.6185 159.122 37.1685 159.512 40.5685 157.952C42.6885 165.222 48.7585 182.562 61.4485 196.492C62.2485 195.282 63.3085 194.262 64.5985 193.512C64.7585 193.422 64.9285 193.342 65.0885 193.262C49.7885 176.432 44.4485 153.722 44.3885 153.462C44.1885 152.582 43.5185 151.892 42.6585 151.662C41.7885 151.422 40.8685 151.692 40.2485 152.342C39.3585 153.292 38.1685 153.792 37.0685 154.052C38.6485 150.322 41.9685 143.792 45.0285 138.192C45.5785 137.182 45.3485 135.922 44.4685 135.172C43.5885 134.422 42.3085 134.402 41.3985 135.112C40.5885 135.752 39.3485 135.902 38.2185 135.872C39.4985 132.662 42.5085 126.942 45.2985 122.172C45.6285 121.602 45.7185 120.912 45.5385 120.282C45.3585 119.642 44.9185 119.112 44.3385 118.802L39.0485 116.012C41.7285 111.592 49.9985 102.042 53.8285 97.6215C55.1285 96.1215 56.2285 94.8515 56.9985 93.9215C61.4785 99.3215 65.9685 103.272 69.5185 105.952C56.2585 115.142 48.3785 130.072 48.3785 146.262C48.3785 173.322 70.3885 195.332 97.4485 195.332C124.508 195.332 144.468 175.292 146.368 149.962C146.858 152.402 147.128 154.912 147.148 157.472C146.988 172.472 131.258 185.842 131.098 185.982C130.298 186.652 130.018 187.762 130.398 188.732L147.138 231.192C147.538 232.212 148.538 232.802 149.578 232.722C149.638 232.722 149.698 232.722 149.758 232.722C150.728 232.722 151.638 232.142 152.018 231.182L168.758 188.722C169.138 187.752 168.858 186.642 168.058 185.972C167.898 185.832 152.178 172.462 152.008 157.462C152.028 154.902 152.298 152.392 152.788 149.952C154.688 175.282 175.898 195.322 201.708 195.322C227.518 195.322 250.778 173.312 250.778 146.252C250.778 130.062 242.898 115.142 229.638 105.942C233.188 103.262 237.678 99.3115 242.158 93.9115C242.928 94.8315 244.038 96.1115 245.328 97.6115C249.158 102.042 257.418 111.582 260.108 116.002L254.818 118.792C254.228 119.102 253.798 119.632 253.618 120.272C253.438 120.912 253.528 121.592 253.858 122.162C256.658 126.932 259.658 132.652 260.938 135.862C259.818 135.902 258.568 135.742 257.758 135.102C256.848 134.392 255.568 134.422 254.688 135.162C253.808 135.912 253.578 137.172 254.128 138.182C257.208 143.792 260.528 150.342 262.108 154.042C260.998 153.782 259.808 153.282 258.918 152.332C258.308 151.682 257.388 151.412 256.508 151.652C255.638 151.882 254.978 152.582 254.778 153.452C254.718 153.712 249.468 176.022 234.478 192.802C236.058 193.362 237.448 194.332 238.518 195.612C250.678 181.842 256.528 165.072 258.608 157.952C262.008 159.512 265.558 159.122 265.748 159.102C266.968 158.962 267.898 157.922 267.898 156.692C267.898 154.322 264.288 146.942 261.018 140.732C262.908 140.682 264.398 140.262 264.698 140.172C265.778 139.852 266.488 138.832 266.428 137.712C266.258 134.542 261.878 126.412 259.318 121.912L264.408 119.222C265.398 118.702 265.908 117.562 265.628 116.472C264.668 112.752 257.218 103.922 249.008 94.4315C247.378 92.5515 246.058 91.0215 245.348 90.1415C245.308 90.0915 245.258 90.0515 245.208 90.0015C247.028 87.5015 248.808 84.7515 250.478 81.7315C266.538 52.6915 274.468 42.8615 278.288 39.7315C279.008 39.1415 279.328 38.1815 279.108 37.2815H279.138ZM97.4685 190.472C73.0885 190.472 53.2585 170.642 53.2585 146.262C53.2585 131.502 60.5185 117.892 72.7285 109.632C74.2885 110.052 75.7285 110.402 77.0985 110.702C77.1085 110.702 77.1185 110.702 77.1285 110.712L77.6485 110.822C77.6485 110.822 77.7285 110.842 77.7685 110.852L115.168 118.552C115.778 118.682 116.378 118.822 116.978 118.972C117.268 119.042 117.548 119.132 117.838 119.212C118.128 119.292 118.418 119.372 118.708 119.462C119.118 119.582 119.518 119.722 119.918 119.852C120.058 119.902 120.208 119.952 120.348 120.002C120.848 120.172 121.338 120.362 121.828 120.552C121.848 120.552 121.868 120.572 121.888 120.582C129.508 123.622 135.918 128.932 140.378 135.582C141.248 139.072 141.688 142.672 141.688 146.292C141.688 170.672 121.858 190.502 97.4785 190.502L97.4685 190.472ZM163.648 188.522L149.608 224.142L135.568 188.522C138.558 185.742 145.808 178.382 149.608 168.942C153.418 178.372 160.658 185.742 163.648 188.522ZM245.958 146.252C245.958 170.632 226.128 190.462 201.748 190.462C177.368 190.462 157.538 170.632 157.538 146.252C157.538 142.632 157.978 139.032 158.848 135.542C163.308 128.892 169.708 123.582 177.338 120.542C177.358 120.542 177.378 120.522 177.398 120.512C177.888 120.322 178.378 120.132 178.878 119.962C179.018 119.912 179.168 119.862 179.308 119.812C179.708 119.672 180.108 119.542 180.518 119.422C180.808 119.332 181.098 119.252 181.388 119.172C181.678 119.092 181.958 119.012 182.248 118.932C182.848 118.782 183.448 118.642 184.058 118.512L221.458 110.812C221.458 110.812 221.558 110.792 221.608 110.782L222.098 110.682C222.098 110.682 222.118 110.682 222.128 110.672C223.498 110.372 224.938 110.022 226.498 109.602C238.708 117.862 245.968 131.472 245.968 146.232L245.958 146.252Z" fill="#1D1032"/>
<path d="M149.298 62.7515C148.478 62.7515 147.658 62.6415 146.848 62.4315C144.418 61.7815 142.388 60.2215 141.128 58.0415C139.868 55.8615 139.538 53.3215 140.188 50.8915C140.838 48.4615 142.398 46.4315 144.578 45.1715C146.758 43.9115 149.298 43.5815 151.728 44.2315C154.158 44.8815 156.188 46.4415 157.448 48.6215C158.708 50.8015 159.038 53.3415 158.388 55.7715C157.738 58.2015 156.178 60.2315 153.998 61.4915C152.548 62.3315 150.938 62.7615 149.298 62.7615V62.7515ZM149.278 48.7515C148.488 48.7515 147.708 48.9615 146.998 49.3615C145.938 49.9715 145.188 50.9515 144.868 52.1315C144.548 53.3115 144.718 54.5415 145.328 55.6015C146.588 57.7815 149.388 58.5315 151.568 57.2715C152.628 56.6615 153.378 55.6815 153.698 54.5015C154.018 53.3215 153.848 52.0915 153.238 51.0315C152.628 49.9715 151.638 49.2215 150.468 48.9015C150.078 48.7915 149.678 48.7415 149.278 48.7415V48.7515Z" fill="#FF456A"/>
<path d="M231.358 211.112C230.538 211.112 229.718 211.002 228.908 210.792C226.478 210.142 224.448 208.582 223.188 206.402C221.928 204.222 221.598 201.682 222.248 199.252C222.898 196.822 224.458 194.792 226.638 193.532C228.818 192.272 231.358 191.942 233.788 192.592C236.218 193.242 238.248 194.802 239.508 196.982C240.768 199.162 241.098 201.702 240.448 204.132C239.798 206.562 238.238 208.592 236.058 209.852C234.608 210.692 232.998 211.122 231.358 211.122V211.112ZM231.338 197.112C230.548 197.112 229.768 197.322 229.058 197.722C227.998 198.332 227.248 199.312 226.928 200.492C226.608 201.672 226.778 202.902 227.388 203.962C227.998 205.022 228.988 205.772 230.158 206.092C231.338 206.412 232.568 206.242 233.628 205.632C234.688 205.022 235.438 204.042 235.758 202.862C236.078 201.682 235.908 200.452 235.298 199.392C234.688 198.332 233.698 197.582 232.528 197.262C232.138 197.152 231.738 197.102 231.338 197.102V197.112Z" fill="#FF456A"/>
<path d="M202.528 127.132C189.928 127.132 179.718 137.342 179.718 149.942C179.718 162.542 189.928 172.752 202.528 172.752C215.128 172.752 225.338 162.542 225.338 149.942C225.338 137.342 215.128 127.132 202.528 127.132ZM203.638 155.432C200.608 156.042 197.658 154.072 197.048 151.042C196.438 148.012 198.408 145.062 201.438 144.452C202.128 144.312 202.808 144.322 203.468 144.432C203.468 144.492 203.468 144.542 203.488 144.602C203.958 146.942 205.828 148.632 208.048 149.012C208.548 151.982 206.618 154.832 203.638 155.432Z" fill="#1D1032"/>
<path d="M96.6684 127.142C84.0684 127.142 73.8585 137.352 73.8585 149.952C73.8585 162.552 84.0684 172.762 96.6684 172.762C109.268 172.762 119.478 162.552 119.478 149.952C119.478 137.352 109.268 127.142 96.6684 127.142ZM97.7785 155.442C94.7485 156.052 91.7985 154.082 91.1885 151.052C90.5785 148.022 92.5485 145.072 95.5785 144.462C96.2685 144.322 96.9485 144.332 97.6085 144.442C97.6085 144.502 97.6084 144.552 97.6284 144.612C98.0984 146.952 99.9685 148.642 102.188 149.022C102.688 151.992 100.758 154.842 97.7785 155.442Z" fill="#1D1032"/>
<path d="M149.458 90.1815C140.398 90.1815 133.018 97.1315 133.018 105.672C133.018 114.212 140.388 121.162 149.458 121.162C158.528 121.162 165.888 114.212 165.888 105.672C165.888 97.1315 158.518 90.1815 149.458 90.1815ZM149.458 117.862C148.318 117.862 146.858 116.032 145.908 112.872C147.018 112.972 148.148 113.032 149.288 113.032C150.538 113.032 151.788 112.962 153.018 112.832C152.068 116.012 150.608 117.852 149.458 117.852V117.862ZM149.288 109.802C147.828 109.802 146.458 109.712 145.198 109.552C145.038 108.362 144.938 107.062 144.938 105.672C144.938 104.282 145.028 102.982 145.198 101.802C146.458 101.642 147.818 101.552 149.288 101.552C150.888 101.552 152.368 101.662 153.728 101.852C153.888 103.032 153.978 104.302 153.978 105.672C153.978 107.042 153.888 108.322 153.728 109.502C152.378 109.692 150.898 109.802 149.288 109.802ZM136.548 105.672C136.548 104.652 138.518 103.302 141.858 102.432C141.758 103.472 141.698 104.552 141.698 105.672C141.698 106.792 141.758 107.872 141.858 108.912C138.518 108.042 136.548 106.692 136.548 105.672ZM149.458 93.4815C150.608 93.4815 152.068 95.3215 153.018 98.5015C151.788 98.3715 150.538 98.3015 149.288 98.3015C148.158 98.3015 147.028 98.3615 145.908 98.4615C146.858 95.3015 148.318 93.4715 149.458 93.4715V93.4815ZM157.058 102.522C160.178 103.392 162.018 104.682 162.018 105.662C162.018 106.642 160.178 107.932 157.058 108.802C157.158 107.792 157.208 106.742 157.208 105.662C157.208 104.582 157.158 103.532 157.058 102.522ZM161.558 100.802C160.138 100.042 158.408 99.4515 156.498 99.0415C156.108 97.3315 155.578 95.8015 154.918 94.5315C157.878 95.7915 160.258 98.0315 161.568 100.802H161.558ZM143.988 94.5315C143.338 95.7915 142.808 97.2915 142.418 98.9715C140.578 99.3415 138.878 99.8815 137.468 100.562C138.788 97.8915 141.108 95.7415 143.988 94.5215V94.5315ZM137.468 110.782C138.888 111.472 140.578 112.002 142.418 112.372C142.808 114.052 143.338 115.552 143.988 116.812C141.108 115.592 138.788 113.442 137.468 110.772V110.782ZM154.908 116.822C155.568 115.542 156.098 114.022 156.488 112.312C158.398 111.902 160.138 111.302 161.548 110.552C160.248 113.332 157.868 115.572 154.898 116.832L154.908 116.822Z" fill="#1D1032"/>
<path d="M145.478 197.232C144.588 197.232 143.858 196.512 143.858 195.612V188.132C143.858 187.242 144.578 186.512 145.478 186.512C146.378 186.512 147.098 187.232 147.098 188.132V195.612C147.098 196.502 146.378 197.232 145.478 197.232Z" fill="#FF456A"/>
<path d="M153.718 197.232C152.828 197.232 152.098 196.512 152.098 195.612V188.132C152.098 187.242 152.818 186.512 153.718 186.512C154.618 186.512 155.338 187.232 155.338 188.132V195.612C155.338 196.502 154.618 197.232 153.718 197.232Z" fill="#FF456A"/>
<path d="M177.218 223.732C176.698 223.732 176.178 223.482 175.868 223.012L169.688 213.722C169.188 212.982 169.398 211.972 170.138 211.482C170.878 210.992 171.888 211.192 172.378 211.932L178.558 221.222C179.058 221.962 178.848 222.972 178.108 223.462C177.828 223.642 177.518 223.732 177.218 223.732Z" fill="#FF456A"/>
<path d="M180.648 210.012C180.128 210.012 179.608 209.762 179.298 209.292L177.358 206.372C176.858 205.632 177.068 204.622 177.808 204.132C178.548 203.642 179.558 203.842 180.048 204.582L181.988 207.502C182.488 208.242 182.278 209.252 181.538 209.742C181.258 209.922 180.948 210.012 180.648 210.012Z" fill="#FF456A"/>
<path d="M195.188 215.902C194.668 215.902 194.148 215.652 193.838 215.182L187.008 204.912C186.508 204.172 186.718 203.162 187.458 202.672C188.198 202.182 189.208 202.382 189.698 203.122L196.528 213.392C197.028 214.132 196.818 215.142 196.078 215.632C195.798 215.812 195.488 215.902 195.188 215.902Z" fill="#FF456A"/>
<path d="M121.988 223.732C121.678 223.732 121.368 223.642 121.098 223.462C120.358 222.962 120.148 221.962 120.648 221.222L126.828 211.932C127.328 211.192 128.328 210.982 129.068 211.482C129.808 211.982 130.018 212.982 129.518 213.722L123.338 223.012C123.028 223.482 122.508 223.732 121.988 223.732Z" fill="#FF456A"/>
<path d="M118.558 210.012C118.248 210.012 117.938 209.922 117.668 209.742C116.928 209.242 116.718 208.242 117.218 207.502L119.158 204.582C119.658 203.842 120.658 203.632 121.398 204.132C122.138 204.632 122.348 205.632 121.848 206.372L119.908 209.292C119.598 209.762 119.078 210.012 118.558 210.012Z" fill="#FF456A"/>
<path d="M104.008 215.902C103.698 215.902 103.388 215.812 103.118 215.632C102.378 215.132 102.168 214.132 102.668 213.392L109.498 203.122C109.988 202.382 110.998 202.172 111.738 202.672C112.478 203.172 112.688 204.172 112.188 204.912L105.358 215.182C105.048 215.652 104.528 215.902 104.008 215.902Z" fill="#FF456A"/>
<path d="M95.6785 182.862C77.5285 182.862 62.7685 168.102 62.7685 149.952C62.7685 131.802 77.5285 117.042 95.6785 117.042C113.828 117.042 128.588 131.802 128.588 149.952C128.588 168.102 113.828 182.862 95.6785 182.862ZM95.6785 120.282C79.3185 120.282 66.0085 133.592 66.0085 149.952C66.0085 166.312 79.3185 179.622 95.6785 179.622C112.038 179.622 125.348 166.312 125.348 149.952C125.348 133.592 112.038 120.282 95.6785 120.282Z" fill="#FF456A"/>
<path d="M201.528 182.862C183.378 182.862 168.618 168.102 168.618 149.952C168.618 131.802 183.378 117.042 201.528 117.042C219.678 117.042 234.438 131.802 234.438 149.952C234.438 168.102 219.678 182.862 201.528 182.862ZM201.528 120.282C185.168 120.282 171.858 133.592 171.858 149.952C171.858 166.312 185.168 179.622 201.528 179.622C217.888 179.622 231.198 166.312 231.198 149.952C231.198 133.592 217.888 120.282 201.528 120.282Z" fill="#FF456A"/>
<path d="M172.758 110.462C171.978 110.462 171.288 109.892 171.158 109.092C171.018 108.212 171.618 107.382 172.498 107.242C172.618 107.222 184.638 105.192 194.498 94.8315C195.118 94.1815 196.138 94.1615 196.788 94.7715C197.438 95.3915 197.458 96.4115 196.848 97.0615C186.198 108.252 173.538 110.352 173.008 110.432C172.928 110.442 172.838 110.452 172.758 110.452V110.462Z" fill="#FF456A"/>
<path d="M174.708 101.932C173.928 101.932 173.238 101.362 173.108 100.562C172.968 99.6815 173.568 98.8515 174.448 98.7115C174.508 98.7115 180.148 97.7315 184.768 92.8715C185.388 92.2315 186.408 92.2015 187.058 92.8115C187.708 93.4315 187.728 94.4515 187.118 95.1015C181.708 100.792 175.228 101.862 174.958 101.902C174.868 101.912 174.788 101.922 174.708 101.922V101.932Z" fill="#FF456A"/>
<path d="M176.638 93.5515C176.428 93.5515 176.218 93.5215 176.028 93.4415C175.818 93.3615 175.658 93.2315 175.498 93.0815C175.188 92.7715 175.028 92.3715 175.028 91.9315C175.028 91.4915 175.188 91.0915 175.498 90.8015C176.098 90.1915 177.178 90.1915 177.778 90.8015C178.088 91.0915 178.268 91.5115 178.268 91.9315C178.268 92.1615 178.218 92.3515 178.138 92.5415C178.058 92.7515 177.948 92.9315 177.778 93.0715C177.628 93.2215 177.458 93.3515 177.258 93.4315C177.068 93.5115 176.858 93.5415 176.648 93.5415L176.638 93.5515Z" fill="#FF456A"/>
<path d="M126.148 110.462C126.068 110.462 125.978 110.462 125.898 110.442C125.368 110.352 112.708 108.252 102.058 97.0715C101.438 96.4215 101.468 95.4015 102.118 94.7815C102.768 94.1715 103.788 94.1915 104.408 94.8415C114.268 105.202 126.288 107.232 126.408 107.252C127.288 107.392 127.888 108.222 127.748 109.102C127.618 109.902 126.938 110.472 126.148 110.472V110.462Z" fill="#FF456A"/>
<path d="M124.208 101.932C124.128 101.932 124.038 101.932 123.958 101.912C123.688 101.872 117.208 100.792 111.798 95.1115C111.178 94.4615 111.208 93.4415 111.858 92.8215C112.508 92.2115 113.528 92.2315 114.148 92.8815C118.808 97.7815 124.408 98.7115 124.468 98.7215C125.348 98.8615 125.958 99.6915 125.818 100.572C125.688 101.372 125.008 101.942 124.218 101.942L124.208 101.932Z" fill="#FF456A"/>
<path d="M122.278 93.5515C122.068 93.5515 121.858 93.5215 121.668 93.4415C121.458 93.3615 121.298 93.2315 121.138 93.0815C120.828 92.7715 120.668 92.3715 120.668 91.9315C120.668 91.4915 120.828 91.0915 121.138 90.8015C121.738 90.1915 122.818 90.1915 123.418 90.8015C123.728 91.0915 123.908 91.5115 123.908 91.9315C123.908 92.1615 123.858 92.3515 123.778 92.5415C123.698 92.7515 123.588 92.9315 123.418 93.0715C123.268 93.2215 123.098 93.3515 122.898 93.4315C122.708 93.5115 122.498 93.5415 122.288 93.5415L122.278 93.5515Z" fill="#FF456A"/>
<path d="M69.3285 211.112C68.5085 211.112 67.6885 211.002 66.8785 210.792C64.4485 210.142 62.4185 208.582 61.1585 206.402C59.8985 204.222 59.5685 201.682 60.2185 199.252C60.8685 196.822 62.4285 194.792 64.6085 193.532C66.7885 192.272 69.3285 191.942 71.7585 192.592C74.1885 193.242 76.2185 194.802 77.4785 196.982C78.7385 199.162 79.0685 201.702 78.4185 204.132C77.7685 206.562 76.2085 208.592 74.0285 209.852C72.5785 210.692 70.9685 211.122 69.3285 211.122V211.112ZM69.3085 197.112C68.5185 197.112 67.7385 197.322 67.0285 197.722C65.9685 198.332 65.2185 199.312 64.8985 200.492C64.5785 201.672 64.7485 202.902 65.3585 203.962C65.9685 205.022 66.9585 205.772 68.1285 206.092C69.3085 206.412 70.5385 206.242 71.5985 205.632C72.6585 205.022 73.4085 204.042 73.7285 202.862C74.0485 201.682 73.8785 200.452 73.2685 199.392C72.6585 198.332 71.6685 197.582 70.4985 197.262C70.1085 197.152 69.7085 197.102 69.3085 197.102V197.112Z" fill="#FF456A"/>
<path d="M231.358 211.112C230.538 211.112 229.718 211.002 228.908 210.792C228.578 210.702 228.248 210.592 227.928 210.472C228.058 211.272 228.158 212.022 228.198 212.702C224.308 212.592 218.028 211.972 215.348 209.882C214.498 209.212 213.308 209.192 212.428 209.822C211.548 210.452 211.198 211.592 211.558 212.602C212.558 215.422 213.588 218.892 214.058 221.122C209.668 220.582 205.718 219.632 204.778 218.832C204.338 217.842 203.298 217.242 202.188 217.412C200.998 217.592 200.128 218.612 200.128 219.812C200.128 223.132 199.778 226.602 199.308 228.452L193.138 225.922C192.388 225.612 191.538 225.702 190.868 226.152C190.198 226.602 189.788 227.362 189.788 228.172C189.788 231.332 189.348 234.802 188.828 236.112C186.528 236.042 181.988 235.402 180.508 232.942C179.868 231.872 178.518 231.472 177.388 232.012C176.258 232.552 175.728 233.862 176.158 235.042C176.228 235.242 177.718 239.452 175.608 243.072C172.458 242.082 169.198 240.882 168.358 240.292C167.488 239.242 166.258 239.142 165.378 239.542C163.478 240.402 163.938 242.272 164.268 243.622C165.158 247.242 165.248 249.052 165.138 249.962C162.218 249.502 159.228 248.482 158.598 247.372C157.588 245.582 156.338 245.422 155.458 245.602C153.508 246.012 153.318 247.892 153.148 249.552C152.898 252.042 152.458 256.412 149.578 259.412C146.708 256.412 146.258 252.042 146.008 249.552C145.838 247.892 145.648 246.012 143.698 245.602C142.818 245.412 141.568 245.572 140.568 247.372C139.938 248.482 136.948 249.502 134.028 249.962C133.918 249.052 134.008 247.242 134.898 243.622C135.228 242.262 135.688 240.402 133.788 239.542C132.908 239.142 131.678 239.232 130.808 240.292C129.968 240.872 126.708 242.082 123.558 243.072C121.448 239.442 122.938 235.232 123.008 235.052C123.448 233.882 122.918 232.562 121.788 232.012C120.658 231.462 119.298 231.872 118.648 232.942C117.158 235.412 112.618 236.042 110.328 236.112C109.808 234.812 109.368 231.332 109.368 228.172C109.368 227.362 108.968 226.602 108.288 226.152C107.618 225.702 106.758 225.612 106.018 225.922L99.8484 228.452C99.3784 226.602 99.0285 223.132 99.0285 219.812C99.0285 218.612 98.1485 217.592 96.9685 217.412C95.8685 217.242 94.8184 217.842 94.3784 218.832C93.4384 219.632 89.4985 220.582 85.1085 221.122C85.5785 218.882 86.5885 215.472 87.6085 212.602C87.9685 211.582 87.6084 210.452 86.7384 209.822C85.8584 209.192 84.6785 209.212 83.8285 209.882C81.1485 211.982 74.8685 212.592 70.9785 212.702C71.0085 212.152 71.0885 211.542 71.1785 210.912C70.5585 211.042 69.9285 211.122 69.2985 211.122C68.4785 211.122 67.6585 211.012 66.8485 210.802C66.6685 210.752 66.4985 210.692 66.3285 210.632C66.0885 212.482 66.0285 214.292 66.3585 215.692C66.6085 216.762 67.5485 217.532 68.6585 217.562C69.6085 217.592 75.9385 217.702 81.3485 216.222C80.4185 219.442 79.7185 222.782 80.1685 224.462C80.4685 225.592 81.5385 226.352 82.6985 226.252C87.7185 225.872 91.6085 225.182 94.3285 224.192C94.6985 229.362 95.7685 232.512 97.5485 233.592C98.2085 233.992 99.0184 234.062 99.7384 233.762L104.658 231.742C105.268 240.422 108.138 240.802 109.158 240.942C109.238 240.952 109.308 240.962 109.388 240.962C110.048 240.992 113.998 241.072 117.658 239.602C117.808 242.082 118.598 244.942 120.828 247.492C121.448 248.202 122.428 248.492 123.338 248.222C125.918 247.462 127.898 246.802 129.418 246.222C128.968 249.132 128.978 252.412 131.008 254.342C131.508 254.812 132.188 255.052 132.878 255.002C133.978 254.912 138.238 254.462 141.528 252.692C142.098 256.322 143.548 261.322 148.208 264.602C148.288 264.662 148.378 264.702 148.458 264.752C148.478 264.762 148.498 264.772 148.508 264.782C148.658 264.862 148.828 264.912 148.988 264.962C149.018 264.962 149.058 264.982 149.088 264.982C149.258 265.022 149.428 265.042 149.598 265.042C149.768 265.042 149.938 265.022 150.098 264.982C150.138 264.982 150.168 264.962 150.208 264.962C150.368 264.922 150.528 264.862 150.678 264.792C150.698 264.782 150.718 264.762 150.738 264.752C150.818 264.712 150.908 264.662 150.988 264.602C155.638 261.332 157.088 256.352 157.658 252.722C160.928 254.462 165.208 254.912 166.318 255.002C167.008 255.052 167.688 254.822 168.188 254.342C170.218 252.422 170.228 249.132 169.778 246.222C171.298 246.792 173.278 247.462 175.858 248.222C176.768 248.492 177.748 248.202 178.368 247.492C180.598 244.942 181.378 242.082 181.538 239.602C185.198 241.072 189.148 240.992 189.808 240.962C189.888 240.962 189.958 240.962 190.038 240.942C191.058 240.802 193.918 240.422 194.538 231.742L199.458 233.762C200.178 234.062 200.988 233.992 201.648 233.592C203.418 232.512 204.498 229.352 204.868 224.192C207.588 225.182 211.478 225.872 216.498 226.252C217.658 226.332 218.728 225.582 219.028 224.462C219.478 222.792 218.778 219.442 217.848 216.222C223.268 217.702 229.598 217.602 230.538 217.562C231.638 217.532 232.578 216.762 232.838 215.692C233.148 214.382 233.118 212.712 232.908 210.982C232.398 211.072 231.888 211.122 231.368 211.122L231.358 211.112Z" fill="#1D1032"/>
<path d="M279.138 37.2815C278.918 36.3715 278.198 35.6715 277.278 35.4815C275.358 35.0715 229.778 25.9015 201.268 58.7515C201.118 58.9115 199.998 60.1615 198.528 62.1315C186.078 56.0615 172.408 52.3615 158.478 51.2515C158.808 52.7215 158.788 54.2615 158.388 55.7615C158.358 55.8815 158.308 55.9915 158.278 56.1115C171.298 57.1715 184.068 60.5915 195.748 66.1815C192.708 71.0115 189.658 77.5015 190.208 83.5115C190.328 84.8515 191.518 85.8215 192.848 85.7115C194.188 85.5915 195.168 84.4115 195.048 83.0715C194.218 73.9315 204.778 62.1415 204.918 61.9815C226.448 37.1415 259.548 38.1915 271.648 39.5515C265.608 46.4415 257.088 59.7915 246.258 79.3815C236.598 96.8615 222.808 104.892 220.748 106.022C220.718 106.022 220.698 106.032 220.668 106.042L183.068 113.782C182.378 113.922 181.708 114.082 181.028 114.252C180.688 114.342 180.348 114.442 180.008 114.532C179.698 114.622 179.398 114.702 179.088 114.792C178.618 114.932 178.148 115.092 177.688 115.242C177.548 115.292 177.398 115.342 177.258 115.392C167.988 118.632 160.068 124.782 154.568 133.162C154.498 133.262 154.448 133.372 154.398 133.482C152.418 136.542 150.808 139.852 149.608 143.332C148.408 139.852 146.798 136.542 144.818 133.482C144.768 133.372 144.708 133.262 144.648 133.162C139.148 124.792 131.228 118.632 121.958 115.392C121.818 115.342 121.668 115.292 121.528 115.242C121.068 115.082 120.598 114.932 120.128 114.792C119.828 114.702 119.518 114.622 119.208 114.532C118.868 114.432 118.528 114.332 118.188 114.252C117.518 114.082 116.838 113.922 116.148 113.782L78.7685 106.082L78.6485 106.052C78.5885 106.042 78.5285 106.022 78.4685 106.012C76.3985 104.882 62.6185 96.8415 52.9585 79.3715C42.1185 59.7915 33.5985 46.4415 27.5585 39.5515C39.6585 38.1915 72.7585 37.1415 94.3385 62.0115C97.3085 65.2915 104.868 75.4515 104.168 83.0615C104.048 84.4015 105.028 85.5815 106.368 85.7015C107.678 85.8015 108.888 84.8415 109.008 83.5015C109.558 77.4815 106.498 70.9915 103.468 66.1715C114.958 60.6715 127.508 57.2715 140.308 56.1615C139.808 54.6015 139.738 52.9315 140.098 51.3015C126.388 52.4715 112.948 56.1615 100.678 62.1315C99.2185 60.1815 98.1085 58.9415 97.9685 58.7915C69.4285 25.8915 23.8485 35.0715 21.9285 35.4815C21.0185 35.6715 20.2885 36.3715 20.0685 37.2815C19.8485 38.1915 20.1685 39.1415 20.8885 39.7315C24.7185 42.8615 32.6385 52.6915 48.6985 81.7315C50.3685 84.7515 52.1485 87.5015 53.9685 90.0015C53.9285 90.0515 53.8685 90.0915 53.8285 90.1415C53.1185 91.0215 51.7985 92.5515 50.1685 94.4315C41.9585 103.922 34.5085 112.742 33.5485 116.472C33.2685 117.562 33.7685 118.702 34.7685 119.222L39.8585 121.912C37.2985 126.422 32.9185 134.552 32.7485 137.712C32.6885 138.832 33.3985 139.852 34.4785 140.172C34.7785 140.262 36.2685 140.682 38.1585 140.732C34.8885 146.942 31.2785 154.322 31.2785 156.692C31.2785 157.922 32.1985 158.962 33.4285 159.102C33.6185 159.122 37.1685 159.512 40.5685 157.952C42.6885 165.222 48.7585 182.562 61.4485 196.492C62.2485 195.282 63.3085 194.262 64.5985 193.512C64.7585 193.422 64.9285 193.342 65.0885 193.262C49.7885 176.432 44.4485 153.722 44.3885 153.462C44.1885 152.582 43.5185 151.892 42.6585 151.662C41.7885 151.422 40.8685 151.692 40.2485 152.342C39.3585 153.292 38.1685 153.792 37.0685 154.052C38.6485 150.322 41.9685 143.792 45.0285 138.192C45.5785 137.182 45.3485 135.922 44.4685 135.172C43.5885 134.422 42.3085 134.402 41.3985 135.112C40.5885 135.752 39.3485 135.902 38.2185 135.872C39.4985 132.662 42.5085 126.942 45.2985 122.172C45.6285 121.602 45.7185 120.912 45.5385 120.282C45.3585 119.642 44.9185 119.112 44.3385 118.802L39.0485 116.012C41.7285 111.592 49.9985 102.042 53.8285 97.6215C55.1285 96.1215 56.2285 94.8515 56.9985 93.9215C61.4785 99.3215 65.9685 103.272 69.5185 105.952C56.2585 115.142 48.3785 130.072 48.3785 146.262C48.3785 173.322 70.3885 195.332 97.4485 195.332C124.508 195.332 144.468 175.292 146.368 149.962C146.858 152.402 147.128 154.912 147.148 157.472C146.988 172.472 131.258 185.842 131.098 185.982C130.298 186.652 130.018 187.762 130.398 188.732L147.138 231.192C147.538 232.212 148.538 232.802 149.578 232.722C149.638 232.722 149.698 232.722 149.758 232.722C150.728 232.722 151.638 232.142 152.018 231.182L168.758 188.722C169.138 187.752 168.858 186.642 168.058 185.972C167.898 185.832 152.178 172.462 152.008 157.462C152.028 154.902 152.298 152.392 152.788 149.952C154.688 175.282 175.898 195.322 201.708 195.322C227.518 195.322 250.778 173.312 250.778 146.252C250.778 130.062 242.898 115.142 229.638 105.942C233.188 103.262 237.678 99.3115 242.158 93.9115C242.928 94.8315 244.038 96.1115 245.328 97.6115C249.158 102.042 257.418 111.582 260.108 116.002L254.818 118.792C254.228 119.102 253.798 119.632 253.618 120.272C253.438 120.912 253.528 121.592 253.858 122.162C256.658 126.932 259.658 132.652 260.938 135.862C259.818 135.902 258.568 135.742 257.758 135.102C256.848 134.392 255.568 134.422 254.688 135.162C253.808 135.912 253.578 137.172 254.128 138.182C257.208 143.792 260.528 150.342 262.108 154.042C260.998 153.782 259.808 153.282 258.918 152.332C258.308 151.682 257.388 151.412 256.508 151.652C255.638 151.882 254.978 152.582 254.778 153.452C254.718 153.712 249.468 176.022 234.478 192.802C236.058 193.362 237.448 194.332 238.518 195.612C250.678 181.842 256.528 165.072 258.608 157.952C262.008 159.512 265.558 159.122 265.748 159.102C266.968 158.962 267.898 157.922 267.898 156.692C267.898 154.322 264.288 146.942 261.018 140.732C262.908 140.682 264.398 140.262 264.698 140.172C265.778 139.852 266.488 138.832 266.428 137.712C266.258 134.542 261.878 126.412 259.318 121.912L264.408 119.222C265.398 118.702 265.908 117.562 265.628 116.472C264.668 112.752 257.218 103.922 249.008 94.4315C247.378 92.5515 246.058 91.0215 245.348 90.1415C245.308 90.0915 245.258 90.0515 245.208 90.0015C247.028 87.5015 248.808 84.7515 250.478 81.7315C266.538 52.6915 274.468 42.8615 278.288 39.7315C279.008 39.1415 279.328 38.1815 279.108 37.2815H279.138ZM97.4685 190.472C73.0885 190.472 53.2585 170.642 53.2585 146.262C53.2585 131.502 60.5185 117.892 72.7285 109.632C74.2885 110.052 75.7285 110.402 77.0985 110.702C77.1085 110.702 77.1185 110.702 77.1285 110.712L77.6485 110.822C77.6485 110.822 77.7285 110.842 77.7685 110.852L115.168 118.552C115.778 118.682 116.378 118.822 116.978 118.972C117.268 119.042 117.548 119.132 117.838 119.212C118.128 119.292 118.418 119.372 118.708 119.462C119.118 119.582 119.518 119.722 119.918 119.852C120.058 119.902 120.208 119.952 120.348 120.002C120.848 120.172 121.338 120.362 121.828 120.552C121.848 120.552 121.868 120.572 121.888 120.582C129.508 123.622 135.918 128.932 140.378 135.582C141.248 139.072 141.688 142.672 141.688 146.292C141.688 170.672 121.858 190.502 97.4785 190.502L97.4685 190.472ZM163.648 188.522L149.608 224.142L135.568 188.522C138.558 185.742 145.808 178.382 149.608 168.942C153.418 178.372 160.658 185.742 163.648 188.522ZM245.958 146.252C245.958 170.632 226.128 190.462 201.748 190.462C177.368 190.462 157.538 170.632 157.538 146.252C157.538 142.632 157.978 139.032 158.848 135.542C163.308 128.892 169.708 123.582 177.338 120.542C177.358 120.542 177.378 120.522 177.398 120.512C177.888 120.322 178.378 120.132 178.878 119.962C179.018 119.912 179.168 119.862 179.308 119.812C179.708 119.672 180.108 119.542 180.518 119.422C180.808 119.332 181.098 119.252 181.388 119.172C181.678 119.092 181.958 119.012 182.248 118.932C182.848 118.782 183.448 118.642 184.058 118.512L221.458 110.812C221.458 110.812 221.558 110.792 221.608 110.782L222.098 110.682C222.098 110.682 222.118 110.682 222.128 110.672C223.498 110.372 224.938 110.022 226.498 109.602C238.708 117.862 245.968 131.472 245.968 146.232L245.958 146.252Z" fill="#1D1032"/>
<path d="M149.298 62.7515C148.478 62.7515 147.658 62.6415 146.848 62.4315C144.418 61.7815 142.388 60.2215 141.128 58.0415C139.868 55.8615 139.538 53.3215 140.188 50.8915C140.838 48.4615 142.398 46.4315 144.578 45.1715C146.758 43.9115 149.298 43.5815 151.728 44.2315C154.158 44.8815 156.188 46.4415 157.448 48.6215C158.708 50.8015 159.038 53.3415 158.388 55.7715C157.738 58.2015 156.178 60.2315 153.998 61.4915C152.548 62.3315 150.938 62.7615 149.298 62.7615V62.7515ZM149.278 48.7515C148.488 48.7515 147.708 48.9615 146.998 49.3615C145.938 49.9715 145.188 50.9515 144.868 52.1315C144.548 53.3115 144.718 54.5415 145.328 55.6015C146.588 57.7815 149.388 58.5315 151.568 57.2715C152.628 56.6615 153.378 55.6815 153.698 54.5015C154.018 53.3215 153.848 52.0915 153.238 51.0315C152.628 49.9715 151.638 49.2215 150.468 48.9015C150.078 48.7915 149.678 48.7415 149.278 48.7415V48.7515Z" fill="#FF456A"/>
</svg>
