<svg xmlns="http://www.w3.org/2000/svg" class="logo astro-smyl2kif" fill="none" height="37" viewBox="0 0 141 37" width="141"><g clip-path="url(#clip0_292_358)"><path clip-rule="evenodd" d="M17.9108 15.7378C17.9108 19.2516 18.1705 22.7653 18.6712 26.242l1.0849 7.4898C18.7825 33.8983 17.7903 34 16.7702 34 15.7502 34 14.758 33.9075 13.7843 33.7318l1.085-7.4898C15.37 22.7653 15.6297 19.2516 15.6297 15.7378V.0462333C16.0099.0184933 16.3808.0 16.7702.0 17.1597.0 17.5399.0184933 17.9108.0462333V15.7378zM6.44945 30.5233l4.44175-8.5995c.3338-.647200000000002.51-1.3685.51-2.0989V.869187C4.62268 3.11613-.273438 9.48708-.273438 16.9954c0 5.5202 2.642788 10.421 6.722888 13.5279zM22.1393 19.8249C22.1393 20.5553 22.3155 21.2766 22.6493 21.9238l4.4325 8.5995c4.0893-3.1069 6.7228-8.0077 6.7228-13.5279.0-7.51757-4.8961-13.88852-11.6746-16.126213V19.8249H22.1393z" fill="url(#paint0_linear_292_358)" fill-rule="evenodd"></path><path d="M52.5358 6.6113c-6.3891.0-11.0255 4.5586-11.0255 10.8371V17.6888c0 6.3617 4.5344 10.8094 11.0255 10.8094 6.491.0 10.9606-4.4847 10.9606-10.9019V17.3559c0-6.3339-4.5066-10.75385-10.9606-10.75385V6.6113zM46.0169 17.4207c0-4.5494 2.4944-7.3789 6.5189-7.3789 4.0244.0 6.491 2.885 6.491 7.3419V17.6241c0 4.4939-2.5222 7.4066-6.4354 7.4066s-6.5838-3.0329-6.5838-7.3789V17.4207H46.0169z" fill="#fff"></path><path d="M83.5259 5.79757C82.8119 5.57565 82.2462 5.49243 81.3745 5.49243 77.9343 5.49243 75.9591 7.44348 75.9591 10.8463v1.6828H69.9503V10.6706C69.9503 8.94144 70.9796 8.57157 71.8512 8.57157 72.5282 8.57157 73.066 8.72877 73.4184 8.85822 73.4647 8.87671 73.5296 8.86747 73.5667 8.83973 73.6131 8.81199 73.6409 8.75651 73.6409 8.70103V5.94552C73.6409 5.87154 73.5945 5.80682 73.5296 5.78833 72.8156 5.56641 72.2592 5.49243 71.4061 5.49243 67.9195 5.49243 65.9907 7.39724 65.9907 10.8463V28.0358C65.9907 28.1283 66.0649 28.2022 66.1576 28.2022h3.6258C69.8761 28.2022 69.9503 28.1283 69.9503 28.0358V15.5343H75.9591V28.0451C75.9591 28.1375 76.0333 28.2022 76.1261 28.2022H79.7518C79.8445 28.2022 79.9187 28.1283 79.9187 28.0451V15.5343h3.4032C83.4146 15.5343 83.4888 15.4603 83.4888 15.3771V12.7048C83.4888 12.6124 83.4146 12.5476 83.3219 12.5476H79.9187V10.7168C79.9187 8.98767 80.948 8.61781 81.8196 8.61781 82.5337 8.61781 83.0808 8.75651 83.4146 8.87671 83.4702 8.89521 83.5259 8.88596 83.563 8.85822 83.6093 8.83048 83.6371 8.775 83.6371 8.71952V5.95477C83.6371 5.88079 83.5908 5.81606 83.5259 5.79757z" fill="#fff"></path><path d="M94.2086 15.4142C90.5365 14.8963 89.9152 14.0919 89.9152 12.4922S91.232 9.90314 93.4389 9.90314c2.411.0 3.598.89696 3.9781 3.00516C97.4263 12.9915 97.5005 13.047 97.584 13.047h3.663C101.293 13.047 101.34 13.0285 101.367 12.9915 101.395 12.9545 101.414 12.9083 101.404 12.8621 100.978 8.79354 98.2238 6.64832 93.4389 6.64832 88.9416 6.64832 85.8073 9.19115 85.8073 12.8251c0 3.6339 2.1606 5.5572 7.6966 6.2877C97.213 19.7046 97.8343 20.5368 97.8343 22.1735c0 1.8308-1.5578 3.0606-3.8853 3.0606-3.6258.0-4.3583-1.7938-4.6087-3.7264C89.331 21.4245 89.2568 21.369 89.1734 21.369h-3.839C85.288 21.369 85.2417 21.3875 85.2138 21.4245 85.186 21.4615 85.1675 21.4985 85.1675 21.5447 85.4086 24.7163 87.1241 28.4982 93.9397 28.4982c4.6643.0 8.0583-2.7925 8.0583-6.6484C101.998 17.356 99.0213 16.0522 94.2086 15.4142z" fill="#fff"></path><path d="M117.428 14.0733C116.102 12.8527 114.275 12.2147 112.151 12.2147 107.459 12.2147 104.186 15.5343 104.186 20.2963V20.5367C104.186 25.2988 107.45 28.4981 112.3 28.4981c4.163.0 6.843-1.8678 7.363-5.1226C119.663 23.3292 119.663 23.283 119.625 23.246 119.588 23.209 119.551 23.1905 119.496 23.1905h-3.515C115.898 23.1905 115.833 23.246 115.814 23.3292 115.555 24.7994 114.396 25.5392 112.374 25.5392 109.87 25.5392 108.396 24.0412 108.229 21.3134h11.313C119.635 21.3134 119.709 21.2395 119.709 21.147V20.1206c0-2.6168-.77000000000001-4.6511-2.3-6.0473H117.428zm-9.106 4.5309C108.721 16.385 110.111 15.1182 112.142 15.1182 114.34 15.1182 115.555 16.2925 115.768 18.6042h-7.456H108.322z" fill="#fff"></path><path d="M137.671 22.2104S137.597 22.155 137.55 22.155H134.221C134.138 22.155 134.064 22.2197 134.054 22.3029 133.869 24.2077 132.45 25.4375 130.438 25.4375 127.777 25.4375 126.256 23.6344 126.256 20.4998V20.2594c0-2.9682 1.604-4.8823 4.089-4.8823C132.357 15.3771 133.507 16.3018 133.776 18.1419 133.786 18.2251 133.86 18.2806 133.943 18.2806H137.458C137.504 18.2806 137.55 18.2621 137.578 18.2251 137.606 18.1881 137.625 18.1419 137.615 18.0957 137.244 14.3508 134.574 12.1963 130.28 12.1963c-4.68300000000001.0-8.086 3.412-8.086 8.1093V20.5368c0 4.7435 3.246 7.9336 8.086 7.9336 4.22.0 7.14099999999999-2.4226 7.428-6.1675C137.708 22.2567 137.699 22.2104 137.662 22.1827L137.671 22.2104z" fill="#fff"></path></g><defs><linearGradient gradientUnits="userSpaceOnUse" id="paint0_linear_292_358" x1="16.7702" x2="16.7702" y1="6.34321" y2="38.124"><stop stop-color="#00bfcb"></stop><stop offset="1" stop-color="#6619d0"></stop></linearGradient><clipPath id="clip0_292_358"><rect fill="#fff" height="37" width="141"></rect></clipPath></defs></svg>